SplineFontDB: 1.0
FontName: URWChanceryL-MediItal
FullName: URW Chancery L Medium Italic
FamilyName: URW Chancery L
Weight: Medium
Copyright: Copyright (URW)++,Copyright 1999 by (URW)++ Design & Development; Cyrillic glyphs added by Valek Filippov (c) 2001-2004
Version: 1.06
ItalicAngle: -14
UnderlinePosition: -120
UnderlineWidth: 50
Ascent: 833
Descent: 167
NeedsXUIDChange: 1
OS2WinAscent: 0
OS2WinAOffset: 1
OS2WinDescent: 0
OS2WinDOffset: 1
HheadAscent: 0
HheadAOffset: 1
HheadDescent: 0
HheadDOffset: 1
ScriptLang: 2
 1 DFLT 1 dflt 
 1 latn 1 dflt 
Encoding: adobestandard
UnicodeInterp: none
DisplaySize: -48
AntiAlias: 1
FitToEm: 1
WinInfo: 391 23 11
BeginPrivate: 8
UniqueID 7 5021575
BlueValues 23 [-20 0 391 411 573 593]
BlueScale 8 0.039625
StdHW 4 [48]
StdVW 4 [78]
StemSnapH 203 [33 39 48 53 56 63 68] 
systemdict /internaldict known
{1183615869 systemdict /internaldict get exec
/StemSnapLength 2 copy known { get 7 lt } { pop pop true } ifelse }
{ true } ifelse { pop [39 48] } if
StemSnapV 2 []
ForceBold 5 false
EndPrivate
BeginChars: 745 638
StartChar: exclam
Encoding: 33 33 1
Width: 280
VWidth: 1200
Fore
212 80 m 1
 220 69 l 2
 223 64 227 58 230 54 c 1
 202 25 193 18 156 -9 c 1
 137 14 118 45 109 68 c 1
 123 79 127 82 136 89 c 2
 145 96 l 2
 153 103 161 110 169 116 c 0
 174 121 179 125 183 128 c 1
 192 112 199 101 202 96 c 2
 212 80 l 1
258 545 m 1
 306 568 l 2
 324 576 324 576 347 587 c 1
 326 526 308 469 291 418 c 0
 281 384 270 351 259 318 c 1
 251 288 242 261 232 236 c 0
 227 221 222 205 216 189 c 1
 183 168 182 168 161 156 c 1
 219 396 236 462 258 545 c 1
EndSplineSet
EndChar
StartChar: quotedbl
Encoding: 34 34 2
Width: 220
VWidth: 1200
HStem: 571 20G<218 259 292 333>
Fore
170 405 m 1
 218 591 l 1
 259 591 l 1
 199 417 l 1
 170 405 l 1
244 405 m 1
 292 591 l 1
 333 591 l 1
 273 417 l 1
 244 405 l 1
EndSplineSet
EndChar
StartChar: numbersign
Encoding: 35 35 3
Width: 440
VWidth: 1200
HStem: 412 21G<496 596>
DStem: 318 548 357 488 293 472 330 410
Fore
215 40 m 1
 131 -1 l 1
 157 71 176 125 194 182 c 1
 63 170 l 1
 85 205 92 215 110 238 c 1
 215 238 l 1
 219 249 223 262 223 262 c 2
 230 283 236 300 240 314 c 1
 245 327 l 2
 247 331 250 340 253 353 c 1
 122 343 l 1
 129 354 140 368 154 387 c 1
 155 387 163 398 170 406 c 1
 272 408 l 1
 275 419 279 429 280 433 c 0
 284 445 288 459 293 472 c 1
 318 548 l 1
 386 575 l 1
 373 538 372 535 357 488 c 0
 345 452 341 441 330 410 c 1
 437 412 l 1
 439 420 442 428 445 436 c 0
 451 451 453 458 459 475 c 0
 465 492 466 497 482 548 c 1
 551 575 l 1
 545 556 534 525 523 491 c 0
 510 452 501 425 496 412 c 1
 596 412 l 1
 570 379 l 1
 482 372 l 1
 474 344 471 334 461 302 c 0
 449 266 449 265 441 238 c 1
 546 238 l 1
 520 206 l 1
 429 199 l 1
 417 164 393 85 381 40 c 1
 297 -1 l 1
 316 57 327 88 328 93 c 0
 337 119 349 155 350 158 c 0
 352 161 357 177 364 194 c 1
 260 186 l 1
 245 139 230 91 215 40 c 1
276 238 m 1
 378 238 l 1
 381 246 385 256 387 264 c 0
 391 276 395 288 399 301 c 0
 407 324 415 348 422 367 c 1
 315 359 l 1
 295 299 294 296 276 238 c 1
EndSplineSet
EndChar
StartChar: dollar
Encoding: 36 36 4
Width: 440
VWidth: 1200
HStem: -14 21G<142.5 162> 559 20G<387 404.5>
VStem: 176 57<381 431> 342 57<162 210>
DStem: 318 508 355 535 297 420 305 333
Fore
60 5 m 1
 107 67 l 1
 139 50 167 43 205 41 c 1
 234 164 240 189 259 263 c 1
 228 288 221 294 209 306 c 0
 188 328 176 354 176 381 c 0
 176 459 242 540 331 570 c 1
 340 618 346 648 348 662 c 1
 390 675 l 1
 374 613 374 613 366 578 c 1
 375 579 384 579 390 579 c 0
 419 579 441 568 461 543 c 1
 419 491 l 1
 400 519 378 534 355 535 c 1
 330 430 323 403 305 333 c 1
 377 286 399 257 399 210 c 0
 399 129 328 41 226 -5 c 1
 222 -23 213 -65 200 -129 c 1
 194 -131 189 -133 188 -134 c 2
 173 -139 l 2
 171 -139 165 -141 158 -144 c 1
 165 -119 176 -76 191 -12 c 1
 177 -13 166 -14 158 -14 c 0
 127 -14 99 -8 60 5 c 1
276 208 m 1
 262 148 l 2
 252 106 252 106 237 42 c 1
 270 52 285 59 303 77 c 0
 328 100 342 131 342 162 c 0
 342 195 332 210 285 245 c 1
 276 208 l 1
280 348 m 1
 286 373 291 396 297 420 c 0
 300 433 300 433 318 508 c 0
 318 511 321 521 324 536 c 1
 295 527 282 521 268 508 c 0
 247 489 233 458 233 431 c 0
 233 398 247 373 280 348 c 1
EndSplineSet
EndChar
StartChar: percent
Encoding: 37 37 5
Width: 680
VWidth: 1200
HStem: -7 27<523 553> 227 27<240 269> 317 32<598 631> 552 32<315 348>
VStem: 162 57<328 351> 360 57<472 497> 445 57<88 122> 644 57<237 262>
Fore
631 349 m 0
 676 349 701 318 701 262 c 0
 701 201 680 123 651 73 c 0
 621 22 575 -7 523 -7 c 0
 471 -7 445 29 445 102 c 0
 445 164 467 233 501 280 c 0
 531 321 584 349 631 349 c 0
598 317 m 0
 566 317 542 291 524 237 c 0
 511 198 502 147 502 108 c 0
 502 55 522 20 553 20 c 0
 599 20 644 130 644 241 c 0
 644 289 627 317 598 317 c 0
231 0 m 1
 374 222 484 400 591 584 c 1
 610 580 617 579 634 577 c 1
 563 474 361 145 276 -4 c 1
 261 -2 255 -1 231 0 c 1
348 584 m 0
 392 584 417 553 417 497 c 0
 417 435 397 358 367 307 c 0
 337 256 291 227 240 227 c 0
 188 227 162 263 162 336 c 0
 162 398 184 468 218 514 c 0
 248 555 301 584 348 584 c 0
315 552 m 0
 283 552 258 525 241 472 c 0
 228 433 219 380 219 342 c 0
 219 289 239 254 269 254 c 0
 315 254 360 365 360 477 c 0
 360 524 343 552 315 552 c 0
EndSplineSet
EndChar
StartChar: ampersand
Encoding: 38 38 6
Width: 780
VWidth: 1200
HStem: -17 52<299 354> 317 62<574 624>
VStem: 121 77<117 154> 499 77<468 511>
Fore
836 499 m 1
 855 477 l 1
 840 413 813 348 795 332 c 0
 782 320 769 318 692 316 c 1
 662 208 644 173 589 116 c 0
 505 28 406 -17 299 -17 c 0
 186 -17 121 32 121 117 c 0
 121 167 140 233 170 289 c 0
 190 325 214 350 264 384 c 0
 300 410 328 421 353 421 c 0
 385 421 405 403 417 367 c 1
 479 403 499 427 499 468 c 0
 499 482 496 493 487 515 c 1
 558 557 l 1
 572 539 576 528 576 511 c 0
 576 465 545 424 474 375 c 0
 471 372 402 329 267 244 c 0
 214 211 198 190 198 154 c 0
 198 83 261 35 354 35 c 0
 443 35 521 75 563 141 c 0
 591 184 607 231 624 316 c 1
 613 317 601 317 594 317 c 0
 520 317 485 279 446 160 c 1
 423 166 l 1
 477 348 500 379 583 379 c 2
 630 378 l 2
 633 378 638 378 647 379 c 1
 673 394 683 400 710 412 c 1
 702 379 l 1
 784 382 788 383 802 406 c 0
 812 423 829 468 836 499 c 1
200 238 m 1
 348 324 l 1
 341 359 328 374 305 374 c 0
 282 374 253 353 232 320 c 0
 219 299 214 286 200 238 c 1
EndSplineSet
EndChar
StartChar: quoteright
Encoding: 39 8217 7
Width: 240
VWidth: 1200
Fore
256 358 m 1
 228 366 l 1
 283 436 296 460 296 494 c 0
 296 507 294 517 288 543 c 1
 304 551 319 560 334 568 c 2
 352 578 l 1
 357 557 358 547 358 534 c 0
 358 488 344 464 256 358 c 1
EndSplineSet
KernsSLIF: 121 4 0 0 118 -1 0 0 116 -9 0 0 115 -21 0 0 114 1 0 0 46 -38 0 0 111 -29 0 0 100 -27 0 0 44 -38 0 0 225 -60 0 0
EndChar
StartChar: parenleft
Encoding: 40 40 8
Width: 260
VWidth: 1200
VStem: 116 66<2 66>
Fore
404 663 m 2
 412 659 l 1
 334 585 291 520 248 411 c 0
 205 304 182 181 182 66 c 0
 182 -17 190 -70 216 -148 c 1
 197 -156 191 -157 153 -165 c 1
 126 -104 116 -60 116 2 c 0
 116 148 156 314 223 448 c 0
 270 542 314 602 385 668 c 1
 395 668 l 1
 400 666 401 665 404 663 c 2
EndSplineSet
EndChar
StartChar: parenright
Encoding: 41 41 9
Width: 220
VWidth: 1200
VStem: 247 66<438 499>
Fore
28 -163 m 2
 23 -160 l 2
 22 -160 20 -158 17 -157 c 1
 94 -84 137 -19 181 91 c 0
 224 198 247 321 247 438 c 0
 247 520 239 571 213 650 c 1
 233 657 239 659 277 667 c 1
 303 604 313 559 313 499 c 0
 313 355 273 187 206 54 c 0
 158 -41 114 -101 44 -166 c 1
 34 -166 l 2
 31 -165 29 -164 28 -163 c 2
EndSplineSet
EndChar
StartChar: asterisk
Encoding: 42 42 10
Width: 420
VWidth: 1200
DStem: 325 519 337 496 220 471 239 441 498 612 512 579 404 562 409 532
Fore
220 471 m 1
 325 519 l 1
 332 541 l 1
 263 603 l 1
 295 633 l 1
 355 565 l 1
 364 568 l 1
 389 677 l 1
 432 677 l 1
 397 569 l 1
 404 562 l 1
 498 612 l 1
 512 579 l 1
 409 532 l 1
 406 519 l 1
 480 452 l 1
 446 423 l 1
 386 493 l 1
 375 489 l 1
 348 377 l 1
 304 377 l 1
 343 490 l 1
 337 496 l 1
 239 441 l 1
 220 471 l 1
EndSplineSet
EndChar
StartChar: plus
Encoding: 43 43 11
Width: 520
VWidth: 1200
HStem: 192 54<103 281 335 513>
VStem: 281 54<14 192 246 424>
Fore
335 192 m 1
 335 14 l 1
 281 14 l 1
 281 192 l 1
 103 192 l 1
 103 246 l 1
 281 246 l 1
 281 424 l 1
 335 424 l 1
 335 246 l 1
 513 246 l 1
 513 192 l 1
 335 192 l 1
EndSplineSet
EndChar
StartChar: comma
Encoding: 44 44 12
Width: 220
VWidth: 1200
Fore
57 -98 m 1
 30 -87 l 1
 106 -19 134 39 143 151 c 1
 178 161 179 162 215 173 c 1
 192 33 174 3 57 -98 c 1
EndSplineSet
KernsSLIF: 39 -58 0 0 186 -53 0 0 49 -40 0 0
EndChar
StartChar: hyphen
Encoding: 45 45 13
Width: 280
VWidth: 1200
HStem: 173 64<163 228>
Fore
124 173 m 1
 115 173 l 1
 132 200 149 222 163 236 c 1
 186 237 195 237 209 237 c 2
 300 236 l 1
 284 217 269 196 255 173 c 1
 229 175 221 175 212 175 c 2
 124 173 l 1
EndSplineSet
KernsSLIF: 89 25 0 0 87 -7 0 0 86 -5 0 0 84 -1 0 0 262 -44 0 0 256 -44 0 0 257 -44 0 0 225 -10 0 0 65 -44 0 0
EndChar
StartChar: period
Encoding: 46 46 14
Width: 220
VWidth: 1200
Fore
134 89 m 2
 143 96 l 2
 151 103 159 110 167 116 c 0
 173 121 178 125 181 128 c 1
 193 107 198 99 205 88 c 0
 206 87 216 71 228 54 c 1
 201 26 192 19 154 -9 c 1
 135 14 115 46 107 68 c 1
 120 78 129 85 134 89 c 2
EndSplineSet
KernsSLIF: 39 -48 0 0 186 -43 0 0 49 -25 0 0
EndChar
StartChar: slash
Encoding: 47 47 15
Width: 340
VWidth: 1200
Fore
18 -169 m 2
 -6 -167 l 1
 41 -94 57 -68 109 19 c 0
 421 549 432 568 492 679 c 1
 499 678 503 677 505 677 c 2
 522 676 l 1
 522 676 529 675 535 675 c 1
 501 629 371 407 39 -170 c 1
 28 -169 27 -169 18 -169 c 2
EndSplineSet
EndChar
StartChar: zero
Encoding: 48 48 16
Width: 440
VWidth: 1200
HStem: -7 37<210 257> 534 42<331 380>
VStem: 94 87<152 169> 402 87<385 416>
Fore
380 576 m 0
 452 576 489 522 489 416 c 0
 489 332 460 212 420 136 c 0
 374 46 296 -7 210 -7 c 0
 134 -7 94 49 94 157 c 0
 94 251 131 380 178 452 c 0
 227 526 308 576 380 576 c 0
331 534 m 0
 285 534 247 489 220 399 c 0
 200 334 181 222 181 167 c 0
 181 87 213 30 257 30 c 0
 291 30 324 64 349 125 c 0
 381 202 402 305 402 385 c 0
 402 481 376 534 331 534 c 0
EndSplineSet
KernsSLIF: 55 -31 0 0 49 -36 0 0 52 -12 0 0
EndChar
StartChar: one
Encoding: 49 49 17
Width: 440
VWidth: 1200
HStem: 0 21G<82 145 369 410>
Fore
82 0 m 1
 111 27 l 1
 122 29 149 32 191 37 c 0
 223 41 224 43 234 85 c 2
 329 494 l 1
 314 489 305 486 301 484 c 2
 271 472 l 2
 253 465 241 460 217 452 c 1
 187 467 l 1
 233 488 266 502 285 511 c 0
 317 526 319 527 388 564 c 2
 422 582 l 1
 406 522 383 427 340 238 c 0
 325 168 315 122 312 110 c 0
 307 94 305 79 305 68 c 0
 305 53 315 42 331 38 c 0
 350 34 404 28 434 27 c 1
 410 0 l 1
 369 0 l 1
 254 1 l 1
 145 0 l 1
 82 0 l 1
EndSplineSet
KernsSLIF: 48 -30 0 0 50 -1 0 0 51 5 0 0 54 -37 0 0 55 -59 0 0 46 -29 0 0 49 -25 0 0 57 1 0 0 52 -46 0 0 53 -12 0 0 56 -20 0 0 44 -31 0 0
EndChar
StartChar: two
Encoding: 50 50 18
Width: 440
VWidth: 1200
HStem: -3 72<356 368> 532 40<308 363>
VStem: 163 62<414 441> 389 77<434 467>
Fore
51 -17 m 1
 47 12 l 1
 96 74 111 89 240 210 c 0
 317 282 342 309 363 343 c 0
 379 368 389 403 389 434 c 0
 389 491 355 532 308 532 c 0
 258 532 225 496 225 441 c 0
 225 423 228 409 237 382 c 1
 166 390 l 1
 164 401 163 406 163 414 c 0
 163 455 182 491 218 519 c 0
 259 553 312 572 363 572 c 0
 425 572 466 531 466 467 c 0
 466 423 454 389 425 345 c 1
 404 325 400 321 375 298 c 2
 286 215 l 1
 249 182 220 154 163 101 c 1
 213 93 273 84 342 72 c 0
 351 70 358 69 363 69 c 0
 390 69 397 76 461 157 c 1
 469 134 l 1
 439 88 409 44 381 2 c 1
 371 -2 366 -3 358 -3 c 0
 342 -3 244 15 170 32 c 0
 154 36 141 38 131 38 c 0
 106 38 94 30 51 -17 c 1
EndSplineSet
KernsSLIF: 55 -34 0 0 49 -42 0 0 52 6 0 0
EndChar
StartChar: three
Encoding: 51 51 19
Width: 440
VWidth: 1200
HStem: -6 44<154 212> 518 57<325 374>
VStem: 368 77<206 260> 381 77<459 503>
Fore
36 26 m 1xe0
 82 77 l 1
 157 44 176 38 212 38 c 0
 298 38 368 114 368 206 c 0xe0
 368 262 333 302 284 302 c 0
 263 302 259 301 180 271 c 1
 183 297 l 1
 322 350 381 398 381 459 c 0
 381 493 357 518 325 518 c 0
 301 518 261 502 223 476 c 1
 223 501 l 1
 236 510 248 518 252 521 c 0
 275 537 291 548 294 550 c 0
 298 552 310 559 322 566 c 1
 348 573 360 575 374 575 c 0
 424 575 458 546 458 503 c 0xd0
 458 473 447 447 420 414 c 1
 386 389 366 374 342 356 c 1
 377 351 392 346 408 335 c 0
 431 319 445 291 445 260 c 0
 445 130 297 -6 154 -6 c 0
 111 -6 78 3 36 26 c 1xe0
EndSplineSet
KernsSLIF: 55 -47 0 0 49 -54 0 0 52 -19 0 0
EndChar
StartChar: four
Encoding: 52 52 20
Width: 440
VWidth: 1200
HStem: 151 54<196 285 367 413>
Fore
243 -14 m 1
 285 152 l 1
 266 151 256 151 250 151 c 0
 224 151 95 154 69 155 c 1
 87 195 90 200 117 234 c 2
 200 336 l 2
 231 375 259 408 283 435 c 0
 309 464 335 493 361 523 c 0
 369 532 377 541 385 551 c 1
 414 566 437 577 455 585 c 1
 442 539 439 526 419 434 c 0
 394 323 377 246 367 204 c 1
 409 203 409 203 414 203 c 0
 422 203 434 203 450 204 c 1
 413 152 l 1
 397 152 l 1
 373 152 l 1
 355 152 l 1
 342 92 338 70 338 49 c 0
 338 35 340 27 349 12 c 1
 347 5 l 1
 325 -1 292 -13 264 -25 c 1
 254 -23 252 -21 243 -14 c 1
271 204 m 1
 298 204 l 1
 320 301 333 354 365 488 c 1
 193 280 176 260 139 208 c 1
 171 207 l 2
 194 206 213 205 222 205 c 2
 271 204 l 1
EndSplineSet
KernsSLIF: 55 -50 0 0 49 -57 0 0 52 -11 0 0
EndChar
StartChar: five
Encoding: 53 53 21
Width: 440
VWidth: 1200
HStem: -8 52<165 211> 308 62<261 298> 488 72<362 396>
VStem: 365 77<204 240>
Fore
67 10 m 1
 116 69 l 1
 155 50 179 44 211 44 c 0
 300 44 365 111 365 204 c 0
 365 263 320 308 261 308 c 0
 235 308 213 301 180 283 c 1
 170 293 l 1
 244 479 251 497 274 569 c 1
 320 563 363 560 394 560 c 0
 464 560 495 575 565 640 c 1
 556 603 l 1
 539 584 508 550 486 528 c 0
 455 496 430 488 364 488 c 0
 338 488 324 489 292 492 c 1
 289 485 283 471 282 468 c 0
 277 455 272 443 266 430 c 0
 261 417 252 396 236 362 c 1
 264 368 278 370 298 370 c 0
 386 370 442 320 442 240 c 0
 442 181 410 125 346 71 c 0
 283 18 224 -8 165 -8 c 0
 132 -8 101 -2 67 10 c 1
EndSplineSet
KernsSLIF: 55 -30 0 0 49 -56 0 0 52 -18 0 0
EndChar
StartChar: six
Encoding: 54 54 22
Width: 440
VWidth: 1200
HStem: -8 39<213 272> 257 57<288 340> 543 42<413 466>
VStem: 95 77<138 167> 381 77<153 194>
Fore
532 571 m 1
 489 515 l 1
 462 535 440 543 413 543 c 0
 352 543 286 495 240 418 c 0
 212 370 195 324 179 246 c 1
 195 255 206 261 211 264 c 2
 240 282 l 1
 269 299 l 1
 296 310 316 314 340 314 c 0
 409 314 458 265 458 194 c 0
 458 90 339 -8 213 -8 c 0
 139 -8 95 46 95 138 c 0
 95 246 152 380 236 470 c 0
 307 545 386 585 466 585 c 0
 490 585 504 582 532 571 c 1
176 212 m 1
 173 192 172 181 172 167 c 0
 172 83 210 31 272 31 c 0
 330 31 381 88 381 153 c 0
 381 213 342 257 288 257 c 0
 252 257 223 245 176 212 c 1
EndSplineSet
KernsSLIF: 55 -36 0 0 49 -47 0 0 52 -2 0 0
EndChar
StartChar: seven
Encoding: 55 55 23
Width: 440
VWidth: 1200
HStem: 483 69<271 365> 483 128<234 271>
VStem: 165 87<38 76>
Fore
259 10 m 1xa0
 169 -18 l 1
 166 10 165 23 165 38 c 0
 165 57 166 68 172 89 c 1
 232 197 273 253 467 492 c 1
 385 486 321 483 271 483 c 0xa0
 245 483 229 484 195 486 c 1
 192 492 l 1
 205 532 206 533 225 585 c 0
 228 593 231 601 235 611 c 1
 250 611 l 1x60
 255 552 256 552 365 552 c 0
 434 552 490 553 541 557 c 1
 510 510 505 502 462 445 c 0
 279 205 252 158 252 76 c 0
 252 57 254 42 259 10 c 1xa0
EndSplineSet
KernsSLIF: 50 -36 0 0 51 -53 0 0 54 -40 0 0 55 -27 0 0 46 -75 0 0 49 -44 0 0 52 -62 0 0 53 -54 0 0 56 -44 0 0 44 -78 0 0 58 -73 0 0
EndChar
StartChar: eight
Encoding: 56 56 24
Width: 440
VWidth: 1200
HStem: -10 37<183 237> 540 32<365 406>
VStem: 75 87<92 124> 202 77<406 436> 351 87<153 197> 417 77<478 494>
Fore
251 298 m 1xf8
 215 340 202 369 202 406 c 0
 202 492 300 572 406 572 c 0
 458 572 494 540 494 494 c 0xf4
 494 459 481 432 441 388 c 1
 389 352 379 347 340 325 c 1
 350 317 359 309 362 307 c 0
 407 271 410 269 420 253 c 0
 432 235 438 217 438 197 c 0
 438 141 405 83 354 48 c 0
 304 14 233 -10 183 -10 c 0
 120 -10 75 32 75 92 c 0
 75 144 95 188 140 233 c 1
 210 272 211 273 251 298 c 1xf8
271 280 m 1
 260 273 254 270 248 267 c 0
 192 233 162 184 162 124 c 0
 162 65 191 27 237 27 c 0
 295 27 351 89 351 153 c 0xf8
 351 186 341 210 315 236 c 0
 305 247 301 251 271 280 c 1
320 341 m 1
 381 373 417 423 417 478 c 0xf4
 417 514 396 540 365 540 c 0
 319 540 279 492 279 436 c 0
 279 402 293 371 320 341 c 1
EndSplineSet
KernsSLIF: 55 -38 0 0 49 -41 0 0 52 -12 0 0
EndChar
StartChar: nine
Encoding: 57 57 25
Width: 440
VWidth: 1200
HStem: -8 44<138 193> 242 57<239 285> 529 47<308 374>
VStem: 124 77<364 402> 403 77<398 426>
Fore
42 15 m 1
 90 68 l 1
 135 44 162 36 193 36 c 0
 254 36 312 81 352 158 c 0
 372 198 383 236 396 312 c 1
 296 251 275 242 239 242 c 0
 172 242 124 292 124 364 c 0
 124 420 154 472 211 515 c 0
 263 553 324 576 374 576 c 0
 441 576 480 521 480 426 c 0
 480 334 444 213 396 144 c 0
 335 55 228 -8 138 -8 c 0
 104 -8 78 -2 42 15 c 1
400 349 m 1
 402 374 403 388 403 400 c 0
 403 479 366 529 308 529 c 0
 245 529 201 476 201 402 c 0
 201 343 237 299 285 299 c 0
 319 299 360 317 400 349 c 1
EndSplineSet
KernsSLIF: 55 -41 0 0 49 -46 0 0 52 -24 0 0
EndChar
StartChar: colon
Encoding: 58 58 26
Width: 260
VWidth: 1200
Fore
215 272 m 1
 203 292 l 1
 196 301 190 311 189 312 c 0
 185 318 181 324 176 330 c 0
 175 331 169 340 165 346 c 1
 193 373 208 385 242 408 c 1
 262 384 280 355 289 331 c 1
 273 319 271 317 262 310 c 0
 258 307 247 298 229 283 c 0
 226 281 221 277 215 272 c 1
98 68 m 1
 104 73 117 83 125 89 c 0
 129 93 140 102 158 116 c 0
 160 118 165 122 172 128 c 1
 186 105 187 104 192 96 c 0
 197 89 198 88 203 80 c 0
 206 77 208 73 211 69 c 0
 215 64 219 59 222 54 c 1
 193 26 183 18 145 -9 c 1
 126 14 106 46 98 68 c 1
EndSplineSet
EndChar
StartChar: semicolon
Encoding: 59 59 27
Width: 240
VWidth: 1200
Fore
277 331 m 1
 263 321 259 318 250 310 c 0
 246 307 235 298 217 283 c 0
 212 279 207 276 203 272 c 1
 187 298 187 298 184 304 c 0
 179 312 179 312 167 330 c 0
 164 334 161 339 156 346 c 1
 184 374 197 385 230 408 c 1
 250 385 268 355 277 331 c 1
56 -98 m 1
 29 -87 l 1
 105 -19 133 39 142 151 c 1
 154 154 171 160 181 163 c 0
 192 166 203 169 214 173 c 1
 191 33 173 3 56 -98 c 1
EndSplineSet
EndChar
StartChar: less
Encoding: 60 60 28
Width: 520
VWidth: 1200
DStem: 120 202 190 225 557 2 557 55 557 449 557 396 120 249 190 225
Fore
557 55 m 1
 557 2 l 1
 120 202 l 1
 120 249 l 1
 557 449 l 1
 557 396 l 1
 190 225 l 1
 557 55 l 1
EndSplineSet
EndChar
StartChar: equal
Encoding: 61 61 29
Width: 520
VWidth: 1200
HStem: 108 54<108 518> 276 54<108 518>
Fore
518 162 m 1
 518 108 l 1
 108 108 l 1
 108 162 l 1
 518 162 l 1
518 330 m 1
 518 276 l 1
 108 276 l 1
 108 330 l 1
 518 330 l 1
EndSplineSet
EndChar
StartChar: greater
Encoding: 62 62 30
Width: 520
VWidth: 1200
DStem: 119 396 119 449 485 225 556 249 485 225 556 202 119 55 119 2
Fore
119 55 m 1
 485 225 l 1
 119 396 l 1
 119 449 l 1
 556 249 l 1
 556 202 l 1
 119 2 l 1
 119 55 l 1
EndSplineSet
EndChar
StartChar: question
Encoding: 63 63 31
Width: 380
VWidth: 1200
HStem: 550 32<353 380>
VStem: 415 82<470 491>
Fore
190 116 m 2
 204 128 l 1
 209 118 217 106 223 96 c 0
 228 88 229 86 240 69 c 0
 244 64 248 59 251 54 c 1
 223 25 213 17 177 -9 c 1
 158 14 139 45 130 68 c 1
 143 78 148 82 157 89 c 0
 161 92 172 101 190 116 c 2
219 175 m 1
 185 164 l 1
 191 237 193 252 202 325 c 1
 220 340 l 1
 242 335 252 334 266 334 c 0
 313 334 346 349 375 382 c 0
 400 412 415 449 415 484 c 0
 415 523 392 550 359 550 c 0
 316 550 277 520 247 464 c 1
 237 492 233 501 226 525 c 1
 271 566 315 582 380 582 c 0
 452 582 497 546 497 489 c 0
 497 423 459 358 401 325 c 0
 364 303 345 298 275 292 c 1
 242 293 226 259 219 175 c 1
EndSplineSet
EndChar
StartChar: at
Encoding: 64 64 32
Width: 700
VWidth: 1200
HStem: -31 35<255 299> 560 32<547 585>
VStem: 102 66<102 133> 271 67<165 209> 461 72<113 187> 699 66<448 471>
Fore
566 55 m 1
 577 35 l 1
 460 -12 369 -31 255 -31 c 0
 198 -31 166 -24 143 -5 c 0
 117 16 102 55 102 102 c 0
 102 222 149 373 211 451 c 0
 285 543 412 592 576 592 c 0
 632 592 671 586 701 574 c 0
 741 558 765 519 765 471 c 0
 765 394 726 294 665 212 c 0
 623 157 523 94 477 94 c 0
 466 94 461 100 461 113 c 0
 461 119 468 172 471 193 c 1
 356 109 330 93 310 93 c 0
 287 93 271 122 271 165 c 0
 271 243 306 360 341 397 c 0
 349 406 392 437 422 457 c 0
 447 472 461 476 499 476 c 0
 537 476 570 472 611 463 c 1
 601 452 598 449 583 431 c 1
 554 312 533 207 533 187 c 0
 533 172 538 165 549 165 c 0
 588 165 624 201 652 268 c 0
 683 340 699 404 699 450 c 0
 699 524 653 560 562 560 c 0
 489 560 415 546 358 523 c 0
 283 491 235 436 203 341 c 0
 181 276 168 201 168 133 c 0
 168 49 212 4 297 4 c 0
 381 4 479 23 566 55 c 1
477 228 m 1
 479 238 481 249 484 260 c 0
 491 296 497 322 498 329 c 0
 503 347 508 366 522 423 c 1
 497 429 458 434 443 434 c 0
 414 434 394 413 373 365 c 0
 351 313 338 256 338 209 c 0
 338 178 347 160 363 160 c 0
 380 160 410 178 477 228 c 1
EndSplineSet
EndChar
StartChar: A
Encoding: 65 65 33
Width: 620
VWidth: 1200
HStem: -13 240<353 505> 0 72<76 105> 186 41<322 433.669> 517 62<384 418>
VStem: 201 67<361 426>
DStem: 528 505 546 480 355 281 353 227
Fore
23 9 m 1x78
 61 79 l 1
 79 73 88 72 105 72 c 0x78
 151 72 181 86 221 125 c 0
 247 150 313 227 355 281 c 2
 528 505 l 1
 501 507 493 507 476 509 c 2
 461 510 l 1
 421 515 l 2
 407 516 395 517 384 517 c 0
 311 517 268 483 268 426 c 0
 268 403 273 380 289 333 c 1
 215 293 l 1
 204 322 201 338 201 361 c 0
 201 414 224 459 277 510 c 0
 324 556 372 579 418 579 c 0
 438 579 463 576 509 569 c 0
 550 562 554 562 566 562 c 0
 583 562 592 566 608 582 c 0
 611 586 615 590 619 594 c 1
 633 584 l 1
 602 428 562 144 562 81 c 0
 562 46 574 36 613 36 c 0
 628 36 633 36 664 39 c 0
 667 39 677 40 687 41 c 1
 671 17 l 1
 623 9 575 0 527 -9 c 0
 515 -12 505 -13 498 -13 c 0x98
 485 -13 475 -3 475 9 c 0
 475 19 477 35 480 52 c 0
 481 55 484 74 486 93 c 0
 489 114 492 133 494 146 c 0
 495 158 497 170 499 182 c 1
 460 185 401 186 322 186 c 1
 190 35 144 0 76 0 c 0
 58 0 46 2 23 9 c 1x78
353 227 m 1x98
 505 227 l 1
 546 480 l 1
 353 227 l 1x98
EndSplineSet
KernsSLIF: 121 5 1 0 119 -18 1 0 118 -13 1 0 117 1 1 0 116 -12 1 0 39 -58 1 0 186 -47 1 0 113 11 1 0 46 6 1 0 111 8 1 0 45 -10 1 0 172 -9 1 0 171 -10 1 0 103 9 1 0 101 9 1 0 100 11 1 0 44 2 1 0 332 10 1 0 99 10 1 0 98 7 1 0 97 11 1 0 89 -1 1 0 87 -19 1 0 86 -19 1 0 300 -24 1 0 298 -24 1 0 301 -24 1 0 299 -24 1 0 85 -22 1 0 84 -14 1 0 81 -11 1 0 286 -10 1 0 79 -10 1 0 71 -12 1 0 264 12 1 0 67 13 1 0
EndChar
StartChar: B
Encoding: 66 66 34
Width: 600
VWidth: 1200
HStem: -2 42<303 379> 294 26<383 415> 557 28<442 467>
VStem: 75 77<319 365> 537 87<197 220> 555 87<474 490>
DStem: 367 550 442 557 293 254 383 320
Fore
90 1 m 1xf8
 137 49 l 1
 234 59 251 81 293 254 c 1
 367 550 l 1
 304 546 264 534 224 508 c 0
 173 475 152 433 152 365 c 0
 152 346 153 335 162 291 c 1
 82 254 l 1
 77 284 75 299 75 319 c 0
 75 407 116 477 196 526 c 0
 242 553 290 568 376 581 c 1
 457 616 l 1
 449 585 l 1
 465 585 l 2
 588 585 642 556 642 490 c 0xf4
 642 426 592 371 493 326 c 1
 541 321 563 315 584 299 c 0
 609 280 624 251 624 220 c 0
 624 148 580 90 490 45 c 0
 423 11 371 -2 303 -2 c 0
 287 -2 287 -2 217 0 c 2
 182 0 l 1
 148 0 l 2
 117 1 116 1 90 1 c 1xf8
376 292 m 1
 366 254 l 1
 345 164 329 140 231 53 c 1
 325 43 354 40 379 40 c 0
 429 40 469 56 496 87 c 0
 521 115 537 159 537 197 c 0xf8
 537 259 492 294 415 294 c 0
 405 294 396 294 376 292 c 1
442 557 m 1
 383 320 l 1
 437 321 467 330 497 353 c 0
 532 379 555 427 555 474 c 0xf4
 555 506 540 535 516 547 c 0
 502 554 491 556 442 557 c 1
EndSplineSet
KernsSLIF: 89 8 1 0 87 -8 1 0 86 -8 1 0 233 -18 1 0 288 -2 1 0 286 -2 1 0 289 -2 1 0 287 -2 1 0 234 -3 1 0 261 -26 1 0 262 -26 1 0 256 -26 1 0 259 -26 1 0 257 -26 1 0 225 -31 1 0 65 -26 1 0
EndChar
StartChar: C
Encoding: 67 67 35
Width: 520
VWidth: 1200
HStem: -73 47<241 299> 544 47<465 518>
VStem: 88 82<92 129>
Fore
529 63 m 1
 522 33 l 1
 436 -32 327 -73 241 -73 c 0
 145 -73 88 -11 88 92 c 0
 88 222 145 355 242 452 c 0
 330 540 431 591 518 591 c 0
 590 591 626 560 635 491 c 1
 561 428 l 1
 555 507 525 544 465 544 c 0
 317 544 170 337 170 129 c 0
 170 34 220 -26 299 -26 c 0
 369 -26 437 0 529 63 c 1
EndSplineSet
KernsSLIF: 286 -25 1 0 287 -25 1 0 79 -25 1 0 75 -6 1 0 72 2 1 0 262 12 1 0 256 12 1 0 257 12 1 0 225 10 1 0 65 12 1 0
EndChar
StartChar: D
Encoding: 68 68 36
Width: 700
VWidth: 1200
HStem: 0 45<213 383>
VStem: 86 82<311 347> 672 87<380 404>
DStem: 382 550 456 555 307 252 401 338
Fore
86 0 m 1
 134 46 l 1
 242 54 268 85 307 252 c 1
 382 550 l 1
 242 536 168 466 168 347 c 0
 168 329 169 317 175 291 c 1
 93 254 l 1
 87 280 86 292 86 311 c 0
 86 396 127 463 212 518 c 0
 265 552 317 570 399 584 c 1
 471 614 l 1
 464 586 l 1
 561 580 612 572 655 553 c 0
 723 523 759 471 759 402 c 0
 759 317 723 212 672 149 c 0
 633 101 551 49 471 22 c 0
 418 3 378 0 213 0 c 2
 86 0 l 1
456 555 m 1
 401 338 l 1
 356 157 356 157 240 49 c 1
 368 45 l 1
 383 45 l 2
 486 45 545 69 594 132 c 0
 639 189 672 296 672 382 c 0
 672 449 643 504 594 530 c 0
 563 546 529 552 456 555 c 1
EndSplineSet
KernsSLIF: 89 19 1 0 88 -23 1 0 87 3 1 0 86 3 1 0 84 26 1 0 74 -31 1 0 261 -32 1 0 262 -32 1 0 258 -32 1 0 256 -32 1 0 259 -32 1 0 257 -32 1 0 65 -29 1 0
EndChar
StartChar: E
Encoding: 69 69 37
Width: 620
VWidth: 1200
HStem: -8 49<218 509> 276 31<362 476>
VStem: 76 77<368 418> 587 76<84 127>
DStem: 345 532 419 534 289 307 362 307
Fore
362 307 m 1
 541 307 l 1
 523 293 521 291 503 278 c 1
 491 277 480 277 476 276 c 0
 470 276 455 275 433 274 c 0
 409 272 403 272 352 269 c 1
 316 132 315 130 218 41 c 1
 478 41 l 2
 574 41 587 46 587 84 c 0
 587 93 586 101 583 122 c 1
 659 150 l 1
 662 140 663 132 663 127 c 0
 663 104 646 80 600 39 c 0
 555 -2 541 -8 489 -8 c 0
 446 -8 445 -8 324 -4 c 0
 301 -3 274 -2 244 -2 c 2
 154 -1 l 2
 147 -1 126 -1 98 0 c 1
 136 33 l 1
 218 53 229 70 267 224 c 0
 271 236 274 249 278 264 c 1
 250 264 l 1
 267 284 272 290 289 307 c 1
 345 532 l 1
 209 528 153 496 153 418 c 0
 153 393 157 367 166 335 c 1
 94 287 l 1
 80 322 76 342 76 368 c 0
 76 420 98 460 148 500 c 0
 205 545 266 564 362 565 c 1
 432 586 l 1
 426 565 l 1
 640 569 l 1
 657 563 665 552 668 530 c 1
 602 464 l 1
 575 530 568 537 529 537 c 0
 523 537 492 536 450 534 c 2
 419 534 l 1
 362 307 l 1
EndSplineSet
EndChar
StartChar: F
Encoding: 70 70 38
Width: 580
VWidth: 1200
HStem: -114 66<110 166> 546 39<500.047 600 600.063 629.397>
VStem: 150 77<347 407>
DStem: 352 247 426 252 325 140 402 156 427 550 500 550 363 293 436 293
Fore
436 293 m 1
 594 293 l 1
 569 268 561 263 533 259 c 0
 530 258 483 255 426 252 c 1
 402 156 l 2
 378 61 352 18 279 -41 c 0
 213 -95 170 -114 110 -114 c 0
 99 -114 81 -113 60 -111 c 1
 99 -46 l 1
 136 -47 153 -48 166 -48 c 0
 261 -48 285 -20 325 140 c 2
 352 247 l 1
 327 247 l 1
 363 293 l 1
 427 550 l 1
 408 552 391 553 379 553 c 0
 286 553 227 497 227 407 c 0
 227 377 231 355 247 308 c 1
 163 270 l 1
 153 306 150 323 150 347 c 0
 150 420 184 490 240 531 c 0
 295 570 358 586 466 586 c 2
 600 585 l 2
 656 585 691 594 733 620 c 1
 729 606 728 604 723 592 c 1
 702 579 673 557 660 546 c 1
 500 550 l 1
 436 293 l 1
EndSplineSet
KernsSLIF: 117 -21 1 0 114 -24 1 0 46 -70 1 0 249 -47 1 0 250 -40 1 0 351 -19 1 0 352 -41 1 0 111 -41 1 0 106 -9 1 0 105 -11 1 0 45 -24 1 0 335 -37 1 0 101 -37 1 0 44 -82 1 0 328 -41 1 0 241 -40 1 0 322 -39 1 0 323 -41 1 0 97 -41 1 0 286 -25 1 0 79 -25 1 0 74 -55 1 0 261 -54 1 0 262 -54 1 0 258 -54 1 0 256 -54 1 0 259 -54 1 0 257 -54 1 0 65 -55 1 0
EndChar
StartChar: G
Encoding: 71 71 39
Width: 620
VWidth: 1200
HStem: -236 62<239 317> -12 41<257 325> 240 33<424 509> 555 36<477 538>
VStem: 118 87<145 178>
DStem: 509 240 582 240 473 96 543 84
Fore
582 240 m 1
 543 84 l 6
 514 -32 496 -74 453 -123 c 4
 387 -200 319 -236 239 -236 c 4
 219 -236 203 -235 167 -231 c 5
 209 -165 l 5
 239 -170 288 -174 317 -174 c 4
 370 -174 399 -152 419 -98 c 4
 428 -76 446 -11 461 49 c 5
 372 4 319 -12 257 -12 c 0
 171 -12 118 48 118 145 c 0
 118 250 169 373 250 460 c 0
 330 546 429 591 538 591 c 0
 614 591 651 569 670 512 c 1
 596 429 l 1
 590 471 585 488 572 508 c 0
 553 538 518 555 477 555 c 0
 337 555 205 373 205 178 c 0
 205 87 251 29 325 29 c 0
 371 29 431 56 473 96 c 1
 509 240 l 1
 462 239 413 237 363 234 c 1
 363 242 l 1
 424 273 l 1
 517 273 609 271 649 268 c 1
 603 240 l 1
 582 240 l 1
EndSplineSet
KernsSLIF: 89 3 1 0 87 -19 1 0 86 -18 1 0 84 2 1 0 261 -33 1 0 262 -33 1 0 258 -33 1 0 256 -33 1 0 259 -33 1 0 257 -33 1 0 225 -36 1 0 65 -33 1 0
EndChar
StartChar: H
Encoding: 72 72 40
Width: 680
VWidth: 1200
HStem: 0 67<82 133> 289 33<392 597> 536 37<377 429> 626 52<821 863>
VStem: 131 72<366 410> 529 92<10 70>
Fore
392 322 m 1
 605 322 l 1
 609 335 614 352 614 353 c 1
 641 450 l 2
 658 512 672 538 712 581 c 0
 777 650 821 678 863 678 c 0
 881 678 889 677 908 671 c 1
 874 616 l 1
 852 624 841 626 821 626 c 0
 779 626 762 608 740 538 c 0
 724 488 688 359 670 290 c 0
 621 101 621 101 621 70 c 0
 621 53 633 43 654 43 c 0
 678 43 694 44 748 49 c 1
 730 24 l 1
 610 2 605 1 579 -6 c 0
 568 -9 558 -11 551 -11 c 0
 539 -11 529 -1 529 10 c 0
 529 26 545 93 587 248 c 0
 588 254 592 268 597 289 c 1
 541 288 505 286 381 278 c 1
 348 174 345 168 292 113 c 0
 240 59 189 19 159 10 c 0
 139 3 114 0 82 0 c 0
 65 0 55 1 33 4 c 1
 80 69 l 1
 106 67 119 67 133 67 c 0
 240 67 262 94 310 280 c 1
 284 282 l 1
 320 320 l 1
 361 483 362 486 377 536 c 1
 315 536 291 533 267 523 c 0
 226 506 203 465 203 410 c 0
 203 388 206 373 215 341 c 1
 140 316 l 1
 133 340 131 351 131 366 c 0
 131 429 155 475 209 515 c 0
 263 555 331 573 429 573 c 0
 443 573 461 572 487 571 c 1
 448 538 l 1
 444 519 441 505 440 501 c 0
 414 403 398 343 392 322 c 1
EndSplineSet
EndChar
StartChar: I
Encoding: 73 73 41
Width: 380
VWidth: 1200
HStem: 553 20G<447 481>
Fore
81 0 m 5
 117 25 l 5
 176 32 l 5
 183 56 189 79 191 85 c 4
 196 102 207 146 270 393 c 4
 277 420 284 447 291 475 c 4
 292 480 298 505 306 542 c 5
 216 548 l 5
 251 573 l 5
 308 572 312 572 328 572 c 4
 345 572 345 572 447 573 c 6
 481 573 l 5
 446 548 l 5
 388 542 l 5
 341 370 278 120 259 32 c 5
 352 25 l 5
 316 0 l 5
 160 1 l 6
 146 1 146 1 81 0 c 5
EndSplineSet
EndChar
StartChar: J
Encoding: 74 74 42
Width: 400
VWidth: 1200
HStem: -122 62<45 108> 534 38<368 491>
VStem: 173 77<364 414>
DStem: 383 534 458 543 328 314 366 174
Fore
258 342 m 1
 182 307 l 1
 175 333 173 344 173 364 c 0
 173 450 221 516 308 550 c 0
 351 566 397 572 491 572 c 1
 458 543 l 1
 366 174 l 2
 336 53 328 40 244 -27 c 0
 150 -101 107 -122 45 -122 c 0
 29 -122 20 -121 1 -117 c 1
 41 -50 l 1
 73 -58 88 -60 108 -60 c 0
 157 -60 196 -41 224 -4 c 0
 239 15 254 48 266 86 c 0
 269 94 269 94 300 208 c 1
 312 248 l 1
 307 262 303 267 288 277 c 1
 306 295 309 298 328 314 c 1
 383 534 l 1
 368 534 l 2
 291 534 250 492 250 414 c 0
 250 392 252 376 258 342 c 1
EndSplineSet
KernsSLIF: 262 -28 1 0 256 -28 1 0 225 -35 1 0 65 -28 1 0
EndChar
StartChar: K
Encoding: 75 75 43
Width: 660
VWidth: 1200
HStem: -147 27<738 763> 0 43<131 284.187> 505 72<737 777>
VStem: 146 77<376 431>
Fore
840 -48 m 1
 851 -130 l 1
 814 -144 796 -147 763 -147 c 0
 689 -147 628 -121 584 -71 c 0
 548 -30 518 39 475 179 c 2
 457 239 l 1
 445 276 445 277 439 294 c 0
 437 302 434 309 432 316 c 1
 400 191 384 165 262 43 c 1
 383 43 l 1
 315 1 313 0 225 0 c 2
 88 0 l 1
 132 43 l 1
 170 43 l 2
 247 43 284 79 323 190 c 0
 339 236 353 288 384 413 c 0
 397 469 408 510 414 536 c 1
 393 538 377 539 366 539 c 0
 273 539 223 501 223 431 c 0
 223 400 229 375 245 336 c 1
 163 301 l 1
 150 335 146 350 146 376 c 0
 146 448 187 507 262 544 c 0
 306 565 370 576 449 576 c 0
 474 576 495 575 540 572 c 1
 525 554 517 549 488 541 c 1
 436 332 l 1
 453 345 465 354 468 357 c 0
 535 413 605 470 678 529 c 0
 724 567 745 577 777 577 c 0
 795 577 808 574 833 564 c 1
 796 490 l 1
 768 502 755 505 737 505 c 0
 693 505 653 479 496 346 c 1
 521 279 533 247 552 193 c 0
 603 50 617 16 646 -38 c 0
 675 -91 710 -120 745 -120 c 0
 779 -120 801 -103 840 -48 c 1
EndSplineSet
KernsSLIF: 121 -16 1 0 362 -13 1 0 117 -38 1 0 351 2 1 0 352 -41 1 0 111 -41 1 0 45 -40 1 0 101 -36 1 0 328 -32 1 0 241 -38 1 0 322 -18 1 0 97 -38 1 0 84 42 1 0 83 102 1 0 286 -6 1 0 287 -6 1 0 234 -10 1 0 79 -6 1 0 71 16 1 0 67 48 1 0
EndChar
StartChar: L
Encoding: 76 76 44
Width: 580
VWidth: 1200
HStem: -6 55<372 481> 7 36<96 131> 520 57<434 488>
Fore
532 574 m 1x60
 493 518 l 1
 456 520 447 520 434 520 c 0
 392 520 366 501 351 459 c 0
 338 420 324 365 295 241 c 0
 270 137 263 124 210 75 c 2
 183 49 l 1
 372 49 l 2
 544 48 555 54 620 191 c 1
 631 172 l 1
 616 134 585 65 573 42 c 0
 555 5 533 -6 481 -6 c 0xa0
 455 -6 448 -6 284 2 c 0
 208 5 157 7 131 7 c 0
 106 7 81 6 33 4 c 1
 48 23 54 30 68 44 c 1
 79 43 91 43 99 43 c 0
 162 43 188 80 215 208 c 0
 254 394 271 440 320 490 c 0
 360 530 408 564 435 571 c 0
 452 575 469 577 488 577 c 0
 502 577 512 576 532 574 c 1x60
EndSplineSet
KernsSLIF: 121 -4 1 0 362 -7 1 0 117 -7 1 0 39 -94 1 0 186 -93 1 0 45 30 1 0 89 -4 1 0 87 -25 1 0 86 -24 1 0 298 -28 1 0 85 -28 1 0 84 -17 1 0 83 18 1 0 71 -7 1 0 264 6 1 0 67 5 1 0 262 6 1 0 256 6 1 0 257 6 1 0 225 4 1 0 65 6 1 0
EndChar
StartChar: M
Encoding: 77 77 45
Width: 840
VWidth: 1200
HStem: -1 65<101 178> 518 67<309 346> 617 53<906 969>
VStem: 106 67<350 417> 643 100<13 75>
Fore
58 0 m 1
 104 69 l 1
 161 64 161 64 178 64 c 0
 221 64 246 79 265 114 c 0
 283 146 337 333 381 512 c 1
 348 517 332 518 309 518 c 0
 222 518 173 482 173 417 c 0
 173 388 181 363 205 311 c 1
 129 258 l 1
 112 295 106 321 106 350 c 0
 106 401 138 465 192 519 c 1
 239 568 279 585 346 585 c 0
 370 585 389 584 427 579 c 1
 458 604 l 1
 471 534 497 313 510 161 c 1
 518 173 527 186 535 197 c 2
 648 361 l 1
 783 549 l 2
 819 600 829 609 885 641 c 0
 921 662 943 670 969 670 c 0
 981 670 991 669 1009 664 c 1
 968 608 l 1
 956 610 944 612 941 613 c 0
 928 616 915 617 906 617 c 0
 880 617 875 606 835 467 c 0
 816 399 813 387 770 213 c 0
 744 107 743 101 743 75 c 0
 743 50 761 35 793 35 c 0
 801 35 817 36 834 37 c 0
 839 38 855 39 872 40 c 1
 851 15 l 1
 838 13 830 12 827 11 c 2
 780 5 l 2
 755 1 696 -9 686 -11 c 0
 678 -12 672 -13 667 -13 c 0
 654 -13 643 -1 643 13 c 0
 643 27 648 48 656 71 c 0
 658 76 670 122 728 338 c 0
 740 382 748 412 751 427 c 1
 761 471 l 1
 596 236 529 132 494 57 c 1
 445 19 l 1
 443 99 442 107 407 468 c 1
 390 399 353 263 342 223 c 0
 318 141 306 116 274 75 c 0
 231 22 179 -1 101 -1 c 0
 91 -1 76 -1 58 0 c 1
EndSplineSet
EndChar
StartChar: N
Encoding: 78 78 46
Width: 700
VWidth: 1200
HStem: -163 27<775 793> -3 68<95 150> 501 67<287 329> 610 67<851 884>
VStem: 87 62<352 412>
Fore
40 0 m 1
 88 69 l 1
 116 66 131 65 150 65 c 0
 203 65 225 76 246 113 c 0
 279 172 317 298 364 499 c 1
 326 501 308 501 287 501 c 0
 242 501 218 497 194 484 c 0
 166 469 149 442 149 412 c 0
 149 387 156 364 181 311 c 1
 112 264 l 1
 94 301 87 327 87 352 c 0
 87 407 131 479 195 529 c 0
 231 557 267 568 327 568 c 0
 345 568 358 567 382 565 c 1
 416 596 l 1
 522 200 535 161 583 65 c 1
 592 96 597 117 598 122 c 0
 609 170 620 217 630 264 c 0
 679 480 697 531 745 587 c 0
 797 648 842 677 884 677 c 0
 892 677 903 676 915 675 c 1
 878 608 l 1
 864 610 858 610 851 610 c 0
 805 610 781 594 760 552 c 0
 728 486 706 414 663 240 c 0
 638 135 629 96 612 10 c 1
 663 -87 721 -136 784 -136 c 0
 809 -136 834 -123 852 -101 c 0
 865 -86 872 -72 886 -39 c 1
 910 -128 l 1
 865 -154 829 -163 778 -163 c 0
 660 -163 572 -102 511 22 c 0
 477 90 453 163 424 287 c 0
 413 333 412 335 387 442 c 1
 344 269 338 247 322 204 c 0
 290 120 240 48 191 19 c 0
 165 3 138 -3 95 -3 c 0
 81 -3 67 -2 40 0 c 1
EndSplineSet
KernsSLIF: 362 -27 1 0 117 -27 1 0 46 -20 1 0 249 80 1 0 351 -29 1 0 352 -29 1 0 111 -29 1 0 335 -24 1 0 101 -24 1 0 44 111 1 0 328 -26 1 0 241 -26 1 0 322 -26 1 0 323 -26 1 0 97 -26 1 0 286 -12 1 0 287 -13 1 0 79 -11 1 0 71 23 1 0 264 53 1 0 67 55 1 0 262 -24 1 0 256 -24 1 0 257 -24 1 0 225 -30 1 0 65 -24 1 0
EndChar
StartChar: O
Encoding: 79 79 47
Width: 600
VWidth: 1200
HStem: -13 40<274 332> 552 39<429 487>
VStem: 104 82<183 222> 570 82<364 396>
Fore
487 591 m 0
 594 591 652 522 652 396 c 0
 652 276 612 172 540 102 c 0
 465 30 365 -13 274 -13 c 0
 163 -13 104 55 104 183 c 0
 104 309 149 420 229 490 c 0
 298 549 404 591 487 591 c 0
429 552 m 0
 293 552 186 407 186 222 c 0
 186 99 240 27 332 27 c 0
 406 27 474 71 517 147 c 0
 549 204 570 290 570 366 c 0
 570 482 518 552 429 552 c 0
EndSplineSet
KernsSLIF: 89 16 1 0 88 -21 1 0 87 2 1 0 86 2 1 0 84 23 1 0 262 -28 1 0 256 -28 1 0 257 -28 1 0 225 -41 1 0 65 -28 1 0
EndChar
StartChar: P
Encoding: 80 80 48
Width: 540
VWidth: 1200
HStem: 1 41<77 221> 548 29<437 476>
VStem: 74 77<321 360> 558 87<457 476>
Fore
78 42 m 1
 221 42 l 1
 259 174 310 381 345 538 c 1
 279 531 245 519 211 493 c 0
 174 464 151 413 151 360 c 0
 151 336 154 320 166 285 c 1
 91 240 l 1
 78 272 74 292 74 321 c 0
 74 400 117 468 196 516 c 0
 245 545 290 559 369 567 c 1
 436 601 l 1
 430 576 l 1
 453 577 464 577 474 577 c 0
 589 577 645 544 645 476 c 0
 645 402 600 332 528 293 c 0
 467 260 412 244 346 240 c 1
 335 199 334 193 321 139 c 0
 316 114 312 97 308 80 c 0
 305 68 302 55 299 42 c 1
 387 43 411 44 467 50 c 1
 465 41 l 1
 382 1 379 1 107 1 c 2
 37 1 l 1
 78 42 l 1
422 546 m 1
 356 279 l 1
 372 276 380 275 391 275 c 0
 487 275 558 353 558 459 c 0
 558 517 524 548 461 548 c 0
 453 548 437 547 422 546 c 1
EndSplineSet
KernsSLIF: 46 -59 1 0 249 -45 1 0 250 -39 1 0 351 -40 1 0 352 -40 1 0 111 -40 1 0 45 -36 1 0 335 -32 1 0 101 -32 1 0 44 -63 1 0 328 -36 1 0 241 -37 1 0 322 -36 1 0 323 -36 1 0 97 -36 1 0 74 -13 1 0 262 -28 1 0 256 -28 1 0 257 -28 1 0 225 -32 1 0 65 -28 1 0
EndChar
StartChar: Q
Encoding: 81 81 49
Width: 600
VWidth: 1200
HStem: -191 49<636 701> -13 42<280 312> 551 40<430 497>
VStem: 104 82<187 218> 572 82<362 392>
Fore
802 -29 m 1
 851 -78 l 1
 780 -153 707 -191 636 -191 c 0
 579 -191 533 -170 453 -107 c 0
 411 -74 378 -45 338 -7 c 1
 311 -12 298 -13 280 -13 c 0
 164 -13 104 55 104 187 c 0
 104 306 151 420 229 489 c 0
 299 550 406 591 497 591 c 0
 543 591 582 574 609 543 c 0
 641 507 654 463 654 392 c 0
 654 293 627 206 573 135 c 0
 537 87 500 60 416 18 c 1
 550 -94 636 -142 701 -142 c 0
 755 -142 792 -101 802 -29 c 1
371 55 m 1
 393 36 l 1
 458 64 490 92 522 152 c 0
 552 207 572 294 572 364 c 0
 572 481 519 551 430 551 c 0
 294 551 186 403 186 218 c 0
 186 106 237 29 312 29 c 0
 332 29 344 34 371 55 c 1
EndSplineSet
EndChar
StartChar: R
Encoding: 82 82 50
Width: 600
VWidth: 1200
HStem: -156 32<666.513 683> 0 45<77 119> 551 30<455 491>
VStem: 99 87<347 384> 545 87<471 487>
DStem: 326 437 426 551 276 239 368 317
Fore
38 1 m 1
 77 45 l 1
 207 44 234 70 276 239 c 0
 292 305 309 371 326 437 c 0
 333 468 339 491 343 507 c 2
 352 543 l 1
 288 535 260 524 232 499 c 0
 201 470 186 432 186 384 c 0
 186 361 189 344 197 310 c 1
 113 267 l 1
 102 304 99 321 99 347 c 0
 99 464 186 540 350 568 c 1
 441 611 l 1
 433 579 l 1
 454 580 479 581 491 581 c 0
 582 581 632 547 632 485 c 0
 632 437 605 391 558 359 c 0
 527 339 504 328 447 310 c 1
 488 180 519 87 545 25 c 0
 586 -74 631 -124 678 -124 c 0
 717 -124 745 -101 777 -42 c 1
 826 -103 l 1
 770 -144 736 -156 680 -156 c 0
 601 -156 542 -125 499 -61 c 0
 458 0 425 95 387 262 c 0
 381 287 375 296 364 295 c 2
 364 295 363 295 362 294 c 0
 330 167 324 158 211 45 c 1
 297 43 306 43 343 42 c 1
 269 4 l 1
 239 2 149 0 97 0 c 0
 91 0 91 0 38 1 c 1
426 551 m 1
 368 317 l 1
 422 324 446 331 476 349 c 0
 518 375 545 423 545 473 c 0
 545 528 519 551 457 551 c 2
 426 551 l 1
EndSplineSet
KernsSLIF: 121 -3 1 0 362 -44 1 0 363 -44 1 0 117 -44 1 0 250 -46 1 0 351 -47 1 0 352 -47 1 0 111 -47 1 0 45 -44 1 0 335 -42 1 0 101 -42 1 0 328 -44 1 0 241 -44 1 0 322 -44 1 0 323 -44 1 0 97 -44 1 0 89 115 1 0 87 -18 1 0 86 -20 1 0 298 -30 1 0 85 -30 1 0 84 2 1 0 286 -29 1 0 287 -29 1 0 234 -31 1 0 79 -27 1 0 71 22 1 0 264 52 1 0 67 51 1 0
EndChar
StartChar: S
Encoding: 83 83 51
Width: 460
VWidth: 1200
HStem: -71 47<147 211> 539 47<383 428>
VStem: 208 67<373 418> 373 77<123 181>
Fore
44 102 m 1
 60 113 l 1
 68 69 76 48 97 25 c 0
 124 -5 168 -24 211 -24 c 0
 298 -24 373 45 373 123 c 0
 373 169 355 196 287 250 c 0
 229 295 208 328 208 373 c 0
 208 472 325 586 428 586 c 0
 481 586 511 559 517 504 c 1
 451 457 l 1
 440 521 425 539 383 539 c 0
 324 539 275 483 275 418 c 0
 275 375 287 358 360 301 c 0
 434 243 450 222 450 181 c 0
 450 54 300 -71 147 -71 c 0
 82 -71 35 -49 0 -2 c 1
 44 102 l 1
EndSplineSet
KernsSLIF: 116 -41 1 0 89 -13 1 0 87 -19 1 0 86 -19 1 0 262 -22 1 0 256 -22 1 0 257 -22 1 0 225 -27 1 0 65 -22 1 0
EndChar
StartChar: T
Encoding: 84 84 52
Width: 500
VWidth: 1200
HStem: 0 45<160 337> 526 48<617 640> 546 38<325 363>
VStem: 58 77<361 407>
DStem: 416 541 488 537 335 215 410 224
Fore
160 0 m 1xd0
 195 39 l 1
 280 43 299 68 335 215 c 1
 416 541 l 1
 366 545 346 546 325 546 c 0
 272 546 235 541 210 529 c 0
 161 506 135 463 135 407 c 0
 135 379 139 364 158 315 c 1
 83 266 l 1
 65 301 58 329 58 361 c 0
 58 489 188 584 363 584 c 0xb0
 395 584 413 583 560 576 c 0
 591 575 614 574 623 574 c 0
 659 574 664 579 705 649 c 1
 718 634 l 1
 694 535 687 526 640 526 c 0
 620 526 619 526 488 537 c 1
 410 224 l 1
 393 148 368 112 291 47 c 1
 312 46 329 45 337 45 c 0
 391 45 455 49 499 55 c 1
 497 47 l 1
 416 2 401 0 160 0 c 1xd0
EndSplineSet
KernsSLIF: 121 -28 1 0 119 -52 1 0 118 -47 1 0 117 -33 1 0 59 -34 1 0 115 1 1 0 114 -29 1 0 46 -27 1 0 249 -27 1 0 111 -23 1 0 106 22 1 0 105 21 1 0 45 -36 1 0 172 -42 1 0 171 -43 1 0 103 -23 1 0 101 -23 1 0 44 -33 1 0 58 -26 1 0 99 -23 1 0 241 -22 1 0 97 -22 1 0 89 25 1 0 87 24 1 0 86 24 1 0 83 17 1 0 290 -16 1 0 233 -31 1 0 288 -16 1 0 286 -16 1 0 289 -16 1 0 287 -16 1 0 234 -23 1 0 79 -16 1 0 74 -7 1 0 71 -38 1 0 67 -20 1 0 261 7 1 0 262 7 1 0 258 7 1 0 256 7 1 0 259 7 1 0 257 7 1 0 225 4 1 0 65 7 1 0
EndChar
StartChar: U
Encoding: 85 85 53
Width: 740
VWidth: 1200
HStem: -13 46<334 399> 515 57<293 340>
VStem: 116 62<363 419> 224 82<109 148> 566 92<8 65>
Fore
622 533 m 1
 649 558 l 1
 719 565 726 566 778 574 c 1
 709 325 658 110 658 65 c 0
 658 41 668 31 695 31 c 0
 717 31 736 32 767 35 c 1
 746 10 l 1
 677 -6 622 -14 594 -14 c 0
 576 -14 566 -6 566 8 c 0
 566 16 568 29 574 58 c 1
 453 6 389 -13 334 -13 c 0
 268 -13 224 36 224 109 c 0
 224 200 272 315 387 496 c 1
 344 511 323 515 293 515 c 0
 228 515 178 474 178 419 c 0
 178 393 187 368 212 320 c 1
 145 266 l 1
 124 310 116 336 116 363 c 0
 116 418 156 484 220 534 c 0
 253 560 292 572 340 572 c 0
 363 572 368 571 432 561 c 1
 442 565 l 2
 459 573 460 574 473 578 c 1
 479 570 l 1
 377 433 306 260 306 148 c 0
 306 78 343 33 399 33 c 0
 451 33 493 47 576 91 c 1
 585 124 591 148 593 155 c 0
 614 242 635 322 653 397 c 0
 667 451 675 485 678 498 c 0
 680 509 683 521 686 532 c 1
 653 534 653 534 640 534 c 0
 637 534 630 534 622 533 c 1
EndSplineSet
KernsSLIF: 114 -12 1 0 46 -10 1 0 112 -23 1 0 110 -12 1 0 109 -13 1 0 44 -13 1 0 261 26 1 0 262 26 1 0 256 26 1 0 259 26 1 0 257 26 1 0 225 23 1 0 65 26 1 0
EndChar
StartChar: V
Encoding: 86 86 54
Width: 640
VWidth: 1200
HStem: 537 36<303 367>
VStem: 104 77<360 405> 722 87<569 621>
Fore
424 539 m 1
 357 80 l 1
 537 255 577 297 631 367 c 0
 688 442 722 516 722 569 c 0
 722 603 713 623 687 645 c 1
 710 665 721 673 748 685 c 1
 772 683 780 680 800 668 c 1
 807 648 809 639 809 621 c 0
 809 566 781 500 725 424 c 0
 683 368 603 280 447 120 c 0
 382 52 375 45 339 4 c 1
 297 -6 293 -7 265 -12 c 1
 281 68 320 332 346 534 c 1
 329 536 315 537 303 537 c 0
 232 537 181 482 181 405 c 0
 181 377 185 359 198 325 c 1
 122 283 l 1
 109 315 104 334 104 360 c 0
 104 419 136 479 191 521 c 0
 240 558 289 573 367 573 c 0
 398 573 421 571 469 566 c 1
 454 554 448 550 424 539 c 1
EndSplineSet
KernsSLIF: 121 -12 1 0 117 -17 1 0 59 -38 1 0 114 -12 1 0 46 -90 1 0 249 -68 1 0 111 -63 1 0 105 1 1 0 45 -45 1 0 172 -55 1 0 171 -55 1 0 103 -59 1 0 101 -53 1 0 44 -93 1 0 58 -43 1 0 241 -58 1 0 97 -57 1 0 84 38 1 0 83 -32 1 0 290 -14 1 0 233 -30 1 0 288 -14 1 0 286 -14 1 0 289 -14 1 0 287 -14 1 0 79 -14 1 0 71 -33 1 0 67 -28 1 0 261 -31 1 0 262 -31 1 0 258 -31 1 0 256 -31 1 0 259 -31 1 0 257 -31 1 0 225 -68 1 0 65 -31 1 0
EndChar
StartChar: W
Encoding: 87 87 55
Width: 880
VWidth: 1200
HStem: 527 38<351 488>
VStem: 104 67<375 430> 628 67<178 444> 953 82<541 596>
Fore
328 3 m 1
 263 -17 l 1
 317 300 340 442 351 527 c 1
 276 526 252 524 228 515 c 0
 191 502 171 471 171 430 c 0
 171 396 181 367 204 332 c 1
 129 285 l 1
 112 314 104 342 104 375 c 0
 104 454 160 523 246 551 c 0
 282 563 294 563 488 565 c 1
 469 547 457 540 436 533 c 1
 412 413 373 193 362 112 c 1
 437 214 611 472 657 550 c 1
 715 573 l 1
 714 547 712 521 710 495 c 0
 706 426 703 367 701 319 c 2
 695 178 l 1
 695 167 693 136 690 90 c 1
 811 231 866 306 905 381 c 0
 936 442 953 497 953 541 c 0
 953 582 943 608 916 636 c 1
 940 657 952 664 980 677 c 1
 1003 670 1006 669 1020 661 c 1
 1031 639 1035 623 1035 596 c 0
 1035 498 969 384 780 152 c 0
 716 73 704 56 670 4 c 1
 606 -17 l 1
 615 74 626 324 628 444 c 1
 515 273 475 215 328 3 c 1
EndSplineSet
KernsSLIF: 121 4 1 0 59 -24 1 0 114 3 1 0 46 -53 1 0 249 -41 1 0 111 -36 1 0 105 1 1 0 45 -16 1 0 172 -27 1 0 171 -27 1 0 103 -35 1 0 101 -31 1 0 44 -57 1 0 58 -29 1 0 241 -33 1 0 97 -33 1 0 84 44 1 0 83 -12 1 0 290 -3 1 0 233 -20 1 0 288 -4 1 0 286 -3 1 0 289 -2 1 0 287 -4 1 0 71 -15 1 0 67 -9 1 0 261 -26 1 0 262 -26 1 0 258 -26 1 0 256 -26 1 0 259 -26 1 0 257 -26 1 0 225 -46 1 0 65 -26 1 0
EndChar
StartChar: X
Encoding: 88 88 56
Width: 560
VWidth: 1200
HStem: -4 77<45 80> 503 77<582 615>
DStem: 495 500 478 429 394 374 400 335
Fore
0 0 m 1
 49 75 l 1
 65 73 71 73 80 73 c 0
 128 73 153 82 180 109 c 0
 200 129 255 197 333 298 c 1
 322 359 308 417 291 477 c 0
 281 510 266 524 237 524 c 0
 225 524 223 524 184 516 c 0
 181 515 171 513 160 511 c 1
 183 540 l 1
 277 566 323 577 338 577 c 0
 349 577 355 571 358 556 c 2
 394 374 l 1
 438 428 460 455 495 500 c 0
 541 560 572 580 615 580 c 0
 637 580 651 575 671 559 c 1
 626 488 l 1
 608 499 596 503 582 503 c 0
 550 503 522 483 478 429 c 0
 443 386 430 370 400 335 c 1
 409 290 l 1
 436 160 447 117 463 79 c 0
 476 50 500 36 538 36 c 0
 548 36 564 37 582 39 c 0
 585 39 595 40 606 41 c 1
 589 18 l 1
 546 10 519 5 509 3 c 0
 479 -2 459 -6 452 -7 c 0
 438 -11 426 -13 418 -13 c 0
 402 -13 396 -1 386 52 c 1
 344 258 l 1
 302 205 l 2
 280 176 258 149 242 128 c 0
 185 54 158 27 127 12 c 0
 106 2 74 -4 45 -4 c 0
 34 -4 23 -3 0 0 c 1
EndSplineSet
KernsSLIF: 121 -5 1 0 117 -9 1 0 111 -2 1 0 45 -51 1 0 101 -1 1 0 97 1 1 0 81 -21 1 0 286 -21 1 0 79 -21 1 0 67 2 1 0
EndChar
StartChar: Y
Encoding: 89 89 57
Width: 560
VWidth: 1200
HStem: -152 72<77 139> 531 77<685 723>
VStem: 68 77<336 394> 398 63<255 363>
Fore
31 -150 m 1
 66 -76 l 1
 109 -79 124 -80 139 -80 c 0
 225 -80 273 -59 310 -7 c 0
 337 31 360 77 379 128 c 0
 392 165 398 204 398 255 c 0
 398 418 343 519 254 519 c 0
 193 519 145 464 145 394 c 0
 145 364 150 340 165 293 c 1
 89 245 l 1
 75 276 68 306 68 336 c 0
 68 450 203 576 323 576 c 0
 408 576 461 494 461 363 c 0
 461 330 459 306 450 253 c 1
 582 528 643 608 723 608 c 0
 740 608 748 605 763 592 c 1
 735 519 l 1
 712 528 701 531 685 531 c 0
 654 531 631 515 601 473 c 0
 574 434 562 411 458 202 c 0
 358 1 304 -83 255 -115 c 0
 213 -143 168 -152 77 -152 c 0
 60 -152 51 -152 31 -150 c 1
EndSplineSet
KernsSLIF: 118 -42 1 0 117 -39 1 0 59 -55 1 0 46 -62 1 0 112 -43 1 0 249 -61 1 0 111 -56 1 0 105 17 1 0 45 -37 1 0 172 -47 1 0 171 -48 1 0 103 -55 1 0 101 -51 1 0 44 -68 1 0 58 -58 1 0 241 -53 1 0 97 -53 1 0 84 44 1 0 83 -25 1 0 290 -12 1 0 233 -29 1 0 288 -12 1 0 286 -12 1 0 289 -12 1 0 287 -12 1 0 79 -13 1 0 71 -35 1 0 67 -28 1 0 261 -24 1 0 262 -24 1 0 258 -24 1 0 256 -24 1 0 259 -24 1 0 257 -24 1 0 225 -60 1 0 65 -24 1 0
EndChar
StartChar: Z
Encoding: 90 90 58
Width: 620
VWidth: 1200
HStem: -13 77<473 517> 502 77<293 309>
VStem: 614 62<143 186>
DStem: 552 503 655 568 213 164 397 307 552 503 397 307 213 164 253 160
Fore
581 227 m 1
 656 272 l 1
 671 237 676 214 676 186 c 0
 676 152 670 137 640 101 c 0
 636 96 628 86 617 72 c 0
 589 36 580 26 568 14 c 0
 549 -4 525 -13 497 -13 c 0
 473 -13 376 -5 254 8 c 0
 216 12 181 14 155 14 c 0
 118 14 95 6 62 -18 c 1
 62 19 l 1
 86 40 136 89 213 164 c 1
 552 503 l 1
 503 495 483 493 436 493 c 0
 401 493 374 495 334 500 c 0
 324 501 314 502 307 502 c 0
 276 502 271 495 201 372 c 1
 184 397 l 1
 207 448 239 518 250 541 c 0
 266 574 272 579 294 579 c 0
 302 579 302 579 352 574 c 0
 378 571 378 571 475 562 c 0
 513 558 541 556 555 556 c 0
 592 556 620 567 655 597 c 1
 655 568 l 1
 577 487 470 379 397 307 c 1
 253 160 l 1
 172 76 l 1
 204 81 l 1
 223 81 l 1
 240 81 l 2
 270 81 290 80 374 72 c 0
 439 66 479 64 517 64 c 0
 583 64 614 90 614 143 c 0
 614 166 610 178 594 206 c 0
 590 212 585 220 581 227 c 1
EndSplineSet
KernsSLIF: 121 5 1 0 118 4 1 0
EndChar
StartChar: bracketleft
Encoding: 91 91 59
Width: 240
VWidth: 1200
DStem: 108 61 261 419 47 -165 120 -134
Fore
111 -164 m 2
 89 -164 l 2
 77 -164 72 -164 47 -165 c 1
 81 -40 95 11 108 61 c 2
 155 241 l 1
 208 430 l 2
 227 499 244 565 268 665 c 1
 365 665 l 1
 404 665 l 1
 369 640 l 1
 320 634 l 1
 295 550 278 487 261 419 c 0
 196 169 149 -15 120 -134 c 1
 203 -139 l 1
 168 -165 l 1
 157 -165 l 2
 146 -165 135 -165 111 -164 c 2
EndSplineSet
EndChar
StartChar: backslash
Encoding: 92 92 60
Width: 480
VWidth: 1200
HStem: 0 21G<426 484> 559 20G<185 243>
DStem: 185 579 243 579 426 0 484 0
Fore
484 0 m 1
 426 0 l 1
 344 200 263 393 185 579 c 1
 243 579 l 1
 331 365 411 172 484 0 c 1
EndSplineSet
EndChar
StartChar: bracketright
Encoding: 93 93 61
Width: 320
VWidth: 1200
DStem: 222 290 320 440 134 -43 220 71
Fore
336 665 m 1
 381 665 l 1
 333 489 327 469 320 440 c 0
 288 320 255 197 220 71 c 0
 200 1 184 -65 160 -165 c 1
 63 -164 l 2
 55 -164 40 -164 23 -165 c 1
 57 -140 l 1
 108 -134 l 1
 117 -104 126 -74 134 -43 c 0
 151 19 180 130 222 290 c 0
 242 369 265 459 289 557 c 0
 300 601 306 626 309 635 c 1
 224 640 l 1
 259 665 l 1
 317 665 l 1
 336 665 l 1
EndSplineSet
EndChar
StartChar: asciicircum
Encoding: 94 94 62
Width: 520
VWidth: 1200
DStem: 318 681 342 618 212 447 263 447 342 618 366 681 421 447 472 447
Fore
472 447 m 1
 421 447 l 1
 342 618 l 1
 263 447 l 1
 212 447 l 1
 318 681 l 1
 366 681 l 1
 472 447 l 1
EndSplineSet
EndChar
StartChar: underscore
Encoding: 95 95 63
Width: 500
VWidth: 1200
HStem: -145 50<0 500>
Fore
0 -95 m 1
 500 -95 l 1
 500 -145 l 1
 0 -145 l 1
 0 -95 l 1
EndSplineSet
EndChar
StartChar: quoteleft
Encoding: 96 8216 64
Width: 240
VWidth: 1200
VStem: 229 57<496 520>
Fore
298 460 m 1
 239 435 l 1
 233 455 229 478 229 496 c 0
 229 530 241 555 277 595 c 0
 301 622 329 649 358 676 c 1
 384 665 l 1
 364 645 l 2
 301 585 286 560 286 520 c 0
 286 503 289 486 298 460 c 1
EndSplineSet
KernsSLIF: 89 33 0 0 87 23 0 0 86 22 0 0 84 14 0 0 262 -28 0 0 256 -28 0 0 257 -28 0 0 225 -80 0 0 65 -18 0 0
EndChar
StartChar: a
Encoding: 97 97 65
Width: 420
VWidth: 1200
HStem: -13 21G<115.5 139 304 315> 391 20G<322.5 364.5>
VStem: 87 77<67 114> 293 87<8 91>
Fore
492 130 m 1
 491 101 l 1
 453 73 430 57 401 38 c 0
 321 -13 321 -13 309 -13 c 0
 299 -13 293 -5 293 8 c 0
 293 20 298 51 308 97 c 1
 183 7 150 -13 128 -13 c 0
 103 -13 87 19 87 67 c 0
 87 148 129 283 166 325 c 0
 179 339 221 370 257 391 c 0
 283 407 302 411 343 411 c 0
 386 411 421 407 469 396 c 1
 453 378 451 375 440 360 c 1
 404 227 380 117 380 91 c 0
 380 79 385 71 392 71 c 0
 402 71 417 80 492 130 c 1
297 124 m 2
 316 137 l 1
 321 155 324 167 325 172 c 0
 331 198 336 223 342 248 c 0
 343 253 350 276 370 352 c 1
 334 360 303 365 285 365 c 0
 251 365 229 344 205 289 c 0
 180 232 164 164 164 114 c 0
 164 82 174 64 190 64 c 0
 208 64 238 81 297 124 c 2
EndSplineSet
KernsSLIF: 119 -14 1 0 118 -13 1 0 39 -55 1 0 106 -2 1 0
EndChar
StartChar: b
Encoding: 98 98 66
Width: 420
VWidth: 1200
HStem: -5 57<197 242> 344 67<344 400> 616 61<406 425>
VStem: 377 82<295 335>
DStem: 180 386 229 284 123 139 176 71
Fore
97 -17 m 1
 87 -13 l 1
 103 51 105 61 123 139 c 0
 142 222 161 304 180 386 c 0
 215 542 215 542 283 597 c 0
 367 666 385 677 421 677 c 0
 431 677 452 676 466 674 c 1
 425 616 l 1
 410 616 l 1
 382 616 l 2
 344 616 326 607 309 578 c 0
 298 559 283 520 275 488 c 0
 272 479 272 479 250 371 c 0
 248 364 245 348 239 325 c 1
 339 396 367 411 400 411 c 0
 436 411 459 381 459 335 c 0
 459 276 435 188 403 131 c 0
 386 99 364 77 329 58 c 0
 305 44 282 31 261 17 c 0
 235 1 217 -5 197 -5 c 0
 178 -5 157 0 129 10 c 1
 97 -17 l 1
229 284 m 1
 176 71 l 1
 202 58 222 52 242 52 c 0
 286 52 321 85 348 152 c 0
 365 195 377 255 377 295 c 0
 377 325 364 344 344 344 c 0
 321 344 286 326 229 284 c 1
EndSplineSet
KernsSLIF: 121 -1 1 0 119 -12 1 0 118 -11 1 0
EndChar
StartChar: c
Encoding: 99 99 67
Width: 340
VWidth: 1200
HStem: -13 57<160 221> 359 52<270 314>
VStem: 87 77<79 120>
Fore
383 127 m 1
 381 95 l 1
 290 27 208 -13 160 -13 c 0
 114 -13 87 21 87 79 c 0
 87 141 108 226 136 280 c 0
 158 321 174 336 249 383 c 0
 285 407 296 411 314 411 c 0
 349 411 371 384 371 341 c 0
 371 340 371 335 370 330 c 1
 312 296 l 1
 307 340 294 359 270 359 c 0
 241 359 215 332 195 279 c 0
 176 232 164 168 164 120 c 0
 164 72 185 44 221 44 c 0
 253 44 306 72 383 127 c 1
EndSplineSet
KernsSLIF: 107 -15 1 0 104 -10 1 0
EndChar
StartChar: d
Encoding: 100 100 68
Width: 440
VWidth: 1200
HStem: -13 67<125 180> 364 47<296 323> 625 52<548 597>
VStem: 87 72<64 98> 285 78<18 85>
Fore
497 131 m 1
 493 100 l 1
 410 40 323 -13 307 -13 c 0
 293 -13 285 -2 285 18 c 0
 285 36 288 65 293 90 c 1
 188 14 144 -13 125 -13 c 0
 107 -13 87 26 87 64 c 0
 87 133 132 274 166 313 c 0
 206 357 292 411 323 411 c 0
 331 411 346 409 364 405 c 1
 368 420 371 433 372 437 c 0
 398 540 401 547 450 594 c 0
 478 620 512 646 537 660 c 0
 560 673 573 677 597 677 c 0
 606 677 614 676 629 673 c 1
 594 617 l 1
 571 623 561 625 548 625 c 0
 512 625 490 602 468 542 c 0
 447 480 363 118 363 85 c 0
 363 70 369 59 377 59 c 0
 386 59 414 75 469 113 c 0
 474 116 484 123 497 131 c 1
301 127 m 1
 348 337 l 1
 327 357 314 364 296 364 c 0
 245 364 206 314 177 213 c 0
 165 169 159 131 159 98 c 0
 159 69 166 54 180 54 c 0
 194 54 216 67 301 127 c 1
EndSplineSet
EndChar
StartChar: e
Encoding: 101 101 69
Width: 340
VWidth: 1200
HStem: -13 57<169 219> 369 42<270 313>
VStem: 87 74<83 143> 298 72<328 355>
Fore
380 137 m 1
 380 108 l 1
 301 29 228 -13 169 -13 c 0
 118 -13 87 24 87 83 c 0
 87 164 121 274 159 320 c 0
 180 344 214 371 252 393 c 0
 275 406 291 411 313 411 c 0
 348 411 370 390 370 355 c 0
 370 310 349 277 295 236 c 0
 236 192 206 171 161 143 c 1
 161 114 162 103 166 87 c 0
 173 61 194 44 219 44 c 0
 257 44 305 72 380 137 c 1
164 179 m 1
 271 248 298 278 298 328 c 0
 298 352 287 369 270 369 c 0
 227 369 181 286 164 179 c 1
EndSplineSet
KernsSLIF: 121 -7 1 0 120 -15 1 0 119 -22 1 0 118 -21 1 0 116 -16 1 0 39 -54 1 0
EndChar
StartChar: f
Encoding: 102 102 70
Width: 320
VWidth: 1200
HStem: -246 62<-50 -1> 310 32<132 171 171 208 289 298 348 369.986> 628 52<428 493>
Fore
350 312 m 2
 298 310 l 2
 294 310 290 310 281 311 c 5
 276 291 265 250 222 87 c 4
 199 -4 163 -90 132 -132 c 4
 105 -167 54 -216 25 -232 c 4
 9 -241 -17 -246 -50 -246 c 4
 -66 -246 -77 -245 -99 -242 c 5
 -91 -230 -82 -219 -74 -208 c 4
 -67 -199 -64 -194 -54 -179 c 5
 -27 -183 -15 -184 -1 -184 c 4
 84 -184 107 -139 167 136 c 4
 186 223 192 250 208 311 c 5
 188 310 177 310 171 310 c 2
 101 311 l 1
 76 311 l 1
 84 316 92 320 96 322 c 2
 118 334 l 2
 120 335 126 339 132 343 c 1
 140 342 145 342 147 342 c 2
 196 344 l 2
 201 344 206 344 216 343 c 5
 255 509 268 539 324 593 c 4
 391 658 433 680 493 680 c 4
 513 680 521 679 541 674 c 5
 495 620 l 5
 458 626 445 628 428 628 c 4
 369 628 354 597 289 343 c 5
 336 344 336 344 348 344 c 0
 359 344 359 344 411 343 c 1
 370 311 l 1
 359 312 353 312 350 312 c 2
EndSplineSet
KernsSLIF: 116 7 1 0 115 -20 1 0 39 -47 1 0 249 -32 1 0 250 -24 1 0 351 -26 1 0 352 -26 1 0 111 -26 1 0 108 -9 1 0 106 21 1 0 105 21 1 0 102 16 1 0 335 -16 1 0 101 -16 1 0 328 -20 1 0 241 -21 1 0 322 -20 1 0 323 -20 1 0 97 -20 1 0
EndChar
StartChar: g
Encoding: 103 103 71
Width: 400
VWidth: 1200
HStem: -247 52<42 104> 354 54<324 415>
VStem: -78 82<-189 -145> 88 77<80 134>
DStem: 309 134 397 219 266 -55 347 -6
Fore
397 219 m 1
 347 -6 l 1
 326 -105 316 -126 273 -163 c 0
 206 -221 134 -247 42 -247 c 0
 -34 -247 -78 -226 -78 -189 c 0
 -78 -161 -55 -128 -5 -84 c 0
 32 -52 50 -37 110 15 c 1
 94 37 88 55 88 80 c 0
 88 141 124 262 154 301 c 0
 175 328 209 356 257 386 c 0
 287 404 304 407 365 408 c 0
 376 408 399 408 481 410 c 1
 449 359 448 359 430 354 c 1
 429 348 427 341 425 332 c 1
 410 276 l 2
 406 260 401 241 397 219 c 1
266 -55 m 1
 309 134 l 1
 31 -79 4 -104 4 -145 c 0
 4 -177 39 -195 104 -195 c 0
 163 -195 204 -182 226 -157 c 0
 244 -138 253 -115 266 -55 c 1
383 355 m 1
 356 355 l 2
 343 354 331 354 324 354 c 0
 251 354 230 344 210 303 c 1
 189 255 165 168 165 134 c 0
 165 110 172 94 190 76 c 1
 274 139 298 157 318 170 c 1
 331 219 342 258 351 287 c 0
 360 311 367 320 399 343 c 0
 404 346 410 351 415 355 c 1
 383 355 l 1
EndSplineSet
KernsSLIF: 114 -9 1 0 351 -21 1 0 352 -21 1 0 108 -13 1 0 335 -16 1 0 101 -16 1 0 328 -18 1 0 241 -18 1 0 322 -18 1 0 97 -18 1 0
EndChar
StartChar: h
Encoding: 104 104 72
Width: 440
VWidth: 1200
HStem: 334 77<351 429> 621 57<357 419>
VStem: 302 77<28 97>
DStem: 171 404 248 426 75 -9 214 292 171 404 205 253 75 -9 146 20
Fore
75 -9 m 1
 171 404 l 1
 202 536 210 553 262 599 c 0
 335 663 364 678 419 678 c 0
 434 678 442 677 460 673 c 1
 417 612 l 1
 378 620 370 621 357 621 c 0
 330 621 309 608 295 580 c 0
 282 555 272 524 248 426 c 1
 214 292 l 5
 339 373 408 411 429 411 c 4
 442 411 450 404 450 394 c 4
 450 390 434 329 402 211 c 4
 385 146 379 117 379 97 c 4
 379 81 385 71 394 71 c 4
 407 71 421 78 506 128 c 5
 499 99 l 5
 444 59 372 13 317 -15 c 5
 306 4 302 16 302 28 c 4
 302 55 314 113 345 233 c 4
 359 287 363 306 363 318 c 4
 363 327 358 334 351 334 c 4
 340 334 298 312 229 268 c 4
 227 267 215 260 205 253 c 5
 146 20 l 1
 75 -9 l 1
EndSplineSet
KernsSLIF: 121 -3 1 0 39 -65 1 0
EndChar
StartChar: i
Encoding: 105 105 73
Width: 240
VWidth: 1200
HStem: -13 77<125 201> 329 82<154 241>
VStem: 101 82<27 92>
Fore
242 494 m 1
 220 526 211 542 204 564 c 1
 208 566 212 569 216 572 c 0
 225 578 232 583 237 587 c 0
 247 595 255 601 259 605 c 0
 262 608 268 612 273 616 c 1
 275 611 277 607 279 603 c 0
 287 584 288 583 294 571 c 0
 296 568 301 560 307 548 c 1
 273 522 271 520 242 494 c 1
311 116 m 5
 307 88 l 5
 297 82 288 76 279 71 c 4
 260 58 241 46 222 34 c 4
 169 0 142 -13 125 -13 c 4
 111 -13 101 3 101 27 c 4
 101 52 101 52 148 227 c 4
 163 284 166 298 166 311 c 4
 166 323 162 329 154 329 c 4
 145 329 140 327 81 295 c 5
 83 323 l 5
 165 378 224 411 241 411 c 4
 248 411 253 407 253 401 c 4
 253 393 243 353 192 143 c 4
 186 121 183 102 183 92 c 4
 183 75 190 64 201 64 c 4
 214 64 216 65 311 116 c 5
EndSplineSet
KernsSLIF: 106 -2 1 0 84 -1 1 0
EndChar
StartChar: j
Encoding: 106 106 74
Width: 220
VWidth: 1200
HStem: -247 62<-84 -32> 329 82<151 240>
VStem: 163 92<317 399>
Fore
303 548 m 1
 283 533 l 2
 269 522 262 516 238 494 c 1
 218 522 207 542 200 564 c 1
 214 573 217 575 224 581 c 0
 231 586 233 587 242 594 c 0
 246 598 251 602 255 605 c 2
 263 612 l 1
 269 616 l 1
 274 603 l 2
 278 594 283 583 283 583 c 1
 285 580 289 573 295 563 c 0
 296 560 299 554 303 548 c 1
-133 -241 m 5
 -86 -181 l 5
 -47 -185 -45 -185 -32 -185 c 4
 37 -185 49 -161 116 105 c 4
 139 196 163 304 163 317 c 0
 163 323 157 329 151 329 c 0
 144 329 138 326 115 313 c 0
 100 304 95 302 80 294 c 1
 82 323 l 1
 223 411 224 411 240 411 c 0
 248 411 255 406 255 399 c 0
 255 388 245 348 190 127 c 4
 135 -89 132 -96 41 -185 c 4
 -10 -234 -35 -247 -84 -247 c 4
 -102 -247 -112 -246 -133 -241 c 5
EndSplineSet
EndChar
StartChar: k
Encoding: 107 107 75
Width: 440
VWidth: 1200
HStem: -153 32<530 548> 356 67<415 455> 618 57<385 431>
DStem: 176 380 247 383 87 -11 209 230 176 380 199 192 87 -11 160 14 338 345 345 314 209 230 278 253
Fore
87 -11 m 1
 176 380 l 2
 189 438 208 504 218 526 c 0
 231 555 276 599 340 644 c 0
 371 667 395 675 431 675 c 0
 440 675 447 674 460 672 c 1
 420 614 l 1
 402 617 395 618 385 618 c 0
 351 618 325 604 307 575 c 0
 290 547 279 515 247 383 c 1
 209 230 l 1
 338 345 l 2
 348 354 349 356 381 386 c 0
 411 414 429 423 455 423 c 0
 477 423 492 418 511 403 c 1
 460 327 l 1
 444 348 432 356 415 356 c 0
 396 356 384 349 345 314 c 2
 278 253 l 1
 392 12 392 12 412 -26 c 0
 446 -87 489 -121 532 -121 c 0
 574 -121 603 -100 635 -46 c 1
 655 -118 l 1
 625 -143 592 -153 546 -153 c 0
 493 -153 431 -132 388 -99 c 0
 347 -67 321 -26 278 76 c 0
 246 152 242 160 222 206 c 1
 199 192 l 1
 160 14 l 1
 150 11 141 8 138 7 c 0
 127 3 117 0 111 -2 c 0
 108 -3 98 -7 87 -11 c 1
EndSplineSet
KernsSLIF: 362 -13 1 0 117 -13 1 0 115 -29 1 0 46 -48 1 0 351 -56 1 0 352 -56 1 0 111 -56 1 0 45 -78 1 0 103 148 1 0 335 -49 1 0 101 -49 1 0 44 111 1 0 328 -50 1 0 241 -50 1 0 322 -50 1 0 323 -50 1 0 97 -50 1 0
EndChar
StartChar: l
Encoding: 108 108 76
Width: 240
VWidth: 1200
HStem: -13 77<129 186> 626 52<342 389>
Fore
307 129 m 5
 307 107 l 5
 181 16 139 -13 129 -13 c 6
 126 -13 l 5
 120 -13 l 6
 104 -13 87 18 87 48 c 4
 87 54 88 60 89 66 c 5
 161 379 l 6
 171 423 193 504 201 528 c 4
 214 564 225 579 269 619 c 4
 317 662 349 678 389 678 c 4
 402 678 413 677 434 672 c 5
 391 619 l 5
 365 625 355 626 342 626 c 4
 298 626 289 608 250 461 c 4
 213 320 168 126 168 108 c 6
 168 99 l 5
 168 90 l 6
 168 76 177 64 186 64 c 4
 200 64 208 68 280 113 c 4
 284 115 293 121 307 129 c 5
EndSplineSet
KernsSLIF: 121 -2 1 0 118 -18 1 0
EndChar
StartChar: m
Encoding: 109 109 77
Width: 620
VWidth: 1200
HStem: 334 77<543 631>
VStem: 170 89<310 397> 499 77<35 97>
Fore
163 17 m 1
 92 -10 l 1
 134 146 170 294 170 310 c 0
 170 321 164 329 155 329 c 0
 144 329 136 326 81 299 c 1
 88 327 l 1
 153 368 232 411 244 411 c 0
 253 411 259 405 259 397 c 0
 259 390 255 372 237 299 c 1
 269 319 l 2
 369 383 421 411 436 411 c 0
 444 411 449 407 449 400 c 0
 449 394 446 380 434 330 c 0
 433 326 432 318 429 307 c 1
 551 379 613 411 631 411 c 0
 641 411 647 406 647 396 c 0
 647 381 639 349 609 246 c 0
 589 176 576 119 576 97 c 0
 576 80 583 70 594 70 c 0
 606 70 623 78 659 101 c 0
 672 110 683 117 693 122 c 1
 693 99 l 1
 632 51 582 19 523 -10 c 1
 505 3 499 14 499 35 c 0
 499 58 504 83 520 145 c 0
 547 252 556 293 556 315 c 0
 556 327 551 334 543 334 c 0
 531 334 477 304 419 267 c 1
 357 17 l 1
 281 -10 l 1
 323 125 361 277 361 307 c 0
 361 320 356 329 348 329 c 0
 335 329 294 305 227 260 c 1
 163 17 l 1
EndSplineSet
KernsSLIF: 121 1 1 0 119 -14 1 0 118 -13 1 0 112 -12 1 0
EndChar
StartChar: n
Encoding: 110 110 78
Width: 460
VWidth: 1200
HStem: 334 77<158 244>
VStem: 170 87<320 398> 313 77<29 96>
DStem: 126 125 223 254 103 44 164 19
Fore
164 19 m 1
 89 -10 l 1
 96 18 101 37 103 44 c 2
 126 125 l 1
 151 216 170 299 170 320 c 0
 170 328 165 334 158 334 c 0
 149 334 145 333 81 304 c 1
 87 330 l 1
 161 374 233 411 244 411 c 0
 251 411 257 405 257 398 c 0
 257 390 242 327 233 294 c 1
 306 340 352 368 370 379 c 0
 406 402 428 411 443 411 c 0
 456 411 463 405 463 394 c 0
 463 387 463 387 416 219 c 0
 397 150 390 117 390 96 c 0
 390 80 396 69 406 69 c 0
 416 69 420 71 520 128 c 1
 513 100 l 1
 443 48 374 5 328 -16 c 1
 317 2 313 15 313 29 c 0
 313 48 317 65 339 154 c 0
 368 268 376 306 376 321 c 0
 376 329 372 334 365 334 c 0
 351 334 348 333 223 254 c 1
 164 19 l 1
EndSplineSet
KernsSLIF: 121 -6 1 0 119 -24 1 0 118 -22 1 0 39 -68 1 0 112 -20 1 0 84 -5 1 0
EndChar
StartChar: o
Encoding: 111 111 79
Width: 400
VWidth: 1200
HStem: -13 47<174 231> 364 47<307 359>
VStem: 87 77<87 128> 372 77<265 319>
Fore
359 411 m 0
 412 411 449 373 449 319 c 0
 449 250 417 152 377 98 c 0
 359 74 326 49 276 21 c 0
 230 -3 202 -13 174 -13 c 0
 121 -13 87 26 87 87 c 0
 87 186 132 290 196 338 c 0
 255 382 319 411 359 411 c 0
307 364 m 0
 237 364 164 244 164 128 c 0
 164 71 190 34 231 34 c 0
 269 34 305 65 333 122 c 0
 358 171 372 223 372 265 c 0
 372 325 347 364 307 364 c 0
EndSplineSet
KernsSLIF: 121 4 1 0 120 -11 1 0 119 -5 1 0 118 -4 1 0 116 -4 1 0 39 -41 1 0 84 17 1 0
EndChar
StartChar: p
Encoding: 112 112 80
Width: 440
VWidth: 1200
HStem: -8 52<224 269> 344 67<377 428>
VStem: 410 72<289 331>
Fore
22 -213 m 1
 58 -211 l 1
 114 1 174 261 174 297 c 0
 174 315 167 325 155 325 c 0
 147 325 141 323 112 310 c 0
 108 308 96 303 83 298 c 1
 89 324 l 1
 163 368 244 411 254 411 c 0
 261 411 268 404 268 398 c 0
 268 394 263 373 254 335 c 0
 252 329 250 318 247 307 c 1
 261 317 290 338 329 366 c 0
 370 396 404 411 428 411 c 0
 461 411 482 379 482 331 c 0
 482 266 450 159 415 108 c 0
 402 90 383 72 332 33 c 0
 292 1 268 -8 224 -8 c 0
 207 -8 196 -7 176 -3 c 1
 157 -85 141 -156 128 -216 c 1
 240 -222 l 1
 209 -247 l 1
 184 -248 170 -248 162 -248 c 0
 132 -248 21 -246 -8 -245 c 1
 22 -213 l 1
193 66 m 1
 217 52 244 44 269 44 c 0
 310 44 344 74 371 133 c 0
 396 188 410 244 410 289 c 0
 410 322 397 344 377 344 c 0
 351 344 321 327 238 267 c 1
 234 249 231 236 230 231 c 0
 220 188 207 133 193 66 c 1
EndSplineSet
KernsSLIF: 121 1 1 0 116 -8 1 0
EndChar
StartChar: q
Encoding: 113 113 81
Width: 400
VWidth: 1200
HStem: -249 38<208 232> -13 77<132 190> 355 56<311 366>
VStem: 87 72<68 117>
DStem: 257 -113 338 -61 232 -211 313 -168 370 351 438 357 317 137 417 280 370 351 417 280 317 137 338 -61
Fore
163 -211 m 1
 183 -211 l 1
 208 -211 l 1
 232 -211 l 1
 243 -167 248 -150 257 -113 c 0
 263 -89 277 -31 298 63 c 0
 299 65 302 78 307 96 c 1
 303 94 292 86 274 73 c 0
 193 14 147 -13 132 -13 c 0
 111 -13 87 30 87 68 c 0
 87 149 130 285 167 321 c 0
 197 350 254 390 279 400 c 0
 296 406 333 411 366 411 c 0
 370 411 380 411 390 410 c 1
 415 431 432 448 461 479 c 1
 471 476 l 1
 451 410 l 1
 456 409 460 408 461 408 c 2
 474 404 l 2
 475 404 480 402 485 401 c 1
 438 357 l 1
 417 280 l 1
 338 -61 l 1
 325 -115 317 -151 313 -168 c 0
 310 -184 306 -200 303 -217 c 1
 401 -223 l 1
 370 -247 l 1
 339 -248 314 -249 300 -249 c 0
 249 -249 179 -247 130 -244 c 1
 163 -211 l 1
317 137 m 1
 370 351 l 1
 344 354 332 355 311 355 c 0
 234 355 214 340 190 270 c 0
 170 207 159 156 159 117 c 0
 159 87 172 64 190 64 c 0
 203 64 221 75 317 137 c 1
EndSplineSet
KernsSLIF: 117 -9 1 0 99 -15 1 0
EndChar
StartChar: r
Encoding: 114 114 82
Width: 300
VWidth: 1200
HStem: 339 72<326 372>
DStem: 150 209 242 304 90 -10 167 19
Fore
90 -10 m 5
 150 209 l 6
 162 252 172 299 172 313 c 4
 172 327 166 334 153 334 c 4
 141 334 135 332 81 304 c 5
 84 331 l 5
 145 368 233 411 246 411 c 4
 253 411 259 406 259 400 c 4
 259 395 258 389 250 356 c 4
 250 353 248 348 247 340 c 5
 258 348 272 358 306 383 c 0
 333 402 354 411 372 411 c 0
 382 411 390 409 409 403 c 1
 379 308 l 1
 361 331 348 339 326 339 c 0
 299 339 276 329 242 304 c 5
 167 19 l 5
 90 -10 l 5
EndSplineSet
KernsSLIF: 122 -23 1 0 121 22 1 0 120 9 1 0 119 3 1 0 118 5 1 0 117 18 1 0 116 13 1 0 59 -9 1 0 115 -19 1 0 114 21 1 0 39 -31 1 0 113 -19 1 0 46 -69 1 0 112 15 1 0 249 -27 1 0 353 -21 1 0 250 -20 1 0 351 -21 1 0 354 -21 1 0 352 -21 1 0 111 -21 1 0 110 19 1 0 109 18 1 0 108 -7 1 0 107 -15 1 0 106 19 1 0 105 20 1 0 45 -55 1 0 104 -10 1 0 103 -19 1 0 102 22 1 0 336 -13 1 0 337 -13 1 0 335 -13 1 0 101 -13 1 0 100 -21 1 0 44 -73 1 0 58 -14 1 0 332 -16 1 0 99 -14 1 0 328 -17 1 0 324 -17 1 0 241 -18 1 0 322 -17 1 0 325 -17 1 0 323 -17 1 0 97 -17 1 0
EndChar
StartChar: s
Encoding: 115 115 83
Width: 320
VWidth: 1200
HStem: -13 42<115 169> 364 47<268 310>
VStem: 143 62<258 300> 254 62<107 153>
Fore
43 83 m 1
 53 90 61 95 61 95 c 2
 70 101 79 106 87 111 c 0
 91 114 99 119 110 127 c 1
 111 93 113 78 120 63 c 0
 130 41 147 29 169 29 c 0
 208 29 254 71 254 107 c 0
 254 132 247 141 197 176 c 0
 159 203 143 227 143 258 c 0
 143 324 237 411 310 411 c 0
 338 411 357 401 377 377 c 1
 364 358 364 358 330 325 c 1
 308 353 291 364 268 364 c 0
 234 364 205 334 205 300 c 0
 205 274 219 255 253 233 c 0
 309 198 316 190 316 153 c 0
 316 103 280 52 221 18 c 0
 189 0 146 -13 115 -13 c 0
 71 -13 41 17 41 60 c 0
 41 66 42 74 43 83 c 1
EndSplineSet
KernsSLIF: 116 -22 1 0 39 -61 1 0
EndChar
StartChar: t
Encoding: 116 116 84
Width: 320
VWidth: 1200
HStem: -13 21G<165.5 186> 307 33<140 188 264 284 284.01 337>
VStem: 135 77<54 111>
DStem: 225 466 304 503 197 341 264 341
Fore
363 126 m 1
 361 101 l 1
 265 29 197 -13 175 -13 c 0
 156 -13 135 22 135 54 c 0
 135 85 135 85 188 307 c 1
 166 307 l 1
 120 307 l 1
 96 307 l 1
 103 312 108 316 111 318 c 0
 128 332 129 332 140 339 c 1
 148 340 153 340 155 340 c 2
 179 340 l 2
 182 340 188 340 197 341 c 1
 206 381 211 402 225 466 c 1
 230 468 235 470 239 472 c 0
 247 476 255 479 262 483 c 0
 277 490 285 493 304 503 c 1
 283 420 270 366 264 341 c 1
 392 341 l 1
 354 312 l 1
 338 310 328 309 324 309 c 2
 284 308 l 2
 279 308 269 308 255 307 c 1
 229 202 212 125 212 111 c 0
 212 90 228 64 241 64 c 0
 255 64 287 81 363 126 c 1
EndSplineSet
KernsSLIF: 59 -20 1 0 39 -56 1 0 351 -3 1 0 352 -3 1 0 111 -3 1 0 104 -10 1 0 335 -3 1 0 101 -3 1 0 58 -22 1 0 328 -5 1 0 241 -4 1 0 322 -5 1 0 323 -5 1 0 97 -5 1 0 83 22 1 0
EndChar
StartChar: u
Encoding: 117 117 85
Width: 460
VWidth: 1200
HStem: -13 72<138 206> 329 82<155 244>
VStem: 110 77<36 92> 310 82<10 88>
Fore
82 300 m 1
 89 327 l 1
 161 372 234 411 244 411 c 0
 251 411 256 406 256 398 c 0
 256 391 254 382 251 371 c 0
 249 364 242 338 233 301 c 0
 230 287 223 259 212 219 c 0
 195 155 187 115 187 92 c 0
 187 73 195 59 206 59 c 0
 218 59 253 79 330 132 c 1
 363 270 383 350 389 373 c 1
 400 379 406 382 409 383 c 0
 422 389 434 395 446 401 c 0
 450 403 459 408 472 415 c 1
 429 288 392 139 392 88 c 0
 392 72 396 64 403 64 c 0
 414 64 440 78 518 124 c 1
 511 94 l 1
 443 43 348 -13 328 -13 c 0
 318 -13 310 -3 310 10 c 0
 310 28 316 64 324 96 c 1
 299 79 299 79 221 29 c 0
 171 -4 153 -13 138 -13 c 0
 122 -13 110 8 110 36 c 0
 110 65 116 93 141 186 c 0
 159 254 169 297 169 310 c 0
 169 321 163 329 155 329 c 0
 143 329 124 321 82 300 c 1
EndSplineSet
KernsSLIF: 39 -69 1 0
EndChar
StartChar: v
Encoding: 118 118 86
Width: 440
VWidth: 1200
HStem: -13 57<192 250> 317 59<169 198>
VStem: 138 72<61 104> 433 77<341 383>
Fore
104 215 m 5
 87 236 l 5
 107 307 123 349 136 365 c 4
 142 373 152 376 171 376 c 4
 179 376 189 376 251 373 c 6
 275 373 l 6
 307 373 318 376 329 389 c 5
 339 389 l 5
 341 382 341 381 341 378 c 4
 341 377 341 374 340 371 c 5
 293 317 274 291 254 256 c 4
 226 205 210 150 210 104 c 0
 210 70 228 44 250 44 c 0
 287 44 342 92 381 158 c 0
 415 216 433 280 433 341 c 0
 433 367 429 383 417 410 c 1
 448 425 460 430 484 437 c 1
 503 421 510 406 510 383 c 0
 510 334 483 254 444 188 c 0
 375 70 271 -13 192 -13 c 0
 159 -13 138 15 138 61 c 0
 138 110 155 167 184 215 c 4
 198 238 215 259 273 324 c 5
 249 319 238 318 198 317 c 5
 144 318 137 312 115 249 c 4
 114 244 109 230 104 215 c 5
EndSplineSet
KernsSLIF: 59 -22 1 0 115 -22 1 0 46 -50 1 0 249 -29 1 0 353 -23 1 0 351 -23 1 0 352 -23 1 0 111 -23 1 0 108 -15 1 0 45 -8 1 0 103 -24 1 0 336 -18 1 0 337 -18 1 0 335 -18 1 0 101 -18 1 0 44 -49 1 0 58 -27 1 0 99 -20 1 0 327 -21 1 0 328 -21 1 0 324 -21 1 0 241 -21 1 0 322 -21 1 0 325 -21 1 0 323 -21 1 0 97 -21 1 0
EndChar
StartChar: w
Encoding: 119 119 87
Width: 680
VWidth: 1200
HStem: -13 62<202 252> 318 56<227.009 272>
VStem: 148 77<48 93> 381 77<44 90> 675 82<348 389>
Fore
104 208 m 1
 87 232 l 1
 110 306 130 352 145 367 c 0
 151 374 162 377 179 377 c 0
 186 377 195 377 206 376 c 0
 231 375 291 374 320 374 c 0
 337 374 345 376 361 388 c 1
 372 388 l 1
 373 384 373 382 373 380 c 2
 373 370 l 1
 317 314 295 286 270 243 c 0
 242 192 225 136 225 93 c 0
 225 66 235 49 252 49 c 0
 283 49 337 88 375 138 c 0
 406 178 416 200 452 320 c 0
 455 329 459 343 465 362 c 1
 501 371 512 374 539 383 c 1
 473 185 458 133 458 90 c 0
 458 63 472 44 492 44 c 0
 523 44 574 86 609 140 c 0
 650 204 675 282 675 348 c 0
 675 375 672 392 662 418 c 1
 698 434 707 437 732 444 c 1
 749 433 757 416 757 389 c 0
 757 231 561 -13 435 -13 c 0
 401 -13 381 8 381 44 c 0
 381 70 385 90 396 123 c 1
 313 29 254 -13 202 -13 c 0
 170 -13 148 12 148 48 c 0
 148 90 164 143 190 190 c 0
 208 223 222 241 265 288 c 0
 278 302 289 315 299 326 c 1
 281 319 274 318 253 318 c 0
 244 318 235 318 227 319 c 0
 212 320 199 320 194 320 c 0
 169 320 151 308 135 282 c 0
 128 269 123 256 104 208 c 1
EndSplineSet
KernsSLIF: 59 -19 1 0 115 -22 1 0 46 -51 1 0 249 -28 1 0 353 -23 1 0 351 -23 1 0 352 -23 1 0 111 -23 1 0 108 -14 1 0 45 -8 1 0 103 -23 1 0 336 -18 1 0 337 -18 1 0 335 -18 1 0 101 -18 1 0 44 -50 1 0 58 -24 1 0 99 -19 1 0 327 -20 1 0 328 -20 1 0 324 -20 1 0 241 -20 1 0 322 -20 1 0 325 -20 1 0 323 -20 1 0 97 -20 1 0
EndChar
StartChar: x
Encoding: 120 120 88
Width: 420
VWidth: 1200
HStem: -160 27<446 461> 349 62<193 239>
Fore
103 -25 m 1
 70 27 l 1
 87 73 94 87 112 106 c 1
 131 124 132 124 216 188 c 0
 221 192 234 202 253 218 c 1
 238 323 226 349 193 349 c 0
 173 349 168 347 108 307 c 1
 110 334 l 1
 179 394 208 411 239 411 c 0
 271 411 285 396 294 355 c 0
 297 341 303 304 307 267 c 1
 335 293 344 302 377 334 c 0
 415 371 420 376 448 401 c 1
 465 409 474 411 486 411 c 0
 499 411 506 408 521 398 c 1
 499 328 l 1
 478 337 468 339 457 339 c 0
 430 339 396 315 312 237 c 1
 334 80 342 29 352 -10 c 0
 373 -93 406 -133 454 -133 c 0
 490 -133 517 -113 544 -65 c 1
 583 -112 l 1
 550 -146 515 -160 459 -160 c 0
 376 -160 311 -118 289 -51 c 0
 274 -5 269 33 257 188 c 1
 184 129 141 63 120 -25 c 1
 117 -26 114 -27 112 -27 c 2
 112 -27 110 -27 108 -26 c 0
 107 -26 105 -26 103 -25 c 1
EndSplineSet
KernsSLIF: 113 -27 1 0 111 -31 1 0 335 -21 1 0 101 -21 1 0 99 -24 1 0 97 -25 1 0
EndChar
StartChar: y
Encoding: 121 121 89
Width: 400
VWidth: 1200
HStem: -248 57<121 161> -13 77<136 205> 329 82<146 239>
VStem: 101 82<43 96>
Fore
11 -241 m 1
 51 -173 l 1
 110 -187 132 -191 161 -191 c 0
 226 -191 258 -172 274 -121 c 0
 286 -84 286 -84 324 99 c 1
 235 35 155 -13 136 -13 c 0
 116 -13 101 11 101 43 c 0
 101 69 106 91 130 178 c 0
 154 266 161 296 161 314 c 0
 161 323 156 329 146 329 c 0
 135 329 124 324 77 300 c 1
 80 327 l 1
 164 377 228 411 239 411 c 0
 245 411 250 406 250 399 c 0
 250 390 236 334 211 235 c 0
 192 164 183 118 183 96 c 0
 183 78 192 64 205 64 c 0
 222 64 227 67 327 129 c 1
 344 199 360 264 388 372 c 1
 397 377 405 380 410 383 c 2
 445 400 l 2
 449 402 460 408 473 415 c 1
 439 304 420 229 385 68 c 0
 350 -95 346 -106 288 -168 c 0
 231 -229 191 -248 121 -248 c 0
 86 -248 42 -245 11 -241 c 1
EndSplineSet
KernsSLIF: 59 -18 1 0 115 -8 1 0 46 -14 1 0 249 -15 1 0 353 -10 1 0 351 -10 1 0 352 -10 1 0 111 -10 1 0 108 -3 1 0 45 -4 1 0 103 7 1 0 336 -6 1 0 337 -6 1 0 335 -6 1 0 101 -6 1 0 44 -18 1 0 58 -26 1 0 99 -7 1 0 327 -8 1 0 328 -8 1 0 324 -8 1 0 241 -8 1 0 322 -8 1 0 325 -8 1 0 323 -8 1 0 97 -8 1 0
EndChar
StartChar: z
Encoding: 122 122 90
Width: 440
VWidth: 1200
HStem: -13 57<304 348> 336 60<273.179 328>
VStem: 406 62<101 136>
Fore
46 37 m 6
 46 43 l 5
 183 163 287 258 375 343 c 1
 354 338 353 338 327 337 c 2
 258 336 l 2
 215 334 205 326 184 279 c 0
 182 275 176 263 170 250 c 1
 152 269 l 1
 200 397 202 399 230 399 c 2
 238 399 l 2
 253 398 351 396 375 396 c 0
 427 396 434 398 475 426 c 1
 475 422 l 2
 475 420 475 415 474 409 c 1
 474 402 l 1
 455 382 442 369 438 365 c 0
 335 265 260 192 211 147 c 4
 193 130 182 119 168 105 c 5
 285 53 313 44 348 44 c 4
 380 44 406 69 406 101 c 4
 406 113 404 122 395 142 c 5
 411 154 413 155 426 163 c 4
 436 169 445 175 454 181 c 5
 465 159 468 149 468 136 c 4
 468 111 453 87 412 48 c 4
 364 1 339 -13 304 -13 c 4
 280 -13 250 -6 196 13 c 4
 176 21 130 37 129 37 c 4
 124 38 111 42 97 47 c 5
 76 35 68 30 49 18 c 5
 47 27 46 32 46 37 c 6
EndSplineSet
EndChar
StartChar: braceleft
Encoding: 123 123 91
Width: 240
VWidth: 1200
VStem: 105 57<-110 -93> 174 57<179 192>
DStem: 168 152 224 150 113 -54 171 -51 274 550 330 546 219 344 277 346
Fore
330 546 m 1
 277 346 l 1
 265 294 240 268 187 251 c 1
 219 238 231 222 231 190 c 0
 231 180 229 166 224 150 c 1
 171 -51 l 1
 162 -77 162 -77 162 -93 c 0
 162 -124 170 -136 199 -145 c 1
 194 -165 l 1
 159 -165 144 -162 130 -154 c 0
 114 -144 105 -128 105 -110 c 0
 105 -97 109 -69 113 -54 c 2
 168 152 l 2
 173 171 174 175 174 181 c 0
 174 209 156 232 126 242 c 1
 131 262 l 1
 182 274 207 297 219 344 c 1
 274 550 l 2
 296 633 329 661 405 661 c 1
 400 641 l 1
 364 632 344 604 330 546 c 1
EndSplineSet
EndChar
StartChar: bar
Encoding: 124 124 92
Width: 520
VWidth: 1200
HStem: 0 21G<314 363>
VStem: 314 49<0 722>
Fore
363 722 m 1
 363 0 l 1
 314 0 l 1
 314 722 l 1
 363 722 l 1
EndSplineSet
EndChar
StartChar: braceright
Encoding: 125 125 93
Width: 240
VWidth: 1200
VStem: 182 57<304 316> 251 57<589 605>
DStem: 136 150 194 152 83 -51 139 -54 242 546 300 550 189 346 245 344
Fore
83 -51 m 1
 136 150 l 1
 148 201 173 228 226 244 c 1
 194 258 182 274 182 306 c 0
 182 316 184 329 189 346 c 1
 242 546 l 1
 251 573 251 573 251 589 c 0
 251 620 243 631 214 641 c 1
 219 661 l 1
 254 660 269 658 283 649 c 0
 299 640 308 624 308 605 c 0
 308 592 304 565 300 550 c 2
 245 344 l 2
 240 325 239 321 239 314 c 0
 239 286 257 264 287 253 c 1
 282 233 l 1
 231 222 206 199 194 152 c 1
 139 -54 l 1
 117 -138 85 -166 10 -165 c 1
 15 -145 l 1
 50 -137 70 -109 83 -51 c 1
EndSplineSet
EndChar
StartChar: asciitilde
Encoding: 126 126 94
Width: 520
VWidth: 1200
Fore
492 278 m 1
 526 254 l 1
 498 205 450 171 408 171 c 0
 385 171 347 179 322 189 c 2
 275 209 l 2
 245 221 227 226 209 226 c 0
 176 226 160 215 122 165 c 1
 86 187 l 1
 128 253 162 278 211 278 c 0
 229 278 255 272 278 262 c 2
 335 238 l 2
 370 224 390 218 407 218 c 0
 436 218 461 236 492 278 c 1
EndSplineSet
EndChar
StartChar: exclamdown
Encoding: 161 161 95
Width: 280
VWidth: 1200
Fore
295 332 m 1
 281 322 277 318 268 311 c 0
 264 308 253 299 235 284 c 0
 233 282 228 279 221 273 c 1
 208 295 206 297 202 305 c 0
 197 313 197 313 184 331 c 0
 181 336 177 341 174 347 c 1
 202 375 211 383 248 409 c 1
 267 386 286 355 295 332 c 1
168 153 m 2
 188 212 l 1
 221 232 222 233 243 245 c 1
 185 5 168 -61 146 -144 c 1
 100 -166 70 -180 57 -186 c 1
 84 -104 134 49 140 66 c 0
 149 95 158 124 168 153 c 2
EndSplineSet
EndChar
StartChar: cent
Encoding: 162 162 96
Width: 440
VWidth: 1200
VStem: 127 72<182 212>
Fore
416 194 m 1
 413 154 l 1
 366 116 301 83 256 74 c 1
 252 56 250 43 249 37 c 0
 245 22 242 7 239 -8 c 0
 237 -14 235 -27 231 -47 c 1
 224 -51 218 -55 216 -56 c 0
 210 -59 204 -63 197 -66 c 0
 191 -70 186 -73 180 -76 c 1
 191 -40 191 -38 210 26 c 0
 212 32 216 46 222 68 c 1
 156 70 127 105 127 182 c 0
 127 260 161 351 214 411 c 0
 246 449 274 469 326 490 c 1
 330 510 334 527 336 534 c 0
 344 568 349 592 350 598 c 0
 351 603 354 618 357 635 c 1
 367 638 370 640 377 642 c 2
 397 651 l 1
 382 599 380 595 356 496 c 1
 365 497 375 498 380 498 c 0
 416 498 441 477 453 437 c 1
 381 391 l 1
 381 432 372 454 350 461 c 1
 330 389 291 232 266 116 c 1
 314 120 343 135 416 194 c 1
235 121 m 1
 253 188 255 198 277 294 c 0
 297 376 301 393 319 462 c 1
 286 449 264 429 241 389 c 0
 217 346 199 271 199 212 c 0
 199 167 211 136 235 121 c 1
EndSplineSet
EndChar
StartChar: sterling
Encoding: 163 163 97
Width: 440
VWidth: 1200
HStem: -2 62<221 292> 3 47<73 129> 297 35<138 200 284 386> 526 52<359 393>
Fore
200 297 m 1x70
 112 297 l 1
 138 333 l 1
 149 332 159 332 164 332 c 2
 189 332 l 2
 191 333 200 333 209 333 c 1
 234 426 242 444 284 498 c 0
 338 568 351 578 393 578 c 0
 410 578 419 577 436 572 c 1
 403 515 l 1
 383 524 373 526 359 526 c 0
 340 526 332 515 320 473 c 0
 302 407 295 380 284 333 c 1
 315 332 336 332 353 332 c 0
 366 332 388 332 416 333 c 1
 386 297 l 1
 275 297 l 1
 247 163 216 108 138 54 c 1
 166 58 179 59 221 60 c 0xb0
 318 60 328 61 350 76 c 1
 368 91 395 134 408 168 c 1
 427 160 l 1
 409 103 383 48 353 3 c 1x70
 328 0 305 -2 290 -2 c 2xb0
 129 3 l 1
 71 3 52 -6 15 -53 c 1
 4 -33 l 1
 28 0 45 21 73 50 c 1
 102 50 126 63 142 86 c 1
 163 122 164 127 200 297 c 1x70
EndSplineSet
EndChar
StartChar: fraction
Encoding: 164 8260 98
Width: 60
VWidth: 1200
HStem: -5 21G<-81 -70> 563 20G<250 252>
Fore
-104 -4 m 1
 -115 -3 l 1
 -64 74 -57 86 88 329 c 0
 187 495 198 514 237 585 c 1
 243 584 249 583 251 583 c 0
 253 583 258 582 267 581 c 0
 269 581 274 581 280 580 c 1
 230 506 223 494 158 384 c 0
 124 326 91 271 59 217 c 0
 -20 86 -27 75 -70 -5 c 1
 -81 -5 l 1
 -104 -4 l 1
EndSplineSet
EndChar
StartChar: yen
Encoding: 165 165 99
Width: 440
VWidth: 1200
HStem: -152 72<30 93> 531 77<546 583>
VStem: -11 77<337 395> 258 63<256 365>
Fore
253 186 m 1
 80 175 l 1
 92 193 93 194 99 202 c 0
 105 209 107 213 117 224 c 1
 257 224 l 1
 258 244 258 248 258 256 c 0
 258 265 258 270 257 287 c 1
 119 277 l 1
 135 300 141 308 156 326 c 1
 254 326 l 1
 243 447 202 519 145 519 c 0
 101 519 66 464 66 395 c 0
 66 364 71 341 86 293 c 1
 10 245 l 1
 -4 276 -11 306 -11 337 c 0
 -11 449 108 576 212 576 c 0
 279 576 321 495 321 365 c 0
 321 330 319 306 310 253 c 1
 443 531 503 608 583 608 c 0
 600 608 608 605 623 592 c 1
 595 519 l 1
 572 528 561 531 546 531 c 0
 514 531 491 515 462 474 c 0
 439 442 406 382 380 329 c 1
 541 329 l 1
 512 302 l 1
 362 293 l 1
 328 224 l 1
 498 224 l 1
 464 199 l 1
 310 189 l 1
 228 -21 228 -21 196 -76 c 0
 161 -133 120 -152 30 -152 c 0
 15 -152 7 -152 -11 -150 c 1
 24 -75 l 1
 75 -80 77 -80 93 -80 c 0
 146 -80 178 -58 201 -7 c 0
 228 56 246 123 253 186 c 1
EndSplineSet
EndChar
StartChar: florin
Encoding: 166 402 100
Width: 440
VWidth: 1200
HStem: -246 62<3 50> 352 33<192 248 347 435> 630 52<474 533>
Fore
479 386 m 1
 435 352 l 1
 413 353 397 353 385 353 c 0
 375 353 359 353 338 352 c 1
 274 89 268 68 246 2 c 0
 210 -101 181 -147 113 -206 c 0
 75 -239 55 -246 3 -246 c 0
 -15 -246 -26 -245 -49 -242 c 1
 -42 -233 -38 -226 -36 -223 c 0
 -29 -215 -23 -207 -17 -198 c 0
 -15 -196 -11 -190 -5 -181 c 1
 26 -183 37 -184 50 -184 c 0
 102 -184 132 -162 150 -111 c 0
 174 -43 188 13 244 265 c 0
 247 279 254 309 264 352 c 1
 198 352 l 1
 139 352 l 1
 147 357 153 361 155 362 c 0
 161 367 167 371 173 375 c 0
 176 377 182 380 192 386 c 1
 206 385 217 385 224 385 c 2
 248 385 l 1
 273 386 l 1
 301 506 318 544 368 593 c 0
 433 658 479 682 533 682 c 0
 551 682 563 680 587 675 c 1
 540 620 l 1
 508 628 494 630 474 630 c 0
 441 630 424 618 407 585 c 0
 389 549 370 486 347 386 c 1
 393 387 418 387 421 387 c 0
 435 387 454 387 479 386 c 1
EndSplineSet
EndChar
StartChar: section
Encoding: 167 167 101
Width: 420
VWidth: 1200
HStem: -164 57<140 180> 524 52<362 402>
VStem: 122 62<243 297> 228 58<391 436> 354 55<132 193>
Fore
63 -148 m 1
 106 -87 l 1
 149 -104 160 -107 180 -107 c 0
 203 -107 221 -100 235 -87 c 0
 252 -70 265 -44 265 -26 c 0
 265 -3 259 7 184 100 c 1
 144 152 122 201 122 243 c 0
 122 303 160 367 238 442 c 1
 274 521 342 576 402 576 c 0
 426 576 443 570 464 553 c 1
 409 481 l 1
 398 513 385 524 362 524 c 0
 325 524 286 479 286 436 c 0
 286 410 290 403 346 333 c 0
 391 277 409 237 409 193 c 0
 409 137 382 80 327 23 c 1
 318 -22 298 -60 261 -102 c 0
 221 -148 189 -164 140 -164 c 0
 115 -164 97 -160 63 -148 c 1
323 45 m 1
 345 78 354 103 354 132 c 0
 354 166 342 193 300 249 c 0
 234 337 228 349 228 391 c 0
 228 394 228 401 229 409 c 1
 197 368 184 336 184 297 c 0
 184 252 198 226 266 142 c 0
 302 97 312 81 323 45 c 1
EndSplineSet
EndChar
StartChar: currency
Encoding: 168 164 102
Width: 440
VWidth: 1200
HStem: 72 54<257 275> 446 54<265 275>
VStem: 52 54<279 297> 425 53<286 297>
DStem: 50 462 86 499 98 415 134 452 98 157 134 120 50 110 86 73 396 120 432 157 444 73 480 110 444 499 480 462 396 452 432 415
Fore
432 157 m 1
 480 110 l 1
 444 73 l 1
 396 120 l 1
 353 85 316 72 265 72 c 0
 214 72 177 85 134 120 c 1
 86 73 l 1
 50 110 l 1
 98 157 l 1
 65 198 52 234 52 286 c 0
 52 338 65 374 98 415 c 1
 50 462 l 1
 86 499 l 1
 134 452 l 1
 177 487 214 500 265 500 c 0
 316 500 353 487 396 452 c 1
 444 499 l 1
 480 462 l 1
 432 415 l 1
 466 373 478 339 478 286 c 0
 478 233 466 199 432 157 c 1
265 446 m 0
 178 446 106 375 106 289 c 0
 106 198 176 126 264 126 c 0
 354 126 425 197 425 286 c 0
 425 375 354 446 265 446 c 0
EndSplineSet
EndChar
StartChar: quotesingle
Encoding: 169 39 103
Width: 160
VWidth: 1200
HStem: 571 20G<218 259>
Fore
170 405 m 1
 218 591 l 1
 259 591 l 1
 199 417 l 1
 170 405 l 1
EndSplineSet
EndChar
StartChar: quotedblleft
Encoding: 170 8220 104
Width: 340
VWidth: 1200
VStem: 229 57<498 518> 345 57<496 519>
Fore
414 460 m 1
 355 435 l 1
 349 456 345 478 345 496 c 0
 345 530 357 555 393 595 c 0
 418 623 445 649 474 676 c 1
 500 665 l 1
 480 645 l 2
 416 584 402 561 402 519 c 0
 402 502 405 488 414 460 c 1
298 460 m 1
 239 435 l 1
 232 457 229 477 229 498 c 0
 229 530 241 556 277 595 c 0
 302 622 329 649 358 676 c 1
 384 665 l 1
 364 645 l 2
 300 584 286 561 286 518 c 0
 286 502 289 488 298 460 c 1
EndSplineSet
KernsSLIF: 89 41 0 0 87 31 0 0 86 30 0 0 84 22 0 0 262 -20 0 0 256 -20 0 0 257 -20 0 0 225 -72 0 0 65 -10 0 0
EndChar
StartChar: guillemotleft
Encoding: 171 171 105
Width: 340
VWidth: 1200
DStem: 275 413 224 300 131 242 157 213
Fore
393 413 m 1
 404 387 l 1
 375 344 368 334 275 213 c 1
 289 161 305 81 313 22 c 1
 308 19 303 15 301 14 c 0
 293 8 287 4 285 2 c 0
 283 1 277 -4 271 -9 c 1
 266 13 262 28 260 36 c 0
 248 80 239 116 232 144 c 0
 227 165 223 178 221 185 c 2
 216 205 l 1
 233 224 245 237 249 242 c 0
 265 262 281 282 298 302 c 0
 343 354 375 391 393 413 c 1
188 17 m 1
 183 14 l 2
 175 8 170 4 167 2 c 0
 165 1 160 -4 154 -9 c 1
 137 57 118 129 98 205 c 1
 115 224 127 237 131 242 c 0
 174 294 197 321 275 413 c 1
 286 387 l 1
 263 352 254 339 224 300 c 0
 202 271 180 242 157 213 c 1
 172 157 186 89 195 22 c 1
 188 17 l 1
EndSplineSet
EndChar
StartChar: guilsinglleft
Encoding: 172 8249 106
Width: 240
VWidth: 1200
Fore
274 413 m 1
 285 387 l 1
 261 352 252 339 223 300 c 0
 201 271 178 241 156 213 c 1
 170 161 184 90 194 22 c 1
 189 19 185 16 182 14 c 0
 174 8 168 4 166 2 c 0
 164 1 158 -4 152 -9 c 1
 136 56 118 128 98 205 c 1
 115 224 127 237 131 242 c 0
 163 282 191 316 215 343 c 0
 240 372 252 388 274 413 c 1
EndSplineSet
EndChar
StartChar: guilsinglright
Encoding: 173 8250 107
Width: 260
VWidth: 1200
Fore
95 -3 m 1
 86 25 l 1
 114 64 145 104 223 200 c 1
 204 262 195 299 176 383 c 1
 196 405 201 410 218 423 c 1
 227 394 233 374 242 346 c 0
 246 333 256 301 270 249 c 0
 272 243 277 228 284 205 c 1
 265 185 252 172 248 168 c 0
 212 126 182 93 157 66 c 0
 131 37 110 14 95 -3 c 1
EndSplineSet
KernsSLIF: 89 3 0 0 87 -21 0 0 86 -20 0 0 84 -6 0 0 262 -34 0 0 256 -34 0 0 257 -34 0 0 225 -34 0 0 65 -34 0 0
EndChar
StartChar: fi
Encoding: 174 64257 108
Width: 520
VWidth: 1200
HStem: -247 62<-60 -7> -12 77<385 460> 311 33<127 198.965 282 345> 329 17<336 407> 391 20G<492 502.5> 633 48<419 477>
VStem: 359 82<30 93>
Fore
327 311 m 2xee
 274 311 l 1
 271 301 266 280 259 254 c 0
 201 23 189 -15 155 -84 c 0
 136 -123 120 -144 78 -184 c 0
 23 -238 3 -247 -60 -247 c 0
 -76 -247 -84 -246 -104 -243 c 1
 -100 -237 -95 -231 -89 -223 c 0
 -83 -215 -77 -207 -72 -199 c 0
 -67 -192 -63 -188 -58 -180 c 1
 -34 -184 -22 -185 -7 -185 c 0
 58 -185 85 -154 118 -41 c 0
 128 -9 170 172 199 311 c 1
 66 312 l 1
 96 328 117 338 127 344 c 1xee
 159 344 164 344 207 345 c 1
 241 497 260 540 314 593 c 0
 378 655 425 681 477 681 c 0
 514 681 549 675 606 659 c 1
 536 577 l 1
 484 619 456 633 419 633 c 0
 362 633 341 590 282 346 c 1
 336 346 l 2
 352 346 371 354 424 383 c 0
 455 400 485 411 499 411 c 0
 506 411 510 407 510 402 c 0
 510 392 508 385 473 241 c 0
 450 150 441 107 441 93 c 0
 441 77 449 65 460 65 c 0
 469 65 518 90 567 120 c 1
 563 90 l 1
 502 52 494 46 478 35 c 0
 420 -3 402 -12 385 -12 c 0
 369 -12 359 4 359 30 c 0
 359 52 363 69 387 157 c 0
 405 221 424 303 424 314 c 0
 424 323 417 329 407 329 c 0xde
 401 329 394 327 373 319 c 0
 354 312 346 311 327 311 c 2xee
EndSplineSet
Ligature: 0 1 'liga' f i
EndChar
StartChar: fl
Encoding: 175 64258 109
Width: 520
VWidth: 1200
HStem: -246 62<-57 -7> -13 21G<389.5 404> 310 33<125 208 282 362> 642 46<478 534>
Fore
361 310 m 1
 338 310 l 2
 323 311 313 311 309 311 c 0
 301 311 289 311 273 310 c 1
 265 278 258 251 256 245 c 0
 243 192 229 139 215 86 c 0
 192 -3 156 -91 125 -132 c 0
 99 -167 46 -217 19 -232 c 0
 3 -241 -23 -246 -57 -246 c 0
 -73 -246 -83 -245 -105 -242 c 1
 -79 -208 -76 -204 -59 -180 c 1
 -31 -183 -20 -184 -7 -184 c 0
 75 -184 96 -144 159 136 c 0
 174 203 184 248 188 264 c 2
 200 310 l 1
 118 310 l 1
 68 310 l 1
 77 315 88 321 88 321 c 1
 110 334 l 2
 112 336 117 338 125 342 c 1
 155 343 158 343 208 343 c 1
 246 505 261 540 316 593 c 0
 395 669 439 688 534 688 c 0
 589 688 636 684 710 673 c 1
 666 621 l 1
 636 627 626 629 612 629 c 0
 585 629 569 614 557 577 c 0
 517 452 442 141 442 99 c 0
 442 77 449 64 461 64 c 0
 473 64 495 76 554 114 c 0
 563 120 572 125 580 131 c 1
 582 108 l 1
 550 84 476 31 441 8 c 0
 416 -10 409 -13 399 -13 c 0
 380 -13 362 16 362 49 c 0
 362 58 362 63 364 68 c 1
 435 381 l 1
 478 568 479 571 564 637 c 1
 525 641 505 642 478 642 c 0
 363 642 347 618 282 343 c 1
 315 343 l 1
 371 344 l 2
 375 344 386 344 404 343 c 1
 361 310 l 1
EndSplineSet
Ligature: 0 1 'liga' f l
EndChar
StartChar: endash
Encoding: 177 8211 110
Width: 500
VWidth: 1200
HStem: 173 63<79 533>
Fore
72 173 m 1
 31 173 l 1
 47 199 66 223 79 236 c 1
 177 237 279 237 292 237 c 2
 487 236 l 1
 578 236 l 1
 562 218 547 197 533 173 c 1
 363 176 363 176 347 176 c 2
 72 173 l 1
EndSplineSet
EndChar
StartChar: dagger
Encoding: 178 8224 111
Width: 460
VWidth: 1200
HStem: 380 20G<137 296>
Fore
217 -105 m 1
 148 -138 l 1
 216 103 256 248 286 362 c 1
 98 350 l 1
 110 367 l 2
 123 385 124 386 137 400 c 1
 296 400 l 1
 320 493 326 515 340 578 c 1
 398 606 l 1
 391 577 385 558 384 551 c 1
 361 468 l 2
 355 447 347 417 343 400 c 1
 529 400 l 1
 498 373 l 1
 333 362 l 1
 282 163 243 7 217 -105 c 1
EndSplineSet
EndChar
StartChar: daggerdbl
Encoding: 179 8225 112
Width: 480
VWidth: 1200
DStem: 255 169 306 174 214 20 275 44 362 580 419 607 324 426 372 426
Fore
241 -105 m 1
 170 -137 l 1
 188 -77 194 -56 214 20 c 0
 238 110 240 116 255 169 c 1
 98 160 l 1
 114 186 118 193 133 210 c 1
 266 210 l 1
 278 252 278 254 285 278 c 0
 288 289 295 316 306 359 c 0
 307 362 310 373 314 388 c 1
 152 376 l 1
 163 394 167 399 187 426 c 1
 324 426 l 1
 342 501 346 516 362 580 c 1
 419 607 l 1
 406 557 395 513 372 426 c 1
 529 426 l 1
 497 400 l 1
 363 388 l 1
 337 299 335 289 315 210 c 1
 471 208 l 1
 439 181 l 1
 306 174 l 1
 292 113 286 88 275 44 c 0
 255 -41 254 -44 241 -105 c 1
EndSplineSet
EndChar
StartChar: periodcentered
Encoding: 180 183 113
Width: 220
VWidth: 1200
Fore
169 277 m 0
 202 277 229 250 229 217 c 0
 229 183 202 156 168 156 c 0
 135 156 108 184 108 217 c 0
 108 250 135 277 169 277 c 0
EndSplineSet
EndChar
StartChar: paragraph
Encoding: 182 182 114
Width: 500
VWidth: 1200
HStem: -247 57<124 166>
Fore
491 530 m 1
 408 199 l 1
 360 -7 360 -7 337 -56 c 0
 285 -165 194 -247 124 -247 c 0
 89 -247 56 -232 29 -204 c 1
 78 -141 l 1
 112 -175 138 -190 166 -190 c 0
 195 -190 225 -169 244 -136 c 0
 272 -88 278 -68 312 81 c 1
 340 196 l 1
 213 225 157 280 157 377 c 0
 157 455 198 515 273 549 c 0
 300 561 344 571 384 575 c 0
 390 575 439 577 528 581 c 2
 650 586 l 1
 624 551 l 1
 491 530 l 1
EndSplineSet
EndChar
StartChar: bullet
Encoding: 183 8226 115
Width: 600
VWidth: 1200
Fore
398 557 m 0
 492 557 568 481 568 388 c 0
 568 292 492 217 396 217 c 0
 305 217 228 295 228 387 c 0
 228 481 304 557 398 557 c 0
EndSplineSet
EndChar
StartChar: quotesinglbase
Encoding: 184 8218 116
Width: 180
VWidth: 1200
Fore
68 -109 m 1
 40 -101 l 1
 96 -30 108 -7 108 27 c 0
 108 41 106 51 100 76 c 1
 105 79 120 87 146 101 c 2
 164 111 l 1
 169 90 170 80 170 67 c 0
 170 21 156 -4 68 -109 c 1
EndSplineSet
EndChar
StartChar: quotedblbase
Encoding: 185 8222 117
Width: 280
VWidth: 1200
VStem: 109 62<27 68> 224 62<27 67>
Fore
184 -109 m 1
 155 -101 l 1
 211 -30 224 -6 224 27 c 0
 224 40 222 51 216 76 c 1
 227 83 242 91 261 101 c 0
 265 103 272 107 279 111 c 1
 285 91 286 81 286 67 c 0
 286 21 274 0 184 -109 c 1
69 -109 m 1
 41 -101 l 1
 96 -31 109 -6 109 27 c 0
 109 39 107 49 101 76 c 1
 111 82 126 90 147 101 c 0
 149 102 156 106 165 111 c 1
 170 91 171 81 171 68 c 0
 171 21 160 1 69 -109 c 1
EndSplineSet
KernsSLIF: 89 -11 0 0 87 -35 0 0 86 -32 0 0 84 -57 0 0 225 34 0 0 65 15 0 0
EndChar
StartChar: quotedblright
Encoding: 186 8221 118
Width: 360
VWidth: 1200
VStem: 296 62<589 630> 411 62<589 630>
Fore
371 454 m 1
 343 461 l 1
 398 531 411 556 411 589 c 0
 411 602 409 612 403 638 c 1
 436 656 457 668 467 673 c 1
 472 653 473 643 473 630 c 0
 473 583 460 560 371 454 c 1
256 454 m 1
 228 461 l 1
 282 529 296 556 296 589 c 0
 296 602 294 612 288 638 c 1
 306 648 321 656 334 663 c 2
 352 673 l 1
 357 653 358 643 358 630 c 0
 358 583 346 562 256 454 c 1
EndSplineSet
KernsSLIF: 89 30 0 0 87 19 0 0 86 18 0 0 84 12 0 0 262 -32 0 0 256 -32 0 0 257 -32 0 0 225 -81 0 0 65 -20 0 0
EndChar
StartChar: guillemotright
Encoding: 187 187 119
Width: 380
VWidth: 1200
Fore
217 -3 m 1
 208 25 l 1
 236 64 266 102 344 200 c 1
 327 257 314 308 297 383 c 1
 318 406 322 410 339 423 c 1
 361 357 378 299 393 249 c 0
 395 243 400 227 407 205 c 1
 388 185 375 172 371 168 c 0
 353 147 334 126 316 106 c 0
 309 99 248 32 217 -3 c 1
96 -3 m 1
 87 25 l 1
 112 61 145 102 224 200 c 1
 209 250 194 306 177 383 c 1
 198 406 202 410 219 423 c 1
 227 398 235 372 243 346 c 0
 248 332 258 300 273 249 c 0
 274 243 279 227 286 205 c 1
 267 185 255 172 250 168 c 1
 214 126 183 92 159 66 c 0
 134 39 113 17 96 -3 c 1
EndSplineSet
KernsSLIF: 89 4 0 0 87 -20 0 0 86 -19 0 0 84 -6 0 0 262 -33 0 0 256 -33 0 0 257 -33 0 0 225 -33 0 0 65 -33 0 0
EndChar
StartChar: ellipsis
Encoding: 188 8230 120
Width: 1000
VWidth: 1200
Fore
133 89 m 2
 142 96 l 2
 150 103 158 110 166 116 c 0
 172 121 177 125 180 128 c 1
 193 106 198 98 204 88 c 0
 205 87 215 72 227 54 c 1
 200 27 190 18 153 -9 c 1
 134 14 114 46 106 68 c 1
 119 78 128 85 133 89 c 2
466 89 m 2
 475 96 l 2
 483 103 491 110 499 116 c 0
 501 118 507 123 513 128 c 1
 526 106 531 98 537 88 c 0
 545 76 552 65 560 54 c 1
 533 27 523 18 486 -9 c 1
 467 14 447 46 439 68 c 1
 452 78 461 85 466 89 c 2
882 69 m 1
 893 54 l 1
 866 27 856 18 819 -9 c 1
 800 14 780 46 772 68 c 1
 785 78 794 85 799 89 c 0
 803 92 809 98 818 104 c 0
 822 108 827 112 832 116 c 0
 834 118 840 123 846 128 c 1
 859 106 864 98 870 88 c 0
 874 82 878 76 882 69 c 1
EndSplineSet
EndChar
StartChar: perthousand
Encoding: 189 8240 121
Width: 960
VWidth: 1200
HStem: -7 27<522 552> 227 27<240 269> 317 32<597 630> 552 32<315 348>
VStem: 162 57<328 351> 360 57<472 497> 444 57<88 122> 643 57<237 262> 719 57<88 122> 918 57<237 261>
Fore
905 349 m 0
 950 349 975 318 975 261 c 0
 975 201 954 122 925 73 c 0
 895 22 849 -7 797 -7 c 0
 745 -7 719 29 719 102 c 0
 719 164 741 233 775 280 c 0
 805 321 858 349 905 349 c 0
872 317 m 0
 840 317 816 290 798 237 c 0
 785 198 776 147 776 108 c 0
 776 55 796 20 827 20 c 0
 873 20 918 130 918 242 c 0
 918 290 901 317 872 317 c 0
630 349 m 0
 675 349 700 318 700 262 c 0
 700 201 679 123 650 73 c 0
 620 22 574 -7 522 -7 c 0
 470 -7 444 29 444 102 c 0
 444 164 466 233 500 280 c 0
 530 321 583 349 630 349 c 0
597 317 m 0
 565 317 541 291 523 237 c 0
 510 198 501 147 501 108 c 0
 501 55 521 20 552 20 c 0
 598 20 643 130 643 241 c 0
 643 289 626 317 597 317 c 0
231 0 m 1
 376 224 489 408 591 584 c 1
 610 580 617 579 634 577 c 1
 564 476 357 139 276 -4 c 1
 261 -2 255 -1 231 0 c 1
348 584 m 0
 392 584 417 553 417 497 c 0
 417 435 397 358 367 307 c 0
 337 256 291 227 240 227 c 0
 188 227 162 263 162 336 c 0
 162 398 184 468 218 514 c 0
 248 555 301 584 348 584 c 0
315 552 m 0
 283 552 258 525 241 472 c 0
 228 433 219 380 219 342 c 0
 219 289 239 254 269 254 c 0
 315 254 360 365 360 477 c 0
 360 524 343 552 315 552 c 0
EndSplineSet
EndChar
StartChar: questiondown
Encoding: 191 191 122
Width: 400
VWidth: 1200
HStem: -181 32<174 197>
VStem: 57 82<-90 -81>
Fore
365 284 m 1
 351 273 l 1
 345 283 338 294 332 305 c 0
 327 313 326 314 315 331 c 0
 311 336 307 342 304 347 c 1
 332 375 342 383 378 409 c 1
 397 387 416 356 425 332 c 1
 412 322 407 318 398 311 c 2
 389 304 l 1
 365 284 l 1
335 226 m 1
 369 237 l 1
 363 163 361 148 352 76 c 1
 334 61 l 1
 312 66 301 67 287 67 c 0
 241 67 208 52 179 19 c 0
 154 -11 139 -48 139 -83 c 0
 139 -122 162 -149 195 -149 c 0
 238 -149 277 -119 307 -63 c 1
 317 -91 321 -100 328 -124 c 1
 283 -165 239 -181 174 -181 c 0
 102 -181 57 -145 57 -88 c 0
 57 -22 95 43 153 76 c 0
 190 98 209 103 279 109 c 1
 312 108 328 142 335 226 c 1
EndSplineSet
EndChar
StartChar: grave
Encoding: 193 96 123
Width: 220
VWidth: 1200
Fore
203 646 m 1
 219 655 l 1
 251 567 258 544 281 466 c 1
 269 462 266 462 256 460 c 1
 210 560 193 593 173 630 c 1
 186 637 l 1
 203 646 l 1
EndSplineSet
EndChar
StartChar: acute
Encoding: 194 180 124
Width: 300
VWidth: 1200
Fore
229 460 m 1
 205 466 l 1
 239 511 285 574 343 655 c 1
 388 633 l 1
 311 555 291 533 229 460 c 1
EndSplineSet
EndChar
StartChar: circumflex
Encoding: 195 710 125
Width: 340
VWidth: 1200
Fore
186 469 m 1
 185 479 l 1
 185 480 184 484 183 488 c 1
 291 597 312 616 356 654 c 1
 364 655 368 656 370 656 c 0
 373 656 378 655 383 654 c 1
 387 601 388 580 389 569 c 0
 392 540 394 510 397 480 c 1
 384 474 380 471 361 460 c 1
 360 471 357 495 352 530 c 1
 341 594 l 1
 308 568 293 556 268 534 c 0
 239 507 212 482 187 460 c 1
 186 469 l 1
EndSplineSet
EndChar
StartChar: tilde
Encoding: 196 732 126
Width: 440
VWidth: 1200
Fore
196 494 m 1
 183 512 l 1
 232 578 256 598 288 598 c 0
 308 598 318 595 356 573 c 0
 378 561 401 553 414 553 c 0
 429 553 453 562 467 572 c 0
 475 578 477 580 503 604 c 1
 513 586 l 1
 459 519 439 503 408 503 c 0
 385 503 373 508 323 536 c 0
 302 548 287 553 273 553 c 0
 248 553 233 541 196 494 c 1
EndSplineSet
EndChar
StartChar: macron
Encoding: 197 175 127
Width: 440
VWidth: 1200
HStem: 520 48<225 475>
Fore
183 520 m 1
 192 529 l 1
 204 544 l 2
 208 548 211 552 215 555 c 1
 216 557 221 562 226 568 c 1
 515 568 l 1
 503 556 490 540 475 520 c 1
 183 520 l 1
EndSplineSet
EndChar
StartChar: breve
Encoding: 198 728 128
Width: 440
VWidth: 1200
HStem: 488 54<326 344>
Fore
183 609 m 1
 204 619 l 1
 238 563 275 542 340 542 c 0
 382 542 431 555 458 573 c 0
 478 586 487 597 501 623 c 1
 516 613 l 1
 491 539 415 488 328 488 c 0
 278 488 233 512 207 552 c 0
 197 568 191 582 183 609 c 1
EndSplineSet
EndChar
StartChar: dotaccent
Encoding: 199 729 129
Width: 220
VWidth: 1200
Fore
244 489 m 1
 221 523 214 535 206 559 c 1
 232 577 234 578 261 601 c 0
 265 604 269 607 275 612 c 1
 277 608 279 603 280 599 c 0
 290 576 291 573 309 544 c 1
 286 526 283 523 277 519 c 0
 269 512 261 505 244 489 c 1
EndSplineSet
EndChar
StartChar: dieresis
Encoding: 200 168 130
Width: 360
VWidth: 1200
Fore
354 489 m 1
 332 520 324 536 316 559 c 1
 328 568 333 571 340 576 c 0
 344 579 354 587 371 601 c 0
 377 606 381 609 385 612 c 1
 395 587 396 584 399 578 c 0
 403 570 407 563 419 544 c 1
 394 525 392 523 387 519 c 0
 379 513 376 510 354 489 c 1
221 489 m 1
 199 522 191 536 183 559 c 1
 209 577 212 579 238 601 c 1
 243 604 247 608 252 612 c 1
 263 587 264 584 267 578 c 0
 271 570 275 563 286 544 c 1
 264 526 260 523 254 519 c 0
 246 512 239 506 221 489 c 1
EndSplineSet
EndChar
StartChar: ring
Encoding: 202 730 131
Width: 300
VWidth: 1200
HStem: 461 22<294 309> 618 22<325 341>
VStem: 228 43<522 537> 362 47<565 580>
Fore
341 640 m 0
 383 640 409 617 409 578 c 0
 409 515 356 461 294 461 c 0
 252 461 228 484 228 524 c 0
 228 591 276 640 341 640 c 0
327 618 m 0
 295 618 271 583 271 535 c 0
 271 505 285 483 305 483 c 0
 336 483 362 521 362 567 c 0
 362 599 349 618 327 618 c 0
EndSplineSet
EndChar
StartChar: cedilla
Encoding: 203 184 132
Width: 300
VWidth: 1200
HStem: -20 20G<181 216>
VStem: 131 62<-130 -102>
DStem: 181 0 216 0 104 -92 169 -64
Fore
216 0 m 1
 169 -64 l 1
 184 -70 193 -84 193 -102 c 0
 193 -149 141 -191 56 -212 c 1
 41 -199 l 1
 70 -191 81 -186 104 -167 c 0
 125 -151 131 -143 131 -130 c 0
 131 -116 125 -108 104 -92 c 1
 181 0 l 1
 216 0 l 1
EndSplineSet
EndChar
StartChar: hungarumlaut
Encoding: 205 733 133
Width: 400
VWidth: 1200
Fore
279 464 m 1
 294 484 320 519 357 567 c 0
 379 596 400 625 422 655 c 1
 447 643 448 643 463 636 c 1
 436 608 424 596 404 574 c 0
 387 556 370 536 327 488 c 0
 318 479 309 469 301 460 c 1
 289 462 287 462 279 464 c 1
329 655 m 1
 356 641 l 2
 357 641 363 638 367 636 c 1
 340 608 329 596 308 574 c 0
 298 563 298 563 231 488 c 0
 223 479 214 469 205 460 c 1
 197 461 196 461 183 464 c 1
 197 483 207 496 211 500 c 0
 228 522 245 544 262 567 c 0
 268 574 278 587 329 655 c 1
EndSplineSet
EndChar
StartChar: ogonek
Encoding: 206 731 134
Width: 280
VWidth: 1200
HStem: -153 47<111 154> -20 20G<143 177>
VStem: 58 57<-101 -72>
Fore
143 0 m 1
 177 0 l 1
 168 -8 159 -16 150 -23 c 0
 125 -44 115 -58 115 -72 c 0
 115 -90 133 -106 154 -106 c 0
 170 -106 182 -99 203 -77 c 1
 216 -82 l 1
 184 -130 150 -153 111 -153 c 0
 79 -153 58 -132 58 -101 c 0
 58 -64 82 -36 143 0 c 1
EndSplineSet
EndChar
StartChar: caron
Encoding: 207 711 135
Width: 340
VWidth: 1200
Fore
444 645 m 1
 445 636 l 1
 445 634 446 631 447 626 c 1
 346 524 320 500 274 461 c 1
 265 459 262 458 260 458 c 0
 257 458 252 459 247 461 c 1
 243 524 238 582 234 634 c 1
 255 646 255 646 269 655 c 1
 281 565 281 561 289 520 c 1
 345 565 351 570 414 628 c 1
 422 637 434 647 443 655 c 1
 444 645 l 1
EndSplineSet
EndChar
StartChar: emdash
Encoding: 208 8212 136
Width: 1000
VWidth: 1200
HStem: 172 63<79 572 553 1033>
Fore
572 175 m 1
 228 172 l 2
 152 172 137 172 31 173 c 1
 48 199 63 219 79 235 c 1
 309 236 499 236 553 236 c 2
 893 235 l 1
 1078 235 l 1
 1066 222 1046 195 1033 173 c 1
 785 174 l 1
 657 175 l 1
 572 175 l 1
EndSplineSet
EndChar
StartChar: AE
Encoding: 225 198 137
Width: 740
VWidth: 1200
Flags: W
HStem: 2 38<505 707> 271 32<389 436 509 636> 534 31<523 596>
DStem: 428 271 501 271 371 41 444 41 468 528 487 507 155 178 312 308 487 507 566 532 436 303 509 302
Fore
501 271 m 1
 444 41 l 1
 471 40 490 40 505 40 c 0
 667 40 675 45 784 205 c 1
 798 179 l 1
 742 65 731 45 707 2 c 1
 542 4 542 4 447 4 c 0
 378 4 342 4 271 2 c 1
 300 26 l 1
 310 28 317 30 320 31 c 0
 330 33 340 34 351 36 c 0
 354 37 361 39 371 41 c 1
 428 271 l 1
 281 271 l 1
 229 206 226 203 178 136 c 0
 128 65 127 64 127 38 c 0
 127 30 128 22 131 6 c 1
 91 -1 75 -3 39 -4 c 1
 34 7 33 13 32 26 c 1
 67 72 113 128 155 178 c 1
 295 335 384 434 468 528 c 1
 428 538 411 541 358 548 c 1
 374 562 377 564 390 571 c 1
 484 565 485 565 523 565 c 0
 575 565 621 566 706 569 c 0
 743 570 747 570 776 571 c 1
 789 563 794 553 795 528 c 1
 724 461 l 1
 719 523 709 538 671 538 c 0
 662 538 649 537 634 536 c 0
 630 536 616 535 596 534 c 0
 592 534 579 533 566 532 c 1
 509 302 l 1
 679 302 l 1
 663 287 656 282 637 271 c 1
 610 272 599 272 588 272 c 2
 501 271 l 1
487 507 m 1
 312 308 l 1
 355 305 377 304 436 303 c 1
 487 507 l 1
EndSplineSet
EndChar
StartChar: ordfeminine
Encoding: 227 170 138
Width: 260
VWidth: 1200
HStem: 253 35<91 267> 390 21G<157 163.5 267.5 271.5> 544 32<211 235>
VStem: 101 47<389 411> 227 35<400 444>
Fore
324 427 m 1
 324 405 l 1
 261 360 234 344 219 344 c 0
 213 344 210 348 210 357 c 0
 210 360 211 366 212 373 c 0
 213 374 214 380 215 390 c 0
 216 391 217 396 217 401 c 1
 211 396 205 392 199 388 c 0
 152 355 134 344 124 344 c 0
 110 344 101 361 101 389 c 0
 101 432 125 507 146 528 c 0
 150 532 178 552 197 564 c 0
 211 574 218 576 235 576 c 0
 264 576 292 573 311 567 c 1
 309 564 307 562 306 561 c 2
 301 556 l 2
 300 555 298 552 295 548 c 1
 281 495 262 413 262 400 c 0
 262 395 266 390 269 390 c 0
 274 390 307 412 324 427 c 1
224 427 m 1
 226 436 227 442 227 444 c 0
 241 499 248 530 250 538 c 1
 243 541 222 544 211 544 c 0
 190 544 178 531 164 493 c 0
 154 464 148 436 148 411 c 0
 148 400 154 390 160 390 c 0
 167 390 184 400 224 427 c 1
81 253 m 1
 92 288 l 1
 276 288 l 1
 267 253 l 1
 81 253 l 1
EndSplineSet
EndChar
StartChar: Lslash
Encoding: 232 321 139
Width: 580
VWidth: 1200
HStem: -6 55<372 481> 7 36<96 131> 520 57<431 488>
Fore
532 574 m 1x60
 493 518 l 1
 456 520 446 520 431 520 c 0
 388 520 362 501 347 459 c 0
 337 429 316 348 303 291 c 1
 308 294 322 300 345 310 c 0
 392 330 396 332 474 372 c 1
 458 324 l 1
 399 298 l 2
 379 290 366 285 363 283 c 2
 326 265 l 2
 325 264 309 256 293 250 c 1
 270 145 258 122 206 75 c 1
 179 49 l 1
 372 49 l 2
 544 48 555 54 620 191 c 1
 631 172 l 1
 616 134 585 65 573 42 c 0
 555 5 533 -6 481 -6 c 0xa0
 455 -6 448 -6 284 2 c 0
 208 5 157 7 131 7 c 0
 106 7 81 6 33 4 c 1
 48 23 54 30 68 44 c 1
 79 43 91 43 99 43 c 0
 162 43 186 77 215 208 c 0
 216 211 218 222 220 231 c 1
 204 224 189 217 184 214 c 0
 162 205 147 198 142 196 c 0
 137 193 123 186 107 177 c 1
 118 194 120 197 128 209 c 0
 134 217 140 224 145 232 c 1
 158 237 166 240 169 242 c 2
 205 260 l 2
 209 261 217 265 229 270 c 1
 261 412 273 442 320 490 c 0
 360 530 408 564 435 571 c 0
 452 575 469 577 488 577 c 0
 502 577 512 576 532 574 c 1x60
EndSplineSet
EndChar
StartChar: Oslash
Encoding: 233 216 140
Width: 660
VWidth: 1200
HStem: -13 40<302 362> 552 39<458 522>
VStem: 134 82<182 222> 600 82<363 396>
DStem: 394 298 574 486 241 99 261 70 557 510 574 486 394 298 261 70 698 690 707 656 603 571 627 555
Fore
704 668 m 1
 707 656 l 1
 662 601 655 592 627 555 c 1
 666 515 682 470 682 396 c 0
 682 276 642 172 570 102 c 0
 494 29 395 -13 302 -13 c 0
 269 -13 249 -8 215 7 c 1
 182 -38 181 -40 121 -132 c 1
 115 -113 113 -106 110 -83 c 1
 135 -43 143 -32 187 26 c 1
 149 65 134 110 134 182 c 0
 134 309 179 419 260 489 c 0
 330 551 433 591 522 591 c 0
 552 591 575 585 603 571 c 1
 638 617 656 640 698 690 c 1
 701 679 l 1
 704 668 l 1
241 99 m 1
 298 174 306 184 394 298 c 0
 490 421 499 432 557 510 c 1
 532 538 499 552 458 552 c 0
 323 552 216 406 216 222 c 0
 216 171 224 130 241 99 c 1
574 486 m 1
 404 266 372 223 261 70 c 1
 287 42 322 27 362 27 c 0
 436 27 504 71 547 147 c 0
 579 204 600 290 600 366 c 0
 600 415 592 453 574 486 c 1
EndSplineSet
KernsSLIF: 65 -42 1 0
EndChar
StartChar: OE
Encoding: 234 338 141
Width: 820
VWidth: 1200
HStem: 3 35<572 649> 542 30<709 749> 555 33<452 475>
VStem: 104 87<158 185>
DStem: 559 511 639 539 445 57 581 306 559 511 571 269 445 57 515 43
Fore
854 205 m 1xd0
 870 177 l 1
 855 146 824 86 776 -3 c 1
 760 -2 749 -2 746 -2 c 2
 688 1 l 2
 668 2 609 3 583 3 c 0
 527 3 446 -1 370 -8 c 0
 333 -11 299 -13 277 -13 c 0
 169 -13 104 51 104 158 c 0
 104 267 157 393 237 477 c 0
 304 548 391 588 475 588 c 0xb0
 500 588 503 588 591 579 c 0
 624 576 698 572 720 572 c 2
 846 574 l 1
 861 560 865 546 865 519 c 1
 800 457 l 1
 794 523 780 542 738 542 c 0
 731 542 720 542 709 541 c 0
 691 540 687 540 639 539 c 1
 581 306 l 1
 755 306 l 1
 733 290 730 288 706 277 c 1
 684 276 l 2
 656 274 633 273 615 272 c 2
 597 271 l 2
 590 270 588 270 571 269 c 1
 515 43 l 1
 563 39 586 38 619 38 c 0
 733 38 755 54 854 205 c 1xd0
445 57 m 1
 559 511 l 1
 523 544 496 555 454 555 c 0
 379 555 316 515 267 437 c 0
 221 364 191 263 191 183 c 0
 191 82 245 21 334 21 c 0
 371 21 397 29 445 57 c 1
EndSplineSet
EndChar
StartChar: ordmasculine
Encoding: 235 186 142
Width: 260
VWidth: 1200
HStem: 253 35<107 268> 344 32<170 202> 546 32<244 273>
VStem: 122 47<399 422> 276 47<497 527>
Fore
273 578 m 0
 302 578 323 557 323 527 c 0
 323 489 305 435 283 405 c 0
 263 378 200 344 170 344 c 0
 141 344 122 366 122 399 c 0
 122 454 147 511 183 538 c 0
 216 562 251 578 273 578 c 0
244 546 m 0
 207 546 169 483 169 422 c 0
 169 394 182 376 202 376 c 0
 236 376 276 440 276 497 c 0
 276 527 264 546 244 546 c 0
98 253 m 1
 108 288 l 1
 280 288 l 1
 268 253 l 1
 98 253 l 1
EndSplineSet
EndChar
StartChar: ae
Encoding: 241 230 143
Width: 540
VWidth: 1200
Flags: W
HStem: -13 57<377 429> 364 47<286 328>
VStem: 87 77<67 125> 298 72<72 127> 508 72<326 350>
Fore
588 136 m 1
 588 103 l 1
 495 20 436 -13 377 -13 c 0
 330 -13 298 22 298 72 c 0
 298 81 298 86 299 95 c 1
 185 11 145 -13 122 -13 c 0
 103 -13 87 24 87 67 c 0
 87 132 112 230 143 287 c 0
 161 320 176 335 232 372 c 0
 274 400 300 411 328 411 c 0
 351 411 367 403 389 378 c 1
 392 383 395 388 398 392 c 0
 409 408 416 419 419 423 c 0
 420 425 425 432 430 438 c 1
 436 439 l 2
 438 440 439 440 440 440 c 0
 442 440 445 439 449 438 c 1
 446 430 442 423 441 420 c 0
 440 417 437 407 431 393 c 1
 422 368 l 1
 465 398 495 411 522 411 c 0
 561 411 580 390 580 350 c 0
 580 292 551 263 371 144 c 1
 370 137 370 131 370 127 c 0
 370 76 393 44 429 44 c 0
 468 44 510 68 588 136 c 1
286 119 m 2
 303 131 l 1
 318 209 329 249 352 311 c 1
 334 349 315 364 286 364 c 0
 249 364 219 331 193 262 c 0
 176 216 164 161 164 125 c 0
 164 85 173 64 190 64 c 0
 204 64 221 73 286 119 c 2
374 177 m 1
 449 229 456 235 472 250 c 0
 497 274 508 297 508 326 c 0
 508 353 497 369 480 369 c 0
 436 369 393 291 374 177 c 1
EndSplineSet
KernsSLIF: 121 -1 1 0 119 -17 1 0 118 -15 1 0
EndChar
StartChar: dotlessi
Encoding: 245 305 144
Width: 240
VWidth: 1200
HStem: -13 77<125 201> 329 82<154 241>
VStem: 101 82<27 92>
Fore
311 116 m 1
 304 88 l 1
 295 82 287 77 277 71 c 0
 258 58 239 46 220 34 c 0
 168 0 142 -13 125 -13 c 0
 111 -13 101 3 101 27 c 0
 101 52 101 52 148 227 c 0
 163 284 166 298 166 311 c 0
 166 323 162 329 154 329 c 0
 145 329 140 327 81 295 c 1
 83 323 l 1
 165 378 224 411 241 411 c 0
 248 411 253 407 253 401 c 0
 253 393 243 353 192 143 c 0
 186 121 183 102 183 92 c 0
 183 75 190 64 201 64 c 0
 214 64 216 65 311 116 c 1
EndSplineSet
EndChar
StartChar: lslash
Encoding: 248 322 145
Width: 300
VWidth: 1200
HStem: -13 21G<177 187> 626 52<399 445>
Fore
199 296 m 1
 191 293 l 2
 180 288 170 283 166 281 c 2
 122 260 l 2
 117 258 105 253 87 245 c 1
 102 263 106 268 125 296 c 1
 152 309 l 2
 163 314 175 319 187 325 c 0
 190 326 197 330 208 336 c 1
 218 379 l 2
 231 435 247 494 259 529 c 0
 271 566 280 577 326 619 c 0
 375 663 405 678 445 678 c 0
 460 678 470 677 491 672 c 1
 448 619 l 1
 424 624 413 626 399 626 c 0
 368 626 352 611 339 572 c 0
 319 508 297 428 280 358 c 1
 300 367 322 377 323 378 c 2
 372 399 l 1
 412 419 l 1
 395 377 l 1
 330 345 289 324 270 315 c 1
 263 283 257 258 252 238 c 0
 231 151 225 119 225 99 c 0
 225 78 232 64 243 64 c 0
 255 64 275 74 337 113 c 0
 341 115 352 122 364 129 c 1
 364 107 l 1
 336 86 270 39 223 6 c 0
 199 -10 192 -13 182 -13 c 0
 172 -13 164 -9 158 0 c 0
 150 14 144 32 144 47 c 0
 144 52 145 59 146 66 c 1
 199 296 l 1
EndSplineSet
EndChar
StartChar: oslash
Encoding: 249 248 146
Width: 440
VWidth: 1200
HStem: -14 46<184 233>
VStem: 96 72<89 124> 380 77<286 313>
DStem: 342 362 366 348 181 64 284 196 342 362 284 196 181 64 229 92 342 362 229 92 181 64 203 40 448 547 467 522 372 412 434 467
Fore
112 -148 m 1
 92 -112 l 1
 120 -59 121 -57 146 -7 c 1
 109 13 96 38 96 89 c 0
 96 152 116 221 150 278 c 0
 173 318 212 349 280 385 c 0
 318 405 338 411 372 412 c 1
 407 474 432 519 448 547 c 1
 467 522 l 1
 462 514 451 495 434 467 c 0
 422 447 410 427 399 407 c 1
 441 388 457 363 457 313 c 0
 457 255 438 188 403 125 c 0
 381 86 369 74 318 40 c 0
 258 0 223 -14 184 -14 c 2
 177 -14 l 1
 166 -36 l 1
 160 -50 153 -63 147 -76 c 0
 133 -108 128 -116 112 -148 c 1
181 64 m 1
 342 362 l 1
 332 365 326 366 320 366 c 0
 277 366 238 336 209 280 c 0
 184 232 168 171 168 124 c 0
 168 104 172 88 181 64 c 1
203 40 m 1
 215 34 223 32 233 32 c 0
 265 32 301 56 326 94 c 0
 358 145 380 222 380 286 c 0
 380 313 377 326 366 348 c 1
 350 319 323 269 284 196 c 0
 266 161 247 126 229 92 c 0
 223 80 214 63 203 40 c 1
EndSplineSet
EndChar
StartChar: oe
Encoding: 250 339 147
Width: 560
VWidth: 1200
HStem: -13 52<165 215> 391 20G<330.5 369 520 556>
VStem: 88 77<90 134> 518 77<329 354>
Fore
602 134 m 1
 602 103 l 1
 502 15 449 -13 387 -13 c 0
 345 -13 325 7 312 58 c 1
 245 5 208 -13 165 -13 c 0
 119 -13 88 28 88 90 c 0
 88 168 125 270 169 315 c 0
 213 360 310 411 351 411 c 0
 387 411 405 393 413 348 c 1
 467 394 501 411 539 411 c 0
 573 411 595 389 595 354 c 0
 595 312 574 278 527 241 c 0
 513 230 476 205 385 144 c 1
 384 120 l 1
 384 75 408 44 442 44 c 0
 480 44 511 60 583 119 c 2
 602 134 l 1
302 359 m 0
 237 359 165 241 165 134 c 0
 165 79 186 39 215 39 c 0
 256 39 298 83 320 149 c 0
 332 186 347 264 347 293 c 0
 347 336 331 359 302 359 c 0
387 176 m 1
 413 193 414 194 435 212 c 0
 502 266 518 289 518 329 c 0
 518 353 507 369 489 369 c 0
 470 369 445 344 426 306 c 0
 410 275 398 234 387 176 c 1
EndSplineSet
EndChar
StartChar: germandbls
Encoding: 251 223 148
Width: 420
VWidth: 1200
HStem: -248 57<-76 -19> -4 57<225 283> 638 42<390 438>
VStem: 293 72<300 338> 382 57<136 185> 440 66<578 611>
Fore
78 -54 m 1
 157 297 l 1
 157 328 148 345 123 361 c 1
 143 379 152 385 180 398 c 1
 198 481 215 523 248 568 c 0
 296 635 373 680 438 680 c 0
 477 680 506 650 506 611 c 0
 506 571 490 541 402 418 c 0
 374 379 365 359 365 338 c 0
 365 317 368 312 406 265 c 0
 428 239 439 211 439 185 c 0
 439 140 405 81 352 33 c 0
 323 6 288 -4 225 -4 c 0
 209 -4 198 -3 176 -1 c 1
 182 9 189 20 190 21 c 0
 194 28 199 35 204 42 c 0
 206 45 210 52 216 63 c 1
 240 56 259 53 283 53 c 0
 338 53 382 90 382 136 c 0
 382 161 371 182 343 213 c 0
 303 257 293 274 293 300 c 0
 293 320 298 330 324 362 c 0
 346 388 396 459 408 482 c 0
 430 520 440 552 440 578 c 0
 440 614 420 638 390 638 c 0
 350 638 311 604 286 547 c 0
 277 525 277 525 191 144 c 0
 145 -60 116 -127 49 -193 c 0
 9 -231 -29 -248 -76 -248 c 0
 -89 -248 -101 -247 -127 -243 c 1
 -123 -235 -119 -227 -118 -224 c 0
 -110 -210 -105 -201 -103 -197 c 0
 -99 -190 -95 -183 -91 -175 c 1
 -50 -188 -35 -191 -19 -191 c 0
 27 -191 57 -150 78 -54 c 1
EndSplineSet
EndChar
StartChar: Adieresis
Encoding: 256 196 149
Width: 620
VWidth: 1200
HStem: -13 240<353 505> 0 72<76 105> 186 41<322 433.669> 517 62<384 418>
VStem: 201 67<361 426>
DStem: 528 505 546 480 355 281 353 227
Fore
23 9 m 1x78
 61 79 l 1
 79 73 88 72 105 72 c 0x78
 151 72 181 86 221 125 c 0
 247 150 313 227 355 281 c 2
 528 505 l 1
 501 507 493 507 476 509 c 2
 461 510 l 1
 421 515 l 2
 407 516 395 517 384 517 c 0
 311 517 268 483 268 426 c 0
 268 403 273 380 289 333 c 1
 215 293 l 1
 204 322 201 338 201 361 c 0
 201 414 224 459 277 510 c 0
 324 556 372 579 418 579 c 0
 438 579 463 576 509 569 c 0
 550 562 554 562 566 562 c 0
 583 562 592 566 608 582 c 0
 611 586 615 590 619 594 c 1
 633 584 l 1
 602 428 562 144 562 81 c 0
 562 46 574 36 613 36 c 0
 628 36 633 36 664 39 c 0
 667 39 677 40 687 41 c 1
 671 17 l 1
 623 9 575 0 527 -9 c 0
 515 -12 505 -13 498 -13 c 0x98
 485 -13 475 -3 475 9 c 0
 475 19 477 35 480 52 c 0
 481 55 484 74 486 93 c 0
 489 114 492 133 494 146 c 0
 495 158 497 170 499 182 c 1
 460 185 401 186 322 186 c 1
 190 35 144 0 76 0 c 0
 58 0 46 2 23 9 c 1x78
353 227 m 1x98
 505 227 l 1
 546 480 l 1
 353 227 l 1x98
634 650 m 1
 612 681 604 697 596 720 c 1
 608 729 613 732 620 737 c 0
 624 740 634 748 651 762 c 0
 657 767 661 770 665 773 c 1
 675 748 676 745 679 739 c 0
 683 731 687 724 699 705 c 1
 674 686 672 684 667 680 c 0
 659 674 656 671 634 650 c 1
501 650 m 1
 479 683 471 697 463 720 c 1
 489 738 492 740 518 762 c 1
 523 765 527 769 532 773 c 1
 543 748 544 745 547 739 c 0
 551 731 555 724 566 705 c 1
 544 688 540 685 534 680 c 0
 526 673 519 667 501 650 c 1
EndSplineSet
KernsSLIF: 121 5 1 0 119 -18 1 0 118 -13 1 0 117 1 1 0 116 -12 1 0 39 -58 1 0 186 -53 1 0 113 11 1 0 46 6 1 0 111 8 1 0 45 -10 1 0 172 -9 1 0 171 -10 1 0 103 9 1 0 100 11 1 0 44 2 1 0 99 10 1 0 98 7 1 0 97 11 1 0 89 -3 1 0 87 -26 1 0 86 -26 1 0 85 -23 1 0 84 -14 1 0 81 -11 1 0 79 -11 1 0 71 -12 1 0 67 13 1 0
EndChar
StartChar: Aacute
Encoding: 257 193 150
Width: 620
VWidth: 1200
HStem: -13 240<353 505> 0 72<76 105> 186 41<322 433.669> 517 62<384 418>
VStem: 201 67<361 426>
DStem: 528 505 546 480 355 281 353 227
Fore
23 9 m 1x78
 61 79 l 1
 79 73 88 72 105 72 c 0x78
 151 72 181 86 221 125 c 0
 247 150 313 227 355 281 c 2
 528 505 l 1
 501 507 493 507 476 509 c 2
 461 510 l 1
 421 515 l 2
 407 516 395 517 384 517 c 0
 311 517 268 483 268 426 c 0
 268 403 273 380 289 333 c 1
 215 293 l 1
 204 322 201 338 201 361 c 0
 201 414 224 459 277 510 c 0
 324 556 372 579 418 579 c 0
 438 579 463 576 509 569 c 0
 550 562 554 562 566 562 c 0
 583 562 592 566 608 582 c 0
 611 586 615 590 619 594 c 1
 633 584 l 1
 602 428 562 144 562 81 c 0
 562 46 574 36 613 36 c 0
 628 36 633 36 664 39 c 0
 667 39 677 40 687 41 c 1
 671 17 l 1
 623 9 575 0 527 -9 c 0
 515 -12 505 -13 498 -13 c 0x98
 485 -13 475 -3 475 9 c 0
 475 19 477 35 480 52 c 0
 481 55 484 74 486 93 c 0
 489 114 492 133 494 146 c 0
 495 158 497 170 499 182 c 1
 460 185 401 186 322 186 c 1
 190 35 144 0 76 0 c 0
 58 0 46 2 23 9 c 1x78
353 227 m 1x98
 505 227 l 1
 546 480 l 1
 353 227 l 1x98
528 625 m 1
 504 632 l 1
 538 676 584 739 642 820 c 1
 687 799 l 1
 610 720 590 698 528 625 c 1
EndSplineSet
KernsSLIF: 121 5 1 0 119 -18 1 0 118 -13 1 0 117 1 1 0 116 -12 1 0 39 -58 1 0 113 11 1 0 46 6 1 0 111 8 1 0 45 -10 1 0 172 -9 1 0 171 -10 1 0 103 9 1 0 101 9 1 0 100 11 1 0 44 2 1 0 99 10 1 0 98 7 1 0 97 11 1 0 89 -3 1 0 87 -26 1 0 86 -27 1 0 85 -22 1 0 84 -14 1 0 81 -11 1 0 79 -10 1 0 71 -12 1 0 67 13 1 0
EndChar
StartChar: Agrave
Encoding: 258 192 151
Width: 620
VWidth: 1200
HStem: -13 240<353 505> 0 72<76 105> 186 41<322 433.669> 517 62<384 418>
VStem: 201 67<361 426>
DStem: 528 505 546 480 355 281 353 227
Fore
23 9 m 1x78
 61 79 l 1
 79 73 88 72 105 72 c 0x78
 151 72 181 86 221 125 c 0
 247 150 313 227 355 281 c 2
 528 505 l 1
 501 507 493 507 476 509 c 2
 461 510 l 1
 421 515 l 2
 407 516 395 517 384 517 c 0
 311 517 268 483 268 426 c 0
 268 403 273 380 289 333 c 1
 215 293 l 1
 204 322 201 338 201 361 c 0
 201 414 224 459 277 510 c 0
 324 556 372 579 418 579 c 0
 438 579 463 576 509 569 c 0
 550 562 554 562 566 562 c 0
 583 562 592 566 608 582 c 0
 611 586 615 590 619 594 c 1
 633 584 l 1
 602 428 562 144 562 81 c 0
 562 46 574 36 613 36 c 0
 628 36 633 36 664 39 c 0
 667 39 677 40 687 41 c 1
 671 17 l 1
 623 9 575 0 527 -9 c 0
 515 -12 505 -13 498 -13 c 0x98
 485 -13 475 -3 475 9 c 0
 475 19 477 35 480 52 c 0
 481 55 484 74 486 93 c 0
 489 114 492 133 494 146 c 0
 495 158 497 170 499 182 c 1
 460 185 401 186 322 186 c 1
 190 35 144 0 76 0 c 0
 58 0 46 2 23 9 c 1x78
353 227 m 1x98
 505 227 l 1
 546 480 l 1
 353 227 l 1x98
526 812 m 1
 542 820 l 1
 574 733 581 710 604 631 c 1
 592 628 589 627 579 625 c 1
 533 726 516 759 496 796 c 1
 509 803 l 1
 526 812 l 1
EndSplineSet
KernsSLIF: 46 6 1 0 44 2 1 0 89 -3 1 0 87 -26 1 0 86 -27 1 0 85 -22 1 0 84 -14 1 0 81 -11 1 0 79 -10 1 0 71 -12 1 0 67 13 1 0
EndChar
StartChar: Acircumflex
Encoding: 259 194 152
Width: 620
VWidth: 1200
HStem: -13 240<353 505> 0 72<76 105> 186 41<322 433.669> 517 62<384 418>
VStem: 201 67<361 426>
DStem: 528 505 546 480 355 281 353 227 604 759 652 734 615 695 660 645 615 695 652 734 621 648 660 645
Fore
23 9 m 1x78
 61 79 l 1
 79 73 88 72 105 72 c 0x78
 151 72 181 86 221 125 c 0
 247 150 313 227 355 281 c 2
 528 505 l 1
 501 507 493 507 476 509 c 2
 461 510 l 1
 421 515 l 2
 407 516 395 517 384 517 c 0
 311 517 268 483 268 426 c 0
 268 403 273 380 289 333 c 1
 215 293 l 1
 204 322 201 338 201 361 c 0
 201 414 224 459 277 510 c 0
 324 556 372 579 418 579 c 0
 438 579 463 576 509 569 c 0
 550 562 554 562 566 562 c 0
 583 562 592 566 608 582 c 0
 611 586 615 590 619 594 c 1
 633 584 l 1
 602 428 562 144 562 81 c 0
 562 46 574 36 613 36 c 0
 628 36 633 36 664 39 c 0
 667 39 677 40 687 41 c 1
 671 17 l 1
 623 9 575 0 527 -9 c 0
 515 -12 505 -13 498 -13 c 0x98
 485 -13 475 -3 475 9 c 0
 475 19 477 35 480 52 c 0
 481 55 484 74 486 93 c 0
 489 114 492 133 494 146 c 0
 495 158 497 170 499 182 c 1
 460 185 401 186 322 186 c 1
 190 35 144 0 76 0 c 0
 58 0 46 2 23 9 c 1x78
353 227 m 1x98
 505 227 l 1
 546 480 l 1
 353 227 l 1x98
449 634 m 1
 448 644 l 1
 448 645 447 649 446 653 c 1
 554 762 575 781 619 819 c 1
 627 820 631 821 633 821 c 0
 636 821 641 820 646 819 c 1
 650 766 651 745 652 734 c 2
 660 645 l 1
 647 639 643 636 624 625 c 1
 623 636 622 642 621 648 c 1
 615 695 l 1
 604 759 l 1
 571 733 556 721 531 699 c 0
 505 676 478 651 450 625 c 1
 449 634 l 1
EndSplineSet
KernsSLIF: 46 6 1 0 44 2 1 0 89 -3 1 0 87 -24 1 0 86 -25 1 0 85 -22 1 0 84 -14 1 0 81 -11 1 0 79 -10 1 0 71 -12 1 0 67 13 1 0
EndChar
StartChar: Abreve
Encoding: 260 258 153
Width: 620
VWidth: 1200
HStem: -13 240<353 505> 0 72<76 105> 186 41<322 433.669> 517 62<384 418> 650 54<544 568>
VStem: 201 67<361 426>
DStem: 528 505 546 480 355 281 353 227
Fore
23 9 m 1x7c
 61 79 l 1
 79 73 88 72 105 72 c 0x7c
 151 72 181 86 221 125 c 0
 247 150 313 227 355 281 c 2
 528 505 l 1
 501 507 493 507 476 509 c 2
 461 510 l 1
 421 515 l 2
 407 516 395 517 384 517 c 0
 311 517 268 483 268 426 c 0
 268 403 273 380 289 333 c 1
 215 293 l 1
 204 322 201 338 201 361 c 0
 201 414 224 459 277 510 c 0
 324 556 372 579 418 579 c 0
 438 579 463 576 509 569 c 0
 550 562 554 562 566 562 c 0
 583 562 592 566 608 582 c 0
 611 586 615 590 619 594 c 1
 633 584 l 1
 602 428 562 144 562 81 c 0
 562 46 574 36 613 36 c 0
 628 36 633 36 664 39 c 0
 667 39 677 40 687 41 c 1
 671 17 l 1
 623 9 575 0 527 -9 c 0
 515 -12 505 -13 498 -13 c 0x9c
 485 -13 475 -3 475 9 c 0
 475 19 477 35 480 52 c 0
 481 55 484 74 486 93 c 0
 489 114 492 133 494 146 c 0
 495 158 497 170 499 182 c 1
 460 185 401 186 322 186 c 1
 190 35 144 0 76 0 c 0
 58 0 46 2 23 9 c 1x7c
353 227 m 1x9c
 505 227 l 1
 546 480 l 1
 353 227 l 1x9c
407 771 m 5
 428 781 l 5
 462 725 499 704 564 704 c 4
 606 704 655 717 682 735 c 4
 702 748 712 759 725 784 c 5
 740 774 l 5
 715 701 639 650 553 650 c 4
 478 650 430 690 407 771 c 5
EndSplineSet
EndChar
StartChar: Atilde
Encoding: 261 195 154
Width: 620
VWidth: 1200
HStem: -13 240<353 505> 0 72<76 105> 186 41<322 433.669> 517 62<384 418> 665 50<646 657> 715 45<513 528>
VStem: 201 67<361 426>
DStem: 528 505 546 480 355 281 353 227
Fore
23 9 m 1x7e
 61 79 l 1
 79 73 88 72 105 72 c 0x7e
 151 72 181 86 221 125 c 0
 247 150 313 227 355 281 c 2
 528 505 l 1
 501 507 493 507 476 509 c 2
 461 510 l 1
 421 515 l 2
 407 516 395 517 384 517 c 0
 311 517 268 483 268 426 c 0
 268 403 273 380 289 333 c 1
 215 293 l 1
 204 322 201 338 201 361 c 0
 201 414 224 459 277 510 c 0
 324 556 372 579 418 579 c 0
 438 579 463 576 509 569 c 0
 550 562 554 562 566 562 c 0
 583 562 592 566 608 582 c 0
 611 586 615 590 619 594 c 1
 633 584 l 1
 602 428 562 144 562 81 c 0
 562 46 574 36 613 36 c 0
 628 36 633 36 664 39 c 0
 667 39 677 40 687 41 c 1
 671 17 l 1
 623 9 575 0 527 -9 c 0
 515 -12 505 -13 498 -13 c 0x9e
 485 -13 475 -3 475 9 c 0
 475 19 477 35 480 52 c 0
 481 55 484 74 486 93 c 0
 489 114 492 133 494 146 c 0
 495 158 497 170 499 182 c 1
 460 185 401 186 322 186 c 1
 190 35 144 0 76 0 c 0
 58 0 46 2 23 9 c 1x7e
353 227 m 1x9e
 505 227 l 1
 546 480 l 1
 353 227 l 1x9e
436 655 m 1
 423 673 l 1
 472 740 496 760 528 760 c 0
 549 760 558 757 596 735 c 0
 619 722 641 715 655 715 c 0
 678 715 702 727 729 752 c 1
 733 757 738 761 743 765 c 1
 753 748 l 1
 699 681 679 665 648 665 c 0
 625 665 613 670 563 698 c 0
 543 710 527 715 513 715 c 0
 488 715 473 703 436 655 c 1
EndSplineSet
KernsSLIF: 46 7 1 0 44 3 1 0 89 -2 1 0 87 -26 1 0 86 -26 1 0 85 -22 1 0 84 -13 1 0 81 -10 1 0 79 -10 1 0 71 -12 1 0 67 13 1 0
EndChar
StartChar: Aring
Encoding: 262 197 155
Width: 620
VWidth: 1200
HStem: -13 240<353 505> 0 72<76 105> 186 41<322 433.669> 517 62<384 418> 623 22<563 576> 780 22<594 610>
VStem: 201 67<361 426> 497 43<684 699> 631 47<727 742>
DStem: 528 505 546 480 355 281 353 227
Fore
23 9 m 1x7f80
 61 79 l 1
 79 73 88 72 105 72 c 0x7f80
 151 72 181 86 221 125 c 0
 247 150 313 227 355 281 c 2
 528 505 l 1
 501 507 493 507 476 509 c 2
 461 510 l 1
 421 515 l 2
 407 516 395 517 384 517 c 0
 311 517 268 483 268 426 c 0
 268 403 273 380 289 333 c 1
 215 293 l 1
 204 322 201 338 201 361 c 0
 201 414 224 459 277 510 c 0
 324 556 372 579 418 579 c 0
 438 579 463 576 509 569 c 0
 550 562 554 562 566 562 c 0
 583 562 592 566 608 582 c 0
 611 586 615 590 619 594 c 1
 633 584 l 1
 602 428 562 144 562 81 c 0
 562 46 574 36 613 36 c 0
 628 36 633 36 664 39 c 0
 667 39 677 40 687 41 c 1
 671 17 l 1
 623 9 575 0 527 -9 c 0
 515 -12 505 -13 498 -13 c 0x9f80
 485 -13 475 -3 475 9 c 0
 475 19 477 35 480 52 c 0
 481 55 484 74 486 93 c 0
 489 114 492 133 494 146 c 0
 495 158 497 170 499 182 c 1
 460 185 401 186 322 186 c 1
 190 35 144 0 76 0 c 0
 58 0 46 2 23 9 c 1x7f80
353 227 m 1x9f80
 505 227 l 1
 546 480 l 1
 353 227 l 1x9f80
610 802 m 0
 652 802 678 779 678 740 c 0
 678 677 625 623 563 623 c 0
 521 623 497 646 497 686 c 0
 497 753 545 802 610 802 c 0
596 780 m 0
 564 780 540 745 540 697 c 0
 540 667 554 645 574 645 c 0
 605 645 631 683 631 729 c 0
 631 761 618 780 596 780 c 0
EndSplineSet
KernsSLIF: 121 5 1 0 119 -18 1 0 118 -13 1 0 117 1 1 0 116 -12 1 0 39 -58 1 0 186 -52 1 0 113 11 1 0 46 6 1 0 111 8 1 0 45 -10 1 0 172 -9 1 0 171 -10 1 0 103 9 1 0 101 9 1 0 100 11 1 0 44 2 1 0 99 10 1 0 98 7 1 0 97 11 1 0 89 -3 1 0 87 -25 1 0 86 -25 1 0 85 -22 1 0 84 -14 1 0 81 -11 1 0 79 -10 1 0 71 -12 1 0 67 13 1 0
EndChar
StartChar: Aogonek
Encoding: 263 260 156
Width: 620
VWidth: 1200
HStem: -153 47<568 611> -13 240<353 505> 0 72<76 105> 186 41<322 433.669> 517 62<384 418>
VStem: 201 67<361 426> 515 57<-101 -71>
DStem: 528 505 546 480 355 281 353 227
Fore
660 -77 m 1xbe
 673 -82 l 1
 641 -130 607 -153 568 -153 c 0
 536 -153 515 -132 515 -101 c 0
 515 -63 537 -37 608 6 c 1
 600 5 592 3 585 2 c 0
 569 -1 561 -3 527 -9 c 0
 515 -12 505 -13 498 -13 c 0xce
 485 -13 475 -3 475 9 c 0
 475 19 477 35 480 52 c 0
 481 55 484 74 486 93 c 0
 489 114 492 133 494 146 c 0
 495 158 497 170 499 182 c 1
 460 185 401 186 322 186 c 1
 190 35 144 0 76 0 c 0
 58 0 46 2 23 9 c 1
 61 79 l 1
 79 73 88 72 105 72 c 0
 151 72 181 86 221 125 c 0
 247 150 313 227 355 281 c 2
 528 505 l 1
 501 507 493 507 476 509 c 2
 461 510 l 1
 421 515 l 2
 407 516 395 517 384 517 c 0
 311 517 268 483 268 426 c 0
 268 403 273 380 289 333 c 1
 215 293 l 1
 204 322 201 338 201 361 c 0
 201 414 224 459 277 510 c 0
 324 556 372 579 418 579 c 0
 438 579 463 576 509 569 c 0
 550 562 554 562 566 562 c 0
 583 562 592 566 608 582 c 0
 611 586 615 590 619 594 c 1
 633 584 l 1
 602 428 562 144 562 81 c 0
 562 46 574 36 613 36 c 0
 628 36 633 36 664 39 c 0
 667 39 677 40 687 41 c 1
 671 17 l 1
 646 10 641 7 619 -10 c 1
 587 -38 572 -57 572 -71 c 0
 572 -90 590 -106 611 -106 c 0
 626 -106 639 -99 660 -77 c 1xbe
353 227 m 1
 505 227 l 1
 546 480 l 1
 353 227 l 1
EndSplineSet
EndChar
StartChar: Ccedilla
Encoding: 264 199 157
Width: 520
VWidth: 1200
HStem: 544 47<465 518>
VStem: 88 82<92 129> 204 62<-184 -156>
DStem: 237 -73 276 -71 177 -145 242 -118
Fore
276 -71 m 1
 242 -118 l 1
 257 -123 266 -137 266 -156 c 0
 266 -203 214 -244 129 -266 c 1
 114 -252 l 1
 143 -244 154 -239 177 -221 c 0
 198 -204 204 -196 204 -184 c 0
 204 -170 198 -161 177 -145 c 1
 237 -73 l 1
 142 -70 88 -10 88 92 c 0
 88 222 145 355 242 452 c 0
 330 540 431 591 518 591 c 0
 590 591 626 560 635 491 c 1
 561 428 l 1
 555 507 525 544 465 544 c 0
 317 544 170 337 170 129 c 0
 170 34 220 -26 299 -26 c 0
 369 -26 437 0 529 63 c 1
 522 33 l 1
 459 -18 352 -63 276 -71 c 1
EndSplineSet
KernsSLIF: 65 9 1 0
EndChar
StartChar: Cacute
Encoding: 265 262 158
Width: 520
VWidth: 1200
HStem: -73 47<241 299> 544 47<465 518>
VStem: 88 82<92 129>
Fore
529 63 m 1
 522 33 l 1
 436 -32 327 -73 241 -73 c 0
 145 -73 88 -11 88 92 c 0
 88 222 145 355 242 452 c 0
 330 540 431 591 518 591 c 0
 590 591 626 560 635 491 c 1
 561 428 l 1
 555 507 525 544 465 544 c 0
 317 544 170 337 170 129 c 0
 170 34 220 -26 299 -26 c 0
 369 -26 437 0 529 63 c 1
462 625 m 1
 438 632 l 1
 472 676 518 739 576 820 c 1
 621 799 l 1
 544 720 524 698 462 625 c 1
EndSplineSet
EndChar
StartChar: Ccaron
Encoding: 266 268 159
Width: 520
VWidth: 1200
HStem: -73 47<241 299> 544 47<465 518>
VStem: 88 82<92 129>
Fore
529 63 m 1
 522 33 l 1
 436 -32 327 -73 241 -73 c 0
 145 -73 88 -11 88 92 c 0
 88 222 145 355 242 452 c 0
 330 540 431 591 518 591 c 0
 590 591 626 560 635 491 c 1
 561 428 l 1
 555 507 525 544 465 544 c 0
 317 544 170 337 170 129 c 0
 170 34 220 -26 299 -26 c 0
 369 -26 437 0 529 63 c 1
677 811 m 1
 678 802 l 1
 678 800 679 797 680 793 c 1
 579 691 553 666 507 627 c 1
 498 625 495 624 493 624 c 0
 490 624 485 625 480 627 c 1
 476 691 471 748 467 800 c 1
 502 821 l 1
 514 732 514 727 522 687 c 1
 578 731 584 737 647 794 c 1
 655 803 667 814 676 821 c 1
 677 811 l 1
EndSplineSet
EndChar
StartChar: Dcaron
Encoding: 267 270 160
Width: 700
VWidth: 1200
HStem: 0 45<213 383>
VStem: 86 82<311 347> 672 87<380 404>
DStem: 382 550 456 555 307 252 401 338
Fore
86 0 m 1
 134 46 l 1
 242 54 268 85 307 252 c 1
 382 550 l 1
 242 536 168 466 168 347 c 0
 168 329 169 317 175 291 c 1
 93 254 l 1
 87 280 86 292 86 311 c 0
 86 396 127 463 212 518 c 0
 265 552 317 570 399 584 c 1
 471 614 l 1
 464 586 l 1
 561 580 612 572 655 553 c 0
 723 523 759 471 759 402 c 0
 759 317 723 212 672 149 c 0
 633 101 551 49 471 22 c 0
 418 3 378 0 213 0 c 2
 86 0 l 1
456 555 m 1
 401 338 l 1
 356 157 356 157 240 49 c 1
 368 45 l 1
 383 45 l 2
 486 45 545 69 594 132 c 0
 639 189 672 296 672 382 c 0
 672 449 643 504 594 530 c 0
 563 546 529 552 456 555 c 1
667 811 m 1
 668 802 l 1
 668 800 669 797 670 793 c 1
 569 691 543 666 497 627 c 1
 488 625 485 624 483 624 c 0
 480 624 475 625 470 627 c 1
 466 691 461 748 457 800 c 1
 492 821 l 1
 504 732 504 727 512 687 c 1
 568 731 574 737 637 794 c 1
 645 803 657 814 666 821 c 1
 667 811 l 1
EndSplineSet
EndChar
StartChar: Edieresis
Encoding: 268 203 161
Width: 620
VWidth: 1200
HStem: -8 49<218 511> 276 31<362 476>
VStem: 76 77<368 418> 587 76<84 127>
DStem: 345 532 419 534 289 307 362 307
Fore
362 307 m 1
 541 307 l 1
 523 293 521 291 503 278 c 1
 491 277 480 277 476 276 c 0
 470 276 455 275 433 274 c 0
 409 272 403 272 352 269 c 1
 316 132 315 130 218 41 c 1
 478 41 l 2
 574 41 587 46 587 84 c 0
 587 93 586 101 583 122 c 1
 659 150 l 1
 662 140 663 132 663 127 c 0
 663 104 646 80 600 39 c 0
 555 -2 541 -8 489 -8 c 0
 446 -8 445 -8 324 -4 c 0
 301 -3 274 -2 244 -2 c 2
 154 -1 l 2
 147 -1 126 -1 98 0 c 1
 136 33 l 1
 218 53 229 70 267 224 c 0
 271 236 274 249 278 264 c 1
 250 264 l 1
 267 284 272 290 289 307 c 1
 345 532 l 1
 209 528 153 496 153 418 c 0
 153 393 157 367 166 335 c 1
 94 287 l 1
 80 322 76 342 76 368 c 0
 76 420 98 460 148 500 c 0
 205 545 266 564 362 565 c 1
 432 586 l 1
 426 565 l 1
 640 569 l 1
 657 563 665 552 668 530 c 1
 602 464 l 1
 575 530 568 537 529 537 c 0
 523 537 492 536 450 534 c 2
 419 534 l 1
 362 307 l 1
547 650 m 1
 525 681 517 697 509 720 c 1
 521 729 526 732 533 737 c 0
 537 740 547 748 564 762 c 0
 570 767 574 770 578 773 c 1
 588 748 589 745 592 739 c 0
 596 731 600 724 612 705 c 1
 587 686 585 684 580 680 c 0
 572 674 569 671 547 650 c 1
414 650 m 1
 392 683 384 697 376 720 c 1
 402 738 405 740 431 762 c 1
 436 765 440 769 445 773 c 1
 456 748 457 745 460 739 c 0
 464 731 468 724 479 705 c 1
 457 688 453 685 447 680 c 0
 439 673 432 667 414 650 c 1
EndSplineSet
EndChar
StartChar: Eacute
Encoding: 269 201 162
Width: 620
VWidth: 1200
HStem: -8 49<218 509> 276 31<362 476>
VStem: 76 77<368 418> 587 76<84 127>
DStem: 345 532 419 534 289 307 362 307
Fore
362 307 m 1
 541 307 l 1
 523 293 521 291 503 278 c 1
 491 277 480 277 476 276 c 0
 470 276 455 275 433 274 c 0
 409 272 403 272 352 269 c 1
 316 132 315 130 218 41 c 1
 478 41 l 2
 574 41 587 46 587 84 c 0
 587 93 586 101 583 122 c 1
 659 150 l 1
 662 140 663 132 663 127 c 0
 663 104 646 80 600 39 c 0
 555 -2 541 -8 489 -8 c 0
 446 -8 445 -8 324 -4 c 0
 301 -3 274 -2 244 -2 c 2
 154 -1 l 2
 147 -1 126 -1 98 0 c 1
 136 33 l 1
 218 53 229 70 267 224 c 0
 271 236 274 249 278 264 c 1
 250 264 l 1
 267 284 272 290 289 307 c 1
 345 532 l 1
 209 528 153 496 153 418 c 0
 153 393 157 367 166 335 c 1
 94 287 l 1
 80 322 76 342 76 368 c 0
 76 420 98 460 148 500 c 0
 205 545 266 564 362 565 c 1
 432 586 l 1
 426 565 l 1
 640 569 l 1
 657 563 665 552 668 530 c 1
 602 464 l 1
 575 530 568 537 529 537 c 0
 523 537 492 536 450 534 c 2
 419 534 l 1
 362 307 l 1
445 625 m 1
 421 632 l 1
 455 676 501 739 559 820 c 1
 604 799 l 1
 527 720 507 698 445 625 c 1
EndSplineSet
EndChar
StartChar: Egrave
Encoding: 270 200 163
Width: 620
VWidth: 1200
HStem: -8 49<218 513> 276 31<362 476>
VStem: 76 77<368 418> 587 76<84 127>
DStem: 345 532 419 534 289 307 362 307
Fore
362 307 m 1
 541 307 l 1
 523 293 521 291 503 278 c 1
 491 277 480 277 476 276 c 0
 470 276 455 275 433 274 c 0
 409 272 403 272 352 269 c 1
 316 132 315 130 218 41 c 1
 478 41 l 2
 574 41 587 46 587 84 c 0
 587 93 586 101 583 122 c 1
 659 150 l 1
 662 140 663 132 663 127 c 0
 663 104 646 80 600 39 c 0
 555 -2 541 -8 489 -8 c 0
 446 -8 445 -8 324 -4 c 0
 301 -3 274 -2 244 -2 c 2
 154 -1 l 2
 147 -1 126 -1 98 0 c 1
 136 33 l 1
 218 53 229 70 267 224 c 0
 271 236 274 249 278 264 c 1
 250 264 l 1
 267 284 272 290 289 307 c 1
 345 532 l 1
 209 528 153 496 153 418 c 0
 153 393 157 367 166 335 c 1
 94 287 l 1
 80 322 76 342 76 368 c 0
 76 420 98 460 148 500 c 0
 205 545 266 564 362 565 c 1
 432 586 l 1
 426 565 l 1
 640 569 l 1
 657 563 665 552 668 530 c 1
 602 464 l 1
 575 530 568 537 529 537 c 0
 523 537 492 536 450 534 c 2
 419 534 l 1
 362 307 l 1
433 812 m 1
 449 820 l 1
 481 733 488 710 511 631 c 1
 499 628 496 627 486 625 c 1
 440 726 423 759 403 796 c 1
 416 803 l 1
 433 812 l 1
EndSplineSet
EndChar
StartChar: Ecircumflex
Encoding: 271 202 164
Width: 620
VWidth: 1200
HStem: -8 49<218 509> 276 31<362 476>
VStem: 76 77<368 418> 587 76<84 127>
DStem: 345 532 419 534 289 307 362 307 521 759 569 734 532 695 577 645 532 695 569 734 538 648 577 645
Fore
362 307 m 1
 541 307 l 1
 523 293 521 291 503 278 c 1
 491 277 480 277 476 276 c 0
 470 276 455 275 433 274 c 0
 409 272 403 272 352 269 c 1
 316 132 315 130 218 41 c 1
 478 41 l 2
 574 41 587 46 587 84 c 0
 587 93 586 101 583 122 c 1
 659 150 l 1
 662 140 663 132 663 127 c 0
 663 104 646 80 600 39 c 0
 555 -2 541 -8 489 -8 c 0
 446 -8 445 -8 324 -4 c 0
 301 -3 274 -2 244 -2 c 2
 154 -1 l 2
 147 -1 126 -1 98 0 c 1
 136 33 l 1
 218 53 229 70 267 224 c 0
 271 236 274 249 278 264 c 1
 250 264 l 1
 267 284 272 290 289 307 c 1
 345 532 l 1
 209 528 153 496 153 418 c 0
 153 393 157 367 166 335 c 1
 94 287 l 1
 80 322 76 342 76 368 c 0
 76 420 98 460 148 500 c 0
 205 545 266 564 362 565 c 1
 432 586 l 1
 426 565 l 1
 640 569 l 1
 657 563 665 552 668 530 c 1
 602 464 l 1
 575 530 568 537 529 537 c 0
 523 537 492 536 450 534 c 2
 419 534 l 1
 362 307 l 1
366 634 m 1
 365 644 l 1
 365 645 364 649 363 653 c 1
 471 762 492 781 536 819 c 1
 544 820 548 821 550 821 c 0
 553 821 558 820 563 819 c 1
 567 766 568 745 569 734 c 2
 577 645 l 1
 564 639 560 636 541 625 c 1
 540 636 539 642 538 648 c 1
 532 695 l 1
 521 759 l 1
 488 733 473 721 448 699 c 0
 422 676 395 651 367 625 c 1
 366 634 l 1
EndSplineSet
EndChar
StartChar: Ecaron
Encoding: 272 282 165
Width: 620
VWidth: 1200
HStem: -8 49<218 509> 276 31<362 476>
VStem: 76 77<368 418> 587 76<84 127>
DStem: 345 532 419 534 289 307 362 307
Fore
362 307 m 1
 541 307 l 1
 523 293 521 291 503 278 c 1
 491 277 480 277 476 276 c 0
 470 276 455 275 433 274 c 0
 409 272 403 272 352 269 c 1
 316 132 315 130 218 41 c 1
 478 41 l 2
 574 41 587 46 587 84 c 0
 587 93 586 101 583 122 c 1
 659 150 l 1
 662 140 663 132 663 127 c 0
 663 104 646 80 600 39 c 0
 555 -2 541 -8 489 -8 c 0
 446 -8 445 -8 324 -4 c 0
 301 -3 274 -2 244 -2 c 2
 154 -1 l 2
 147 -1 126 -1 98 0 c 1
 136 33 l 1
 218 53 229 70 267 224 c 0
 271 236 274 249 278 264 c 1
 250 264 l 1
 267 284 272 290 289 307 c 1
 345 532 l 1
 209 528 153 496 153 418 c 0
 153 393 157 367 166 335 c 1
 94 287 l 1
 80 322 76 342 76 368 c 0
 76 420 98 460 148 500 c 0
 205 545 266 564 362 565 c 1
 432 586 l 1
 426 565 l 1
 640 569 l 1
 657 563 665 552 668 530 c 1
 602 464 l 1
 575 530 568 537 529 537 c 0
 523 537 492 536 450 534 c 2
 419 534 l 1
 362 307 l 1
627 811 m 1
 628 802 l 1
 628 800 629 797 630 793 c 1
 529 691 503 666 457 627 c 1
 448 625 445 624 443 624 c 0
 440 624 435 625 430 627 c 1
 426 691 421 748 417 800 c 1
 452 821 l 1
 464 732 464 727 472 687 c 1
 528 731 534 737 597 794 c 1
 605 803 617 814 626 821 c 1
 627 811 l 1
EndSplineSet
EndChar
StartChar: Edotaccent
Encoding: 273 278 166
Width: 620
VWidth: 1200
HStem: -8 49<218 509> 276 31<362 476>
VStem: 76 77<368 418> 587 76<84 127>
DStem: 345 532 419 534 289 307 362 307
Fore
362 307 m 1
 541 307 l 1
 523 293 521 291 503 278 c 1
 491 277 480 277 476 276 c 0
 470 276 455 275 433 274 c 0
 409 272 403 272 352 269 c 1
 316 132 315 130 218 41 c 1
 478 41 l 2
 574 41 587 46 587 84 c 0
 587 93 586 101 583 122 c 1
 659 150 l 1
 662 140 663 132 663 127 c 0
 663 104 646 80 600 39 c 0
 555 -2 541 -8 489 -8 c 0
 446 -8 445 -8 324 -4 c 0
 301 -3 274 -2 244 -2 c 2
 154 -1 l 2
 147 -1 126 -1 98 0 c 1
 136 33 l 1
 218 53 229 70 267 224 c 0
 271 236 274 249 278 264 c 1
 250 264 l 1
 267 284 272 290 289 307 c 1
 345 532 l 1
 209 528 153 496 153 418 c 0
 153 393 157 367 166 335 c 1
 94 287 l 1
 80 322 76 342 76 368 c 0
 76 420 98 460 148 500 c 0
 205 545 266 564 362 565 c 1
 432 586 l 1
 426 565 l 1
 640 569 l 1
 657 563 665 552 668 530 c 1
 602 464 l 1
 575 530 568 537 529 537 c 0
 523 537 492 536 450 534 c 2
 419 534 l 1
 362 307 l 1
487 650 m 1
 464 684 457 696 449 720 c 1
 475 738 477 739 504 762 c 0
 508 765 512 768 518 773 c 1
 520 769 522 764 523 760 c 0
 533 737 534 735 552 705 c 1
 529 687 526 684 520 680 c 0
 512 673 504 666 487 650 c 1
EndSplineSet
EndChar
StartChar: Eogonek
Encoding: 274 280 167
Width: 620
VWidth: 1200
HStem: -153 47<481 524> -8 49<218 500> 276 31<362 476>
VStem: 76 77<368 418> 428 57<-101 -71> 587 76<84 127>
DStem: 345 532 419 534 289 307 362 307
Fore
362 307 m 1
 541 307 l 1
 523 293 521 291 503 278 c 1
 491 277 480 277 476 276 c 0
 470 276 455 275 433 274 c 0
 409 272 403 272 352 269 c 1
 316 132 315 130 218 41 c 1
 478 41 l 2
 574 41 587 46 587 84 c 0
 587 93 586 101 583 122 c 1
 659 150 l 1
 662 140 663 132 663 127 c 0
 663 98 627 55 563 10 c 0
 505 -32 485 -52 485 -71 c 0
 485 -90 503 -106 524 -106 c 0
 540 -106 552 -99 573 -77 c 1
 586 -82 l 1
 554 -130 520 -153 481 -153 c 0
 449 -153 428 -132 428 -101 c 0
 428 -66 447 -41 500 -8 c 1
 475 -8 l 2
 448 -8 448 -8 325 -4 c 0
 303 -3 277 -2 244 -2 c 2
 154 -1 l 2
 147 -1 126 -1 98 0 c 1
 136 33 l 1
 218 53 229 70 267 224 c 0
 271 236 274 249 278 264 c 1
 250 264 l 1
 267 284 272 290 289 307 c 1
 345 532 l 1
 209 528 153 496 153 418 c 0
 153 393 157 367 166 335 c 1
 94 287 l 1
 80 322 76 342 76 368 c 0
 76 420 98 460 148 500 c 0
 205 545 266 564 362 565 c 1
 432 586 l 1
 426 565 l 1
 640 569 l 1
 657 563 665 552 668 530 c 1
 602 464 l 1
 575 530 568 537 529 537 c 0
 523 537 492 536 450 534 c 2
 419 534 l 1
 362 307 l 1
EndSplineSet
EndChar
StartChar: Gbreve
Encoding: 275 286 168
Width: 620
VWidth: 1200
HStem: -236 62<239 317> -12 41<257 325> 240 33<424 509> 555 36<477 538> 650 54<471 503>
VStem: 118 87<145 178>
DStem: 509 240 582 240 473 96 543 84
Fore
582 240 m 1
 543 84 l 2
 514 -32 496 -74 453 -123 c 0
 387 -200 319 -236 239 -236 c 0
 219 -236 203 -235 167 -231 c 1
 209 -165 l 1
 239 -170 288 -174 317 -174 c 0
 370 -174 399 -152 419 -98 c 0
 428 -76 446 -11 461 49 c 1
 372 4 319 -12 257 -12 c 0
 171 -12 118 48 118 145 c 0
 118 250 169 373 250 460 c 0
 330 546 429 591 538 591 c 0
 614 591 651 569 670 512 c 1
 596 429 l 1
 590 471 585 488 572 508 c 0
 553 538 518 555 477 555 c 0
 337 555 205 373 205 178 c 0
 205 87 251 29 325 29 c 0
 371 29 431 56 473 96 c 1
 509 240 l 1
 462 239 413 237 363 234 c 1
 363 242 l 1
 424 273 l 1
 517 273 609 271 649 268 c 1
 603 240 l 1
 582 240 l 1
336 771 m 1
 357 781 l 1
 391 725 428 704 493 704 c 0
 535 704 584 717 611 735 c 0
 631 748 641 759 654 784 c 1
 669 774 l 1
 644 701 568 650 482 650 c 0
 407 650 359 690 336 771 c 1
EndSplineSet
EndChar
StartChar: Idieresis
Encoding: 276 207 169
Width: 380
VWidth: 1200
HStem: 553 20G<447 481>
Fore
81 0 m 5
 117 25 l 5
 176 32 l 5
 183 56 189 79 191 85 c 4
 196 102 207 146 270 393 c 0
 277 420 284 447 291 475 c 0
 292 480 298 505 306 542 c 1
 216 548 l 1
 251 573 l 1
 308 572 312 572 328 572 c 0
 345 572 345 572 447 573 c 2
 481 573 l 1
 446 548 l 1
 388 542 l 1
 341 370 278 120 259 32 c 5
 352 25 l 5
 316 0 l 5
 160 1 l 6
 146 1 146 1 81 0 c 5
416 650 m 1
 394 681 386 697 378 720 c 1
 390 729 395 732 402 737 c 0
 406 740 416 748 433 762 c 0
 439 767 443 770 447 773 c 1
 457 748 458 745 461 739 c 0
 465 731 469 724 481 705 c 1
 456 686 454 684 449 680 c 0
 441 674 438 671 416 650 c 1
283 650 m 1
 261 683 253 697 245 720 c 1
 271 738 274 740 300 762 c 1
 305 765 309 769 314 773 c 1
 325 748 326 745 329 739 c 0
 333 731 337 724 348 705 c 1
 326 688 322 685 316 680 c 0
 308 673 301 667 283 650 c 1
EndSplineSet
EndChar
StartChar: Iacute
Encoding: 277 205 170
Width: 380
VWidth: 1200
HStem: 553 20G<447 481>
Fore
81 0 m 1
 117 25 l 1
 176 32 l 1
 183 56 189 79 191 85 c 0
 196 102 207 146 270 393 c 0
 277 420 284 447 291 475 c 0
 292 480 298 505 306 542 c 1
 216 548 l 1
 251 573 l 1
 308 572 312 572 328 572 c 0
 345 572 345 572 447 573 c 2
 481 573 l 1
 446 548 l 1
 388 542 l 1
 341 370 278 120 259 32 c 1
 352 25 l 1
 316 0 l 1
 160 1 l 2
 146 1 146 1 81 0 c 1
312 625 m 1
 288 632 l 1
 322 676 368 739 426 820 c 1
 471 799 l 1
 394 720 374 698 312 625 c 1
EndSplineSet
EndChar
StartChar: Igrave
Encoding: 278 204 171
Width: 380
VWidth: 1200
HStem: 553 20G<447 481>
Fore
81 0 m 1
 117 25 l 1
 176 32 l 1
 183 56 189 79 191 85 c 0
 196 102 207 146 270 393 c 0
 277 420 284 447 291 475 c 0
 292 480 298 505 306 542 c 1
 216 548 l 1
 251 573 l 1
 308 572 312 572 328 572 c 0
 345 572 345 572 447 573 c 2
 481 573 l 1
 446 548 l 1
 388 542 l 1
 341 370 278 120 259 32 c 1
 352 25 l 1
 316 0 l 1
 160 1 l 2
 146 1 146 1 81 0 c 1
334 812 m 1
 350 820 l 1
 382 733 389 710 412 631 c 1
 400 628 397 627 387 625 c 1
 341 726 324 759 304 796 c 1
 317 803 l 1
 334 812 l 1
EndSplineSet
EndChar
StartChar: Icircumflex
Encoding: 279 206 172
Width: 380
VWidth: 1200
HStem: 553 20G<447 481>
DStem: 431 759 479 734 442 695 487 645 442 695 479 734 448 648 487 645
Fore
81 0 m 1
 117 25 l 1
 176 32 l 1
 183 56 189 79 191 85 c 0
 196 102 207 146 270 393 c 0
 277 420 284 447 291 475 c 0
 292 480 298 505 306 542 c 1
 216 548 l 1
 251 573 l 1
 308 572 312 572 328 572 c 0
 345 572 345 572 447 573 c 2
 481 573 l 1
 446 548 l 1
 388 542 l 1
 341 370 278 120 259 32 c 1
 352 25 l 1
 316 0 l 1
 160 1 l 2
 146 1 146 1 81 0 c 1
276 634 m 1
 275 644 l 1
 275 645 274 649 273 653 c 1
 381 762 402 781 446 819 c 1
 454 820 458 821 460 821 c 0
 463 821 468 820 473 819 c 1
 477 766 478 745 479 734 c 2
 487 645 l 1
 474 639 470 636 451 625 c 1
 450 636 449 642 448 648 c 1
 442 695 l 1
 431 759 l 1
 398 733 383 721 358 699 c 0
 332 676 305 651 277 625 c 1
 276 634 l 1
EndSplineSet
EndChar
StartChar: Idotaccent
Encoding: 280 304 173
Width: 380
VWidth: 1200
HStem: 553 20G<447 481>
Fore
81 0 m 1
 117 25 l 1
 176 32 l 1
 183 56 189 79 191 85 c 0
 196 102 207 146 270 393 c 0
 277 420 284 447 291 475 c 0
 292 480 298 505 306 542 c 1
 216 548 l 1
 251 573 l 1
 308 572 312 572 328 572 c 0
 345 572 345 572 447 573 c 2
 481 573 l 1
 446 548 l 1
 388 542 l 1
 341 370 278 120 259 32 c 1
 352 25 l 1
 316 0 l 1
 160 1 l 2
 146 1 146 1 81 0 c 1
367 650 m 1
 344 684 337 696 329 720 c 1
 355 738 357 739 384 762 c 0
 388 765 392 768 398 773 c 1
 400 769 402 764 403 760 c 0
 413 737 414 735 432 705 c 1
 409 687 406 684 400 680 c 0
 392 673 384 666 367 650 c 1
EndSplineSet
EndChar
StartChar: Lacute
Encoding: 281 313 174
Width: 580
VWidth: 1200
HStem: -6 55<372 481> 7 36<96 131> 520 57<434 488>
Fore
532 574 m 1x60
 493 518 l 1
 456 520 447 520 434 520 c 0
 392 520 366 501 351 459 c 0
 338 420 324 365 295 241 c 0
 270 137 263 124 210 75 c 2
 183 49 l 1
 372 49 l 2
 544 48 555 54 620 191 c 1
 631 172 l 1
 616 134 585 65 573 42 c 0
 555 5 533 -6 481 -6 c 0xa0
 455 -6 448 -6 284 2 c 0
 208 5 157 7 131 7 c 0
 106 7 81 6 33 4 c 1
 48 23 54 30 68 44 c 1
 79 43 91 43 99 43 c 0
 162 43 188 80 215 208 c 0
 254 394 271 440 320 490 c 0
 360 530 408 564 435 571 c 0
 452 575 469 577 488 577 c 0
 502 577 512 576 532 574 c 1x60
452 625 m 1
 428 632 l 1
 462 676 508 739 566 820 c 1
 611 799 l 1
 534 720 514 698 452 625 c 1
EndSplineSet
EndChar
StartChar: Lcaron
Encoding: 282 317 175
Width: 580
VWidth: 1200
HStem: -6 55<372 481> 7 36<96 131> 520 57<434 488>
VStem: 638 62<511 549>
Fore
532 574 m 1x70
 493 518 l 1
 456 520 447 520 434 520 c 0
 392 520 366 501 351 459 c 0
 338 420 324 365 295 241 c 0
 270 137 263 124 210 75 c 2
 183 49 l 1
 372 49 l 2
 544 48 555 54 620 191 c 1
 631 172 l 1
 616 134 585 65 573 42 c 0
 555 5 533 -6 481 -6 c 0xb0
 455 -6 448 -6 284 2 c 0
 208 5 157 7 131 7 c 0
 106 7 81 6 33 4 c 1
 48 23 54 30 68 44 c 1
 79 43 91 43 99 43 c 0
 162 43 188 80 215 208 c 0
 254 394 271 440 320 490 c 0
 360 530 408 564 435 571 c 0
 452 575 469 577 488 577 c 0
 502 577 512 576 532 574 c 1x70
601 381 m 1
 573 389 l 1
 627 458 638 478 638 511 c 0
 638 520 636 529 630 556 c 1
 670 578 672 579 693 591 c 1
 699 568 700 559 700 549 c 0
 700 527 689 499 664 460 c 0
 652 443 651 441 601 381 c 1
EndSplineSet
EndChar
StartChar: Nacute
Encoding: 283 323 176
Width: 700
VWidth: 1200
HStem: -163 27<775 793> -3 68<95 150> 501 67<287 329> 610 67<851 884>
VStem: 87 62<352 412>
Fore
40 0 m 1
 88 69 l 1
 116 66 131 65 150 65 c 0
 203 65 225 76 246 113 c 0
 279 172 317 298 364 499 c 1
 326 501 308 501 287 501 c 0
 242 501 218 497 194 484 c 0
 166 469 149 442 149 412 c 0
 149 387 156 364 181 311 c 1
 112 264 l 1
 94 301 87 327 87 352 c 0
 87 407 131 479 195 529 c 0
 231 557 267 568 327 568 c 0
 345 568 358 567 382 565 c 1
 416 596 l 1
 522 200 535 161 583 65 c 1
 592 96 597 117 598 122 c 0
 609 170 620 217 630 264 c 0
 679 480 697 531 745 587 c 0
 797 648 842 677 884 677 c 0
 892 677 903 676 915 675 c 1
 878 608 l 1
 864 610 858 610 851 610 c 0
 805 610 781 594 760 552 c 0
 728 486 706 414 663 240 c 0
 638 135 629 96 612 10 c 1
 663 -87 721 -136 784 -136 c 0
 809 -136 834 -123 852 -101 c 0
 865 -86 872 -72 886 -39 c 1
 910 -128 l 1
 865 -154 829 -163 778 -163 c 0
 660 -163 572 -102 511 22 c 0
 477 90 453 163 424 287 c 0
 413 333 412 335 387 442 c 1
 344 269 338 247 322 204 c 0
 290 120 240 48 191 19 c 0
 165 3 138 -3 95 -3 c 0
 81 -3 67 -2 40 0 c 1
572 625 m 1
 548 632 l 1
 582 676 628 739 686 820 c 1
 731 799 l 1
 654 720 634 698 572 625 c 1
EndSplineSet
EndChar
StartChar: Ncaron
Encoding: 284 327 177
Width: 700
VWidth: 1200
HStem: -163 27<768 793> -3 68<95 150> 501 67<287 329> 610 67<851 884>
VStem: 87 62<352 412>
Fore
40 0 m 1
 88 69 l 1
 116 66 131 65 150 65 c 0
 203 65 225 76 246 113 c 0
 279 172 317 298 364 499 c 1
 326 501 308 501 287 501 c 0
 242 501 218 497 194 484 c 0
 166 469 149 442 149 412 c 0
 149 387 156 364 181 311 c 1
 112 264 l 1
 94 301 87 327 87 352 c 0
 87 407 131 479 195 529 c 0
 231 557 267 568 327 568 c 0
 345 568 358 567 382 565 c 1
 416 596 l 1
 522 200 535 161 583 65 c 1
 592 96 597 117 598 122 c 0
 609 170 620 217 630 264 c 0
 679 480 697 531 745 587 c 0
 797 648 842 677 884 677 c 0
 892 677 903 676 915 675 c 1
 878 608 l 1
 864 610 858 610 851 610 c 0
 805 610 781 594 760 552 c 0
 728 486 706 414 663 240 c 0
 638 135 629 96 612 10 c 1
 663 -87 721 -136 784 -136 c 0
 809 -136 834 -123 852 -101 c 0
 865 -86 872 -72 886 -39 c 1
 910 -128 l 1
 865 -154 829 -163 778 -163 c 0
 660 -163 572 -102 511 22 c 0
 477 90 453 163 424 287 c 0
 413 333 412 335 387 442 c 1
 344 269 338 247 322 204 c 0
 290 120 240 48 191 19 c 0
 165 3 138 -3 95 -3 c 0
 81 -3 67 -2 40 0 c 1
767 811 m 1
 768 802 l 1
 768 800 769 797 770 793 c 1
 669 691 643 666 597 627 c 1
 588 625 585 624 583 624 c 0
 580 624 575 625 570 627 c 1
 566 691 561 748 557 800 c 1
 592 821 l 1
 604 732 604 727 612 687 c 1
 668 731 674 737 737 794 c 1
 745 803 757 814 766 821 c 1
 767 811 l 1
EndSplineSet
EndChar
StartChar: Ntilde
Encoding: 285 209 178
Width: 700
VWidth: 1200
HStem: -163 27<771 793> -3 68<95 150> 501 67<287 329> 665 50<676 687> 715 45<543 558>
VStem: 87 62<352 412>
Fore
40 0 m 1
 88 69 l 1
 116 66 131 65 150 65 c 0
 203 65 225 76 246 113 c 0
 279 172 317 298 364 499 c 1
 326 501 308 501 287 501 c 0
 242 501 218 497 194 484 c 0
 166 469 149 442 149 412 c 0
 149 387 156 364 181 311 c 1
 112 264 l 1
 94 301 87 327 87 352 c 0
 87 407 131 479 195 529 c 0
 231 557 267 568 327 568 c 0
 345 568 358 567 382 565 c 1
 416 596 l 1
 522 200 535 161 583 65 c 1
 592 96 597 117 598 122 c 0
 609 170 620 217 630 264 c 0
 679 480 697 531 745 587 c 0
 797 648 842 677 884 677 c 0
 892 677 903 676 915 675 c 1
 878 608 l 1
 864 610 858 610 851 610 c 0
 805 610 781 594 760 552 c 0
 728 486 706 414 663 240 c 0
 638 135 629 96 612 10 c 1
 663 -87 721 -136 784 -136 c 0
 809 -136 834 -123 852 -101 c 0
 865 -86 872 -72 886 -39 c 1
 910 -128 l 1
 865 -154 829 -163 778 -163 c 0
 660 -163 572 -102 511 22 c 0
 477 90 453 163 424 287 c 0
 413 333 412 335 387 442 c 1
 344 269 338 247 322 204 c 0
 290 120 240 48 191 19 c 0
 165 3 138 -3 95 -3 c 0
 81 -3 67 -2 40 0 c 1
466 655 m 1
 453 673 l 1
 502 740 526 760 558 760 c 0
 579 760 588 757 626 735 c 0
 649 722 671 715 685 715 c 0
 708 715 732 727 759 752 c 1
 763 757 768 761 773 765 c 1
 783 748 l 1
 729 681 709 665 678 665 c 0
 655 665 643 670 593 698 c 0
 573 710 557 715 543 715 c 0
 518 715 503 703 466 655 c 1
EndSplineSet
EndChar
StartChar: Odieresis
Encoding: 286 214 179
Width: 600
VWidth: 1200
HStem: -13 40<274 332> 552 39<429 487>
VStem: 104 82<183 222> 570 82<364 396>
Fore
487 591 m 0
 594 591 652 522 652 396 c 0
 652 276 612 172 540 102 c 0
 465 30 365 -13 274 -13 c 0
 163 -13 104 55 104 183 c 0
 104 309 149 420 229 490 c 0
 298 549 404 591 487 591 c 0
429 552 m 0
 293 552 186 407 186 222 c 0
 186 99 240 27 332 27 c 0
 406 27 474 71 517 147 c 0
 549 204 570 290 570 366 c 0
 570 482 518 552 429 552 c 0
537 650 m 1
 515 681 507 697 499 720 c 1
 511 729 516 732 523 737 c 0
 527 740 537 748 554 762 c 0
 560 767 564 770 568 773 c 1
 578 748 579 745 582 739 c 0
 586 731 590 724 602 705 c 1
 577 686 575 684 570 680 c 0
 562 674 559 671 537 650 c 1
404 650 m 1
 382 683 374 697 366 720 c 1
 392 738 395 740 421 762 c 1
 426 765 430 769 435 773 c 1
 446 748 447 745 450 739 c 0
 454 731 458 724 469 705 c 1
 447 688 443 685 437 680 c 0
 429 673 422 667 404 650 c 1
EndSplineSet
KernsSLIF: 89 16 1 0 88 -21 1 0 84 23 1 0 65 -28 1 0
EndChar
StartChar: Oacute
Encoding: 287 211 180
Width: 600
VWidth: 1200
HStem: -13 40<274 332> 552 39<429 487>
VStem: 104 82<183 222> 570 82<364 396>
Fore
487 591 m 0
 594 591 652 522 652 396 c 0
 652 276 612 172 540 102 c 0
 465 30 365 -13 274 -13 c 0
 163 -13 104 55 104 183 c 0
 104 309 149 420 229 490 c 0
 298 549 404 591 487 591 c 0
429 552 m 0
 293 552 186 407 186 222 c 0
 186 99 240 27 332 27 c 0
 406 27 474 71 517 147 c 0
 549 204 570 290 570 366 c 0
 570 482 518 552 429 552 c 0
433 625 m 1
 409 632 l 1
 443 676 489 739 547 820 c 1
 592 799 l 1
 515 720 495 698 433 625 c 1
EndSplineSet
KernsSLIF: 89 16 1 0 84 23 1 0 65 -28 1 0
EndChar
StartChar: Ograve
Encoding: 288 210 181
Width: 600
VWidth: 1200
HStem: -13 40<274 332> 552 39<429 487>
VStem: 104 82<183 222> 570 82<364 396>
Fore
487 591 m 0
 594 591 652 522 652 396 c 0
 652 276 612 172 540 102 c 0
 465 30 365 -13 274 -13 c 0
 163 -13 104 55 104 183 c 0
 104 309 149 420 229 490 c 0
 298 549 404 591 487 591 c 0
429 552 m 0
 293 552 186 407 186 222 c 0
 186 99 240 27 332 27 c 0
 406 27 474 71 517 147 c 0
 549 204 570 290 570 366 c 0
 570 482 518 552 429 552 c 0
426 812 m 1
 442 820 l 1
 474 733 481 710 504 631 c 1
 492 628 489 627 479 625 c 1
 433 726 416 759 396 796 c 1
 409 803 l 1
 426 812 l 1
EndSplineSet
KernsSLIF: 89 16 1 0 84 23 1 0
EndChar
StartChar: Ocircumflex
Encoding: 289 212 182
Width: 600
VWidth: 1200
HStem: -13 40<274 332> 552 39<429 487>
VStem: 104 82<183 222> 570 82<364 396>
DStem: 517 759 565 734 528 695 573 645 528 695 565 734 534 648 573 645
Fore
487 591 m 0
 594 591 652 522 652 396 c 0
 652 276 612 172 540 102 c 0
 465 30 365 -13 274 -13 c 0
 163 -13 104 55 104 183 c 0
 104 309 149 420 229 490 c 0
 298 549 404 591 487 591 c 0
429 552 m 0
 293 552 186 407 186 222 c 0
 186 99 240 27 332 27 c 0
 406 27 474 71 517 147 c 0
 549 204 570 290 570 366 c 0
 570 482 518 552 429 552 c 0
362 634 m 1
 361 644 l 1
 361 645 360 649 359 653 c 1
 467 762 488 781 532 819 c 1
 540 820 544 821 546 821 c 0
 549 821 554 820 559 819 c 1
 563 766 564 745 565 734 c 2
 573 645 l 1
 560 639 556 636 537 625 c 1
 536 636 535 642 534 648 c 1
 528 695 l 1
 517 759 l 1
 484 733 469 721 444 699 c 0
 418 676 391 651 363 625 c 1
 362 634 l 1
EndSplineSet
KernsSLIF: 89 16 1 0 84 23 1 0
EndChar
StartChar: Otilde
Encoding: 290 213 183
Width: 600
VWidth: 1200
HStem: -13 40<274 332> 552 39<429 487> 665 50<569 585> 715 45<438 453>
VStem: 104 82<183 222> 570 82<364 396>
Fore
487 591 m 0
 594 591 652 522 652 396 c 0
 652 276 612 172 540 102 c 0
 465 30 365 -13 274 -13 c 0
 163 -13 104 55 104 183 c 0
 104 309 149 420 229 490 c 0
 298 549 404 591 487 591 c 0
429 552 m 0
 293 552 186 407 186 222 c 0
 186 99 240 27 332 27 c 0
 406 27 474 71 517 147 c 0
 549 204 570 290 570 366 c 0
 570 482 518 552 429 552 c 0
361 655 m 1
 348 673 l 1
 397 740 421 760 453 760 c 0
 474 760 483 757 521 735 c 0
 544 722 566 715 580 715 c 0
 603 715 627 727 654 752 c 1
 658 757 663 761 668 765 c 1
 678 748 l 1
 624 681 604 665 573 665 c 0
 550 665 538 670 488 698 c 0
 468 710 452 715 438 715 c 0
 413 715 398 703 361 655 c 1
EndSplineSet
KernsSLIF: 89 17 1 0 84 23 1 0
EndChar
StartChar: Ohungarumlaut
Encoding: 291 336 184
Width: 600
VWidth: 1200
HStem: -13 40<274 332> 552 39<429 487>
VStem: 104 82<183 222> 570 82<364 396>
DStem: 489 666 510 654 462 629 484 625
Fore
487 591 m 0
 594 591 652 522 652 396 c 0
 652 276 612 172 540 102 c 0
 465 30 365 -13 274 -13 c 0
 163 -13 104 55 104 183 c 0
 104 309 149 420 229 490 c 0
 298 549 404 591 487 591 c 0
429 552 m 0
 293 552 186 407 186 222 c 0
 186 99 240 27 332 27 c 0
 406 27 474 71 517 147 c 0
 549 204 570 290 570 366 c 0
 570 482 518 552 429 552 c 0
462 629 m 1
 489 666 l 1
 540 732 l 1
 605 820 l 1
 630 809 631 808 646 801 c 1
 619 773 607 761 587 739 c 0
 578 730 564 714 544 691 c 1
 532 679 521 666 510 654 c 0
 501 644 492 634 484 625 c 1
 472 627 470 627 462 629 c 1
512 820 m 1
 539 807 l 2
 540 806 546 803 550 801 c 1
 523 773 512 761 491 739 c 0
 479 725 450 693 414 654 c 0
 406 644 397 634 388 625 c 1
 380 626 379 626 366 629 c 1
 380 648 390 661 394 666 c 2
 445 732 l 2
 451 739 461 752 512 820 c 1
EndSplineSet
EndChar
StartChar: Racute
Encoding: 292 340 185
Width: 600
VWidth: 1200
HStem: -156 32<666.513 683> 0 45<77 119> 551 30<455 491>
VStem: 99 87<347 384> 545 87<471 487>
DStem: 326 437 426 551 276 239 368 317
Fore
38 1 m 1
 77 45 l 1
 207 44 234 70 276 239 c 0
 292 305 309 371 326 437 c 0
 333 468 339 491 343 507 c 2
 352 543 l 1
 288 535 260 524 232 499 c 0
 201 470 186 432 186 384 c 0
 186 361 189 344 197 310 c 1
 113 267 l 1
 102 304 99 321 99 347 c 0
 99 464 186 540 350 568 c 1
 441 611 l 1
 433 579 l 1
 454 580 479 581 491 581 c 0
 582 581 632 547 632 485 c 0
 632 437 605 391 558 359 c 0
 527 339 504 328 447 310 c 1
 488 180 519 87 545 25 c 0
 586 -74 631 -124 678 -124 c 0
 717 -124 745 -101 777 -42 c 1
 826 -103 l 1
 770 -144 736 -156 680 -156 c 0
 601 -156 542 -125 499 -61 c 0
 458 0 425 95 387 262 c 0
 381 287 375 296 364 295 c 2
 364 295 363 295 362 294 c 0
 330 167 324 158 211 45 c 1
 297 43 306 43 343 42 c 1
 269 4 l 1
 239 2 149 0 97 0 c 0
 91 0 91 0 38 1 c 1
426 551 m 1
 368 317 l 1
 422 324 446 331 476 349 c 0
 518 375 545 423 545 473 c 0
 545 528 519 551 457 551 c 2
 426 551 l 1
422 625 m 1
 398 632 l 1
 432 676 478 739 536 820 c 1
 581 799 l 1
 504 720 484 698 422 625 c 1
EndSplineSet
EndChar
StartChar: Rcaron
Encoding: 293 344 186
Width: 600
VWidth: 1200
HStem: -156 32<666.513 683> 0 45<77 119> 551 30<455 491>
VStem: 99 87<347 384> 545 87<471 487>
DStem: 326 437 426 551 276 239 368 317
Fore
38 1 m 1
 77 45 l 1
 207 44 234 70 276 239 c 0
 292 305 309 371 326 437 c 0
 333 468 339 491 343 507 c 2
 352 543 l 1
 288 535 260 524 232 499 c 0
 201 470 186 432 186 384 c 0
 186 361 189 344 197 310 c 1
 113 267 l 1
 102 304 99 321 99 347 c 0
 99 464 186 540 350 568 c 1
 441 611 l 1
 433 579 l 1
 454 580 479 581 491 581 c 0
 582 581 632 547 632 485 c 0
 632 437 605 391 558 359 c 0
 527 339 504 328 447 310 c 1
 488 180 519 87 545 25 c 0
 586 -74 631 -124 678 -124 c 0
 717 -124 745 -101 777 -42 c 1
 826 -103 l 1
 770 -144 736 -156 680 -156 c 0
 601 -156 542 -125 499 -61 c 0
 458 0 425 95 387 262 c 0
 381 287 375 296 364 295 c 2
 364 295 363 295 362 294 c 0
 330 167 324 158 211 45 c 1
 297 43 306 43 343 42 c 1
 269 4 l 1
 239 2 149 0 97 0 c 0
 91 0 91 0 38 1 c 1
426 551 m 1
 368 317 l 1
 422 324 446 331 476 349 c 0
 518 375 545 423 545 473 c 0
 545 528 519 551 457 551 c 2
 426 551 l 1
617 811 m 1
 618 802 l 1
 618 800 619 797 620 793 c 1
 519 691 493 666 447 627 c 1
 438 625 435 624 433 624 c 0
 430 624 425 625 420 627 c 1
 416 691 411 748 407 800 c 1
 442 821 l 1
 454 732 454 727 462 687 c 1
 518 731 524 737 587 794 c 1
 595 803 607 814 616 821 c 1
 617 811 l 1
EndSplineSet
EndChar
StartChar: Sacute
Encoding: 294 346 187
Width: 460
VWidth: 1200
HStem: -71 47<147 211> 539 47<383 428>
VStem: 208 67<373 418> 373 77<123 181>
Fore
44 102 m 1
 60 113 l 1
 68 69 76 48 97 25 c 0
 124 -5 168 -24 211 -24 c 0
 298 -24 373 45 373 123 c 0
 373 169 355 196 287 250 c 0
 229 295 208 328 208 373 c 0
 208 472 325 586 428 586 c 0
 481 586 511 559 517 504 c 1
 451 457 l 1
 440 521 425 539 383 539 c 0
 324 539 275 483 275 418 c 0
 275 375 287 358 360 301 c 0
 434 243 450 222 450 181 c 0
 450 54 300 -71 147 -71 c 0
 82 -71 35 -49 0 -2 c 1
 44 102 l 1
355 625 m 1
 331 632 l 1
 365 676 411 739 469 820 c 1
 514 799 l 1
 437 720 417 698 355 625 c 1
EndSplineSet
EndChar
StartChar: Scaron
Encoding: 295 352 188
Width: 460
VWidth: 1200
HStem: -71 47<147 211> 539 47<383 428>
VStem: 208 67<373 418> 373 77<123 181>
Fore
44 102 m 1
 60 113 l 1
 68 69 76 48 97 25 c 0
 124 -5 168 -24 211 -24 c 0
 298 -24 373 45 373 123 c 0
 373 169 355 196 287 250 c 0
 229 295 208 328 208 373 c 0
 208 472 325 586 428 586 c 0
 481 586 511 559 517 504 c 1
 451 457 l 1
 440 521 425 539 383 539 c 0
 324 539 275 483 275 418 c 0
 275 375 287 358 360 301 c 0
 434 243 450 222 450 181 c 0
 450 54 300 -71 147 -71 c 0
 82 -71 35 -49 0 -2 c 1
 44 102 l 1
604 811 m 1
 605 802 l 1
 605 800 606 797 607 793 c 1
 506 691 480 666 434 627 c 1
 425 625 422 624 420 624 c 0
 417 624 412 625 407 627 c 1
 403 691 398 748 394 800 c 1
 429 821 l 1
 441 732 441 727 449 687 c 1
 505 731 511 737 574 794 c 1
 582 803 594 814 603 821 c 1
 604 811 l 1
EndSplineSet
EndChar
StartChar: Scedilla
Encoding: 296 350 189
Width: 460
VWidth: 1200
HStem: -71 47<146 211> 539 47<383 428>
VStem: 111 62<-184 -156> 208 67<373 418> 373 77<123 181>
DStem: 146 -71 185 -69 84 -145 149 -118
Fore
517 504 m 1
 451 457 l 1
 440 521 425 539 383 539 c 0
 324 539 275 483 275 418 c 0
 275 375 287 358 360 301 c 0
 434 243 450 222 450 181 c 0
 450 66 328 -49 185 -69 c 1
 149 -118 l 1
 164 -123 173 -137 173 -156 c 0
 173 -203 121 -244 36 -266 c 1
 21 -252 l 1
 50 -244 61 -239 84 -221 c 0
 105 -204 111 -196 111 -184 c 0
 111 -170 105 -161 84 -145 c 1
 146 -71 l 1
 84 -71 28 -45 0 -2 c 1
 44 102 l 1
 60 113 l 1
 68 69 76 48 97 25 c 0
 124 -5 168 -24 211 -24 c 0
 298 -24 373 45 373 123 c 0
 373 169 355 196 287 250 c 0
 229 295 208 328 208 373 c 0
 208 472 325 586 428 586 c 0
 481 586 511 559 517 504 c 1
EndSplineSet
EndChar
StartChar: Tcaron
Encoding: 297 356 190
Width: 500
VWidth: 1200
HStem: 0 45<160 337> 526 48<615 640> 546 38<325 363>
VStem: 58 77<361 407>
DStem: 416 541 488 537 335 215 410 224
Fore
160 0 m 1xd0
 195 39 l 1
 280 43 299 68 335 215 c 1
 416 541 l 1
 366 545 346 546 325 546 c 0
 272 546 235 541 210 529 c 0
 161 506 135 463 135 407 c 0
 135 379 139 364 158 315 c 1
 83 266 l 1
 65 301 58 329 58 361 c 0
 58 489 188 584 363 584 c 0xb0
 395 584 413 583 560 576 c 0
 591 575 614 574 623 574 c 0
 659 574 664 579 705 649 c 1
 718 634 l 1
 694 535 687 526 640 526 c 0
 620 526 619 526 488 537 c 1
 410 224 l 1
 393 148 368 112 291 47 c 1
 312 46 329 45 337 45 c 0
 391 45 455 49 499 55 c 1
 497 47 l 1
 416 2 401 0 160 0 c 1xd0
647 811 m 1
 648 802 l 1
 648 800 649 797 650 793 c 1
 549 691 523 666 477 627 c 1
 468 625 465 624 463 624 c 0
 460 624 455 625 450 627 c 1
 446 691 441 748 437 800 c 1
 472 821 l 1
 484 732 484 727 492 687 c 1
 548 731 554 737 617 794 c 1
 625 803 637 814 646 821 c 1
 647 811 l 1
EndSplineSet
EndChar
StartChar: Udieresis
Encoding: 298 220 191
Width: 740
VWidth: 1200
HStem: -13 46<334 399> 515 57<293 340>
VStem: 116 62<363 419> 224 82<109 148> 566 92<8 65>
Fore
622 533 m 1
 649 558 l 1
 719 565 726 566 778 574 c 1
 709 325 658 110 658 65 c 0
 658 41 668 31 695 31 c 0
 717 31 736 32 767 35 c 1
 746 10 l 1
 677 -6 622 -14 594 -14 c 0
 576 -14 566 -6 566 8 c 0
 566 16 568 29 574 58 c 1
 453 6 389 -13 334 -13 c 0
 268 -13 224 36 224 109 c 0
 224 200 272 315 387 496 c 1
 344 511 323 515 293 515 c 0
 228 515 178 474 178 419 c 0
 178 393 187 368 212 320 c 1
 145 266 l 1
 124 310 116 336 116 363 c 0
 116 418 156 484 220 534 c 0
 253 560 292 572 340 572 c 0
 363 572 368 571 432 561 c 1
 442 565 l 2
 459 573 460 574 473 578 c 1
 479 570 l 1
 377 433 306 260 306 148 c 0
 306 78 343 33 399 33 c 0
 451 33 493 47 576 91 c 1
 585 124 591 148 593 155 c 0
 614 242 635 322 653 397 c 0
 667 451 675 485 678 498 c 0
 680 509 683 521 686 532 c 1
 653 534 653 534 640 534 c 0
 637 534 630 534 622 533 c 1
667 650 m 1
 645 681 637 697 629 720 c 1
 641 729 646 732 653 737 c 0
 657 740 667 748 684 762 c 0
 690 767 694 770 698 773 c 1
 708 748 709 745 712 739 c 0
 716 731 720 724 732 705 c 1
 707 686 705 684 700 680 c 0
 692 674 689 671 667 650 c 1
534 650 m 1
 512 683 504 697 496 720 c 1
 522 738 525 740 551 762 c 1
 556 765 560 769 565 773 c 1
 576 748 577 745 580 739 c 0
 584 731 588 724 599 705 c 1
 577 688 573 685 567 680 c 0
 559 673 552 667 534 650 c 1
EndSplineSet
KernsSLIF: 114 -12 1 0 46 -10 1 0 112 -23 1 0 110 -12 1 0 109 -13 1 0 44 -13 1 0 98 -11 1 0 65 26 1 0
EndChar
StartChar: Uacute
Encoding: 299 218 192
Width: 740
VWidth: 1200
HStem: -13 46<334 399> 515 57<293 340>
VStem: 116 62<363 419> 224 82<109 148> 566 92<8 65>
Fore
622 533 m 1
 649 558 l 1
 719 565 726 566 778 574 c 1
 709 325 658 110 658 65 c 0
 658 41 668 31 695 31 c 0
 717 31 736 32 767 35 c 1
 746 10 l 1
 677 -6 622 -14 594 -14 c 0
 576 -14 566 -6 566 8 c 0
 566 16 568 29 574 58 c 1
 453 6 389 -13 334 -13 c 0
 268 -13 224 36 224 109 c 0
 224 200 272 315 387 496 c 1
 344 511 323 515 293 515 c 0
 228 515 178 474 178 419 c 0
 178 393 187 368 212 320 c 1
 145 266 l 1
 124 310 116 336 116 363 c 0
 116 418 156 484 220 534 c 0
 253 560 292 572 340 572 c 0
 363 572 368 571 432 561 c 1
 442 565 l 2
 459 573 460 574 473 578 c 1
 479 570 l 1
 377 433 306 260 306 148 c 0
 306 78 343 33 399 33 c 0
 451 33 493 47 576 91 c 1
 585 124 591 148 593 155 c 0
 614 242 635 322 653 397 c 0
 667 451 675 485 678 498 c 0
 680 509 683 521 686 532 c 1
 653 534 653 534 640 534 c 0
 637 534 630 534 622 533 c 1
565 625 m 1
 541 632 l 1
 575 676 621 739 679 820 c 1
 724 799 l 1
 647 720 627 698 565 625 c 1
EndSplineSet
KernsSLIF: 114 -12 1 0 46 -10 1 0 112 -23 1 0 110 -12 1 0 109 -13 1 0 44 -13 1 0 65 26 1 0
EndChar
StartChar: Ugrave
Encoding: 300 217 193
Width: 740
VWidth: 1200
HStem: -13 46<334 399> 515 57<293 340>
VStem: 116 62<363 419> 224 82<109 148> 566 92<8 65>
Fore
622 533 m 1
 649 558 l 1
 719 565 726 566 778 574 c 1
 709 325 658 110 658 65 c 0
 658 41 668 31 695 31 c 0
 717 31 736 32 767 35 c 1
 746 10 l 1
 677 -6 622 -14 594 -14 c 0
 576 -14 566 -6 566 8 c 0
 566 16 568 29 574 58 c 1
 453 6 389 -13 334 -13 c 0
 268 -13 224 36 224 109 c 0
 224 200 272 315 387 496 c 1
 344 511 323 515 293 515 c 0
 228 515 178 474 178 419 c 0
 178 393 187 368 212 320 c 1
 145 266 l 1
 124 310 116 336 116 363 c 0
 116 418 156 484 220 534 c 0
 253 560 292 572 340 572 c 0
 363 572 368 571 432 561 c 1
 442 565 l 2
 459 573 460 574 473 578 c 1
 479 570 l 1
 377 433 306 260 306 148 c 0
 306 78 343 33 399 33 c 0
 451 33 493 47 576 91 c 1
 585 124 591 148 593 155 c 0
 614 242 635 322 653 397 c 0
 667 451 675 485 678 498 c 0
 680 509 683 521 686 532 c 1
 653 534 653 534 640 534 c 0
 637 534 630 534 622 533 c 1
556 812 m 1
 572 820 l 1
 604 733 611 710 634 631 c 1
 622 628 619 627 609 625 c 1
 563 726 546 759 526 796 c 1
 539 803 l 1
 556 812 l 1
EndSplineSet
KernsSLIF: 65 26 1 0
EndChar
StartChar: Ucircumflex
Encoding: 301 219 194
Width: 740
VWidth: 1200
HStem: -13 46<334 399> 515 57<293 340>
VStem: 116 62<363 419> 224 82<109 148> 566 92<8 65>
DStem: 634 759 682 734 645 695 690 645 645 695 682 734 651 648 690 645
Fore
622 533 m 1
 649 558 l 1
 719 565 726 566 778 574 c 1
 709 325 658 110 658 65 c 0
 658 41 668 31 695 31 c 0
 717 31 736 32 767 35 c 1
 746 10 l 1
 677 -6 622 -14 594 -14 c 0
 576 -14 566 -6 566 8 c 0
 566 16 568 29 574 58 c 1
 453 6 389 -13 334 -13 c 0
 268 -13 224 36 224 109 c 0
 224 200 272 315 387 496 c 1
 344 511 323 515 293 515 c 0
 228 515 178 474 178 419 c 0
 178 393 187 368 212 320 c 1
 145 266 l 1
 124 310 116 336 116 363 c 0
 116 418 156 484 220 534 c 0
 253 560 292 572 340 572 c 0
 363 572 368 571 432 561 c 1
 442 565 l 2
 459 573 460 574 473 578 c 1
 479 570 l 1
 377 433 306 260 306 148 c 0
 306 78 343 33 399 33 c 0
 451 33 493 47 576 91 c 1
 585 124 591 148 593 155 c 0
 614 242 635 322 653 397 c 0
 667 451 675 485 678 498 c 0
 680 509 683 521 686 532 c 1
 653 534 653 534 640 534 c 0
 637 534 630 534 622 533 c 1
479 634 m 1
 478 644 l 1
 478 645 477 649 476 653 c 1
 584 762 605 781 649 819 c 1
 657 820 661 821 663 821 c 0
 666 821 671 820 676 819 c 1
 680 766 681 745 682 734 c 2
 690 645 l 1
 677 639 673 636 654 625 c 1
 653 636 652 642 651 648 c 1
 645 695 l 1
 634 759 l 1
 601 733 586 721 561 699 c 0
 535 676 508 651 480 625 c 1
 479 634 l 1
EndSplineSet
KernsSLIF: 65 26 1 0
EndChar
StartChar: Uring
Encoding: 302 366 195
Width: 740
VWidth: 1200
HStem: -13 46<334 399> 515 57<293 340> 623 22<557 570> 780 22<588 604>
VStem: 116 62<363 419> 224 82<109 148> 491 43<684 699> 625 47<727 742>
Fore
622 533 m 1
 649 558 l 1
 719 565 726 566 778 574 c 1
 709 325 658 110 658 65 c 0
 658 41 668 31 695 31 c 0
 717 31 736 32 767 35 c 1
 746 10 l 1
 677 -6 622 -14 594 -14 c 0
 576 -14 566 -6 566 8 c 0
 566 16 568 29 574 58 c 1
 453 6 389 -13 334 -13 c 0
 268 -13 224 36 224 109 c 0
 224 200 272 315 387 496 c 1
 344 511 323 515 293 515 c 0
 228 515 178 474 178 419 c 0
 178 393 187 368 212 320 c 1
 145 266 l 1
 124 310 116 336 116 363 c 0
 116 418 156 484 220 534 c 0
 253 560 292 572 340 572 c 0
 363 572 368 571 432 561 c 1
 442 565 l 2
 459 573 460 574 473 578 c 1
 479 570 l 1
 377 433 306 260 306 148 c 0
 306 78 343 33 399 33 c 0
 451 33 493 47 576 91 c 1
 585 124 591 148 593 155 c 0
 614 242 635 322 653 397 c 0
 667 451 675 485 678 498 c 0
 680 509 683 521 686 532 c 1
 653 534 653 534 640 534 c 0
 637 534 630 534 622 533 c 1
604 802 m 0
 646 802 672 779 672 740 c 0
 672 677 619 623 557 623 c 0
 515 623 491 646 491 686 c 0
 491 753 539 802 604 802 c 0
590 780 m 0
 558 780 534 745 534 697 c 0
 534 667 548 645 568 645 c 0
 599 645 625 683 625 729 c 0
 625 761 612 780 590 780 c 0
EndSplineSet
EndChar
StartChar: Uhungarumlaut
Encoding: 303 368 196
Width: 740
VWidth: 1200
HStem: -13 46<334 399> 515 57<293 340>
VStem: 116 62<363 419> 224 82<109 148> 566 92<8 65>
DStem: 659 666 680 654 632 629 654 625
Fore
622 533 m 1
 649 558 l 1
 719 565 726 566 778 574 c 1
 709 325 658 110 658 65 c 0
 658 41 668 31 695 31 c 0
 717 31 736 32 767 35 c 1
 746 10 l 1
 677 -6 622 -14 594 -14 c 0
 576 -14 566 -6 566 8 c 0
 566 16 568 29 574 58 c 1
 453 6 389 -13 334 -13 c 0
 268 -13 224 36 224 109 c 0
 224 200 272 315 387 496 c 1
 344 511 323 515 293 515 c 0
 228 515 178 474 178 419 c 0
 178 393 187 368 212 320 c 1
 145 266 l 1
 124 310 116 336 116 363 c 0
 116 418 156 484 220 534 c 0
 253 560 292 572 340 572 c 0
 363 572 368 571 432 561 c 1
 442 565 l 2
 459 573 460 574 473 578 c 1
 479 570 l 1
 377 433 306 260 306 148 c 0
 306 78 343 33 399 33 c 0
 451 33 493 47 576 91 c 1
 585 124 591 148 593 155 c 0
 614 242 635 322 653 397 c 0
 667 451 675 485 678 498 c 0
 680 509 683 521 686 532 c 1
 653 534 653 534 640 534 c 0
 637 534 630 534 622 533 c 1
632 629 m 1
 659 666 l 1
 710 732 l 1
 775 820 l 1
 800 809 801 808 816 801 c 1
 789 773 777 761 757 739 c 0
 748 730 734 714 714 691 c 1
 702 679 691 666 680 654 c 0
 671 644 662 634 654 625 c 1
 642 627 640 627 632 629 c 1
682 820 m 1
 709 807 l 2
 710 806 716 803 720 801 c 1
 693 773 682 761 661 739 c 0
 649 725 620 693 584 654 c 0
 576 644 567 634 558 625 c 1
 550 626 549 626 536 629 c 1
 550 648 560 661 564 666 c 2
 615 732 l 2
 621 739 631 752 682 820 c 1
EndSplineSet
EndChar
StartChar: Yacute
Encoding: 304 221 197
Width: 560
VWidth: 1200
HStem: -152 72<77 139> 531 77<685 723>
VStem: 68 77<336 394> 398 63<255 363>
Fore
31 -150 m 1
 66 -76 l 1
 109 -79 124 -80 139 -80 c 0
 225 -80 273 -59 310 -7 c 0
 337 31 360 77 379 128 c 0
 392 165 398 204 398 255 c 0
 398 418 343 519 254 519 c 0
 193 519 145 464 145 394 c 0
 145 364 150 340 165 293 c 1
 89 245 l 1
 75 276 68 306 68 336 c 0
 68 450 203 576 323 576 c 0
 408 576 461 494 461 363 c 0
 461 330 459 306 450 253 c 1
 582 528 643 608 723 608 c 0
 740 608 748 605 763 592 c 1
 735 519 l 1
 712 528 701 531 685 531 c 0
 654 531 631 515 601 473 c 0
 574 434 562 411 458 202 c 0
 358 1 304 -83 255 -115 c 0
 213 -143 168 -152 77 -152 c 0
 60 -152 51 -152 31 -150 c 1
522 625 m 1
 498 632 l 1
 532 676 578 739 636 820 c 1
 681 799 l 1
 604 720 584 698 522 625 c 1
EndSplineSet
EndChar
StartChar: Zacute
Encoding: 305 377 198
Width: 620
VWidth: 1200
HStem: -13 77<473 517> 502 77<293 309>
VStem: 614 62<143 186>
DStem: 552 503 655 568 213 164 397 307 552 503 397 307 213 164 253 160
Fore
581 227 m 1
 656 272 l 1
 671 237 676 214 676 186 c 0
 676 152 670 137 640 101 c 0
 636 96 628 86 617 72 c 0
 589 36 580 26 568 14 c 0
 549 -4 525 -13 497 -13 c 0
 473 -13 376 -5 254 8 c 0
 216 12 181 14 155 14 c 0
 118 14 95 6 62 -18 c 1
 62 19 l 1
 86 40 136 89 213 164 c 1
 552 503 l 1
 503 495 483 493 436 493 c 0
 401 493 374 495 334 500 c 0
 324 501 314 502 307 502 c 0
 276 502 271 495 201 372 c 1
 184 397 l 1
 207 448 239 518 250 541 c 0
 266 574 272 579 294 579 c 0
 302 579 302 579 352 574 c 0
 378 571 378 571 475 562 c 0
 513 558 541 556 555 556 c 0
 592 556 620 567 655 597 c 1
 655 568 l 1
 577 487 470 379 397 307 c 1
 253 160 l 1
 172 76 l 1
 204 81 l 1
 223 81 l 1
 240 81 l 2
 270 81 290 80 374 72 c 0
 439 66 479 64 517 64 c 0
 583 64 614 90 614 143 c 0
 614 166 610 178 594 206 c 0
 590 212 585 220 581 227 c 1
472 625 m 1
 448 632 l 1
 482 676 528 739 586 820 c 1
 631 799 l 1
 554 720 534 698 472 625 c 1
EndSplineSet
EndChar
StartChar: Zcaron
Encoding: 306 381 199
Width: 620
VWidth: 1200
HStem: -13 77<473 517> 502 77<293 309>
VStem: 614 62<143 186>
DStem: 552 503 655 568 213 164 397 307 552 503 397 307 213 164 253 160
Fore
581 227 m 1
 656 272 l 1
 671 237 676 214 676 186 c 0
 676 152 670 137 640 101 c 0
 636 96 628 86 617 72 c 0
 589 36 580 26 568 14 c 0
 549 -4 525 -13 497 -13 c 0
 473 -13 376 -5 254 8 c 0
 216 12 181 14 155 14 c 0
 118 14 95 6 62 -18 c 1
 62 19 l 1
 86 40 136 89 213 164 c 1
 552 503 l 1
 503 495 483 493 436 493 c 0
 401 493 374 495 334 500 c 0
 324 501 314 502 307 502 c 0
 276 502 271 495 201 372 c 1
 184 397 l 1
 207 448 239 518 250 541 c 0
 266 574 272 579 294 579 c 0
 302 579 302 579 352 574 c 0
 378 571 378 571 475 562 c 0
 513 558 541 556 555 556 c 0
 592 556 620 567 655 597 c 1
 655 568 l 1
 577 487 470 379 397 307 c 1
 253 160 l 1
 172 76 l 1
 204 81 l 1
 223 81 l 1
 240 81 l 2
 270 81 290 80 374 72 c 0
 439 66 479 64 517 64 c 0
 583 64 614 90 614 143 c 0
 614 166 610 178 594 206 c 0
 590 212 585 220 581 227 c 1
637 811 m 1
 638 802 l 1
 638 800 639 797 640 793 c 1
 539 691 513 666 467 627 c 1
 458 625 455 624 453 624 c 0
 450 624 445 625 440 627 c 1
 436 691 431 748 427 800 c 1
 462 821 l 1
 474 732 474 727 482 687 c 1
 538 731 544 737 607 794 c 1
 615 803 627 814 636 821 c 1
 637 811 l 1
EndSplineSet
EndChar
StartChar: Zdotaccent
Encoding: 307 379 200
Width: 620
VWidth: 1200
HStem: -13 77<473 517> 502 77<293 309>
VStem: 614 62<143 186>
DStem: 552 503 655 568 213 164 397 307 552 503 397 307 213 164 253 160
Fore
581 227 m 1
 656 272 l 1
 671 237 676 214 676 186 c 0
 676 152 670 137 640 101 c 0
 636 96 628 86 617 72 c 0
 589 36 580 26 568 14 c 0
 549 -4 525 -13 497 -13 c 0
 473 -13 376 -5 254 8 c 0
 216 12 181 14 155 14 c 0
 118 14 95 6 62 -18 c 1
 62 19 l 1
 86 40 136 89 213 164 c 1
 552 503 l 1
 503 495 483 493 436 493 c 0
 401 493 374 495 334 500 c 0
 324 501 314 502 307 502 c 0
 276 502 271 495 201 372 c 1
 184 397 l 1
 207 448 239 518 250 541 c 0
 266 574 272 579 294 579 c 0
 302 579 302 579 352 574 c 0
 378 571 378 571 475 562 c 0
 513 558 541 556 555 556 c 0
 592 556 620 567 655 597 c 1
 655 568 l 1
 577 487 470 379 397 307 c 1
 253 160 l 1
 172 76 l 1
 204 81 l 1
 223 81 l 1
 240 81 l 2
 270 81 290 80 374 72 c 0
 439 66 479 64 517 64 c 0
 583 64 614 90 614 143 c 0
 614 166 610 178 594 206 c 0
 590 212 585 220 581 227 c 1
487 650 m 1
 464 684 457 696 449 720 c 1
 475 738 477 739 504 762 c 0
 508 765 512 768 518 773 c 1
 520 769 522 764 523 760 c 0
 533 737 534 735 552 705 c 1
 529 687 526 684 520 680 c 0
 512 673 504 666 487 650 c 1
EndSplineSet
EndChar
StartChar: Amacron
Encoding: 308 256 201
Width: 620
VWidth: 1200
HStem: -13 240<353 505> 0 72<76 105> 186 41<322 433.669> 517 62<384 418> 681 48<470 720>
VStem: 201 67<361 426>
DStem: 528 505 546 480 355 281 353 227
Fore
23 9 m 1x7c
 61 79 l 1
 79 73 88 72 105 72 c 0x7c
 151 72 181 86 221 125 c 0
 247 150 313 227 355 281 c 2
 528 505 l 1
 501 507 493 507 476 509 c 2
 461 510 l 1
 421 515 l 2
 407 516 395 517 384 517 c 0
 311 517 268 483 268 426 c 0
 268 403 273 380 289 333 c 1
 215 293 l 1
 204 322 201 338 201 361 c 0
 201 414 224 459 277 510 c 0
 324 556 372 579 418 579 c 0
 438 579 463 576 509 569 c 0
 550 562 554 562 566 562 c 0
 583 562 592 566 608 582 c 0
 611 586 615 590 619 594 c 1
 633 584 l 1
 602 428 562 144 562 81 c 0
 562 46 574 36 613 36 c 0
 628 36 633 36 664 39 c 0
 667 39 677 40 687 41 c 1
 671 17 l 1
 623 9 575 0 527 -9 c 0
 515 -12 505 -13 498 -13 c 0x9c
 485 -13 475 -3 475 9 c 0
 475 19 477 35 480 52 c 0
 481 55 484 74 486 93 c 0
 489 114 492 133 494 146 c 0
 495 158 497 170 499 182 c 1
 460 185 401 186 322 186 c 1
 190 35 144 0 76 0 c 0
 58 0 46 2 23 9 c 1x7c
353 227 m 1x9c
 505 227 l 1
 546 480 l 1
 353 227 l 1x9c
428 681 m 1
 437 690 l 1
 449 705 l 2
 453 709 456 713 460 716 c 1
 461 718 466 723 471 729 c 1
 760 729 l 1
 748 717 735 701 720 681 c 1
 428 681 l 1
EndSplineSet
EndChar
StartChar: uni0162
Encoding: 309 354 522
Width: 500
VWidth: 1200
HStem: 0 45<160 337> 526 48<617 640> 546 38<325 363>
VStem: 58 77<361 407> 241 62<-130 -102>
DStem: 291 0 326 0 214 -92 279 -64 416 541 488 537 335 215 410 224
Fore
160 0 m 1xd8
 195 39 l 1
 280 43 299 68 335 215 c 1
 416 541 l 1
 366 545 346 546 325 546 c 0
 272 546 235 541 210 529 c 0
 161 506 135 463 135 407 c 0
 135 379 139 364 158 315 c 1
 83 266 l 1
 65 301 58 329 58 361 c 0
 58 489 188 584 363 584 c 0xb8
 395 584 413 583 560 576 c 0
 591 575 614 574 623 574 c 0
 659 574 664 579 705 649 c 1
 718 634 l 1
 694 535 687 526 640 526 c 0
 620 526 619 526 488 537 c 1
 410 224 l 1
 393 148 368 112 291 47 c 1
 312 46 329 45 337 45 c 0
 391 45 455 49 499 55 c 1
 497 47 l 1
 416 2 401 0 160 0 c 1xd8
326 0 m 1
 279 -64 l 1
 294 -70 303 -84 303 -102 c 0
 303 -149 251 -191 166 -212 c 1
 151 -199 l 1
 180 -191 191 -186 214 -167 c 0
 235 -151 241 -143 241 -130 c 0
 241 -116 235 -108 214 -92 c 1
 291 0 l 1
 326 0 l 1
EndSplineSet
EndChar
StartChar: Ydieresis
Encoding: 310 376 203
Width: 560
VWidth: 1200
HStem: -152 72<77 139> 531 77<685 723>
VStem: 68 77<336 394> 398 63<255 363>
Fore
31 -150 m 1
 66 -76 l 1
 109 -79 124 -80 139 -80 c 0
 225 -80 273 -59 310 -7 c 0
 337 31 360 77 379 128 c 0
 392 165 398 204 398 255 c 0
 398 418 343 519 254 519 c 0
 193 519 145 464 145 394 c 0
 145 364 150 340 165 293 c 1
 89 245 l 1
 75 276 68 306 68 336 c 0
 68 450 203 576 323 576 c 0
 408 576 461 494 461 363 c 0
 461 330 459 306 450 253 c 1
 582 528 643 608 723 608 c 0
 740 608 748 605 763 592 c 1
 735 519 l 1
 712 528 701 531 685 531 c 0
 654 531 631 515 601 473 c 0
 574 434 562 411 458 202 c 0
 358 1 304 -83 255 -115 c 0
 213 -143 168 -152 77 -152 c 0
 60 -152 51 -152 31 -150 c 1
587 650 m 1
 565 681 557 697 549 720 c 1
 561 729 566 732 573 737 c 0
 577 740 587 748 604 762 c 0
 610 767 614 770 618 773 c 1
 628 748 629 745 632 739 c 0
 636 731 640 724 652 705 c 1
 627 686 625 684 620 680 c 0
 612 674 609 671 587 650 c 1
454 650 m 1
 432 683 424 697 416 720 c 1
 442 738 445 740 471 762 c 1
 476 765 480 769 485 773 c 1
 496 748 497 745 500 739 c 0
 504 731 508 724 519 705 c 1
 497 688 493 685 487 680 c 0
 479 673 472 667 454 650 c 1
EndSplineSet
EndChar
StartChar: Emacron
Encoding: 311 274 204
Width: 620
VWidth: 1200
HStem: -8 49<218 509> 276 31<362 476> 681 48<358 608>
VStem: 76 77<368 418> 587 76<84 127>
DStem: 345 532 419 534 289 307 362 307
Fore
362 307 m 1
 541 307 l 1
 523 293 521 291 503 278 c 1
 491 277 480 277 476 276 c 0
 470 276 455 275 433 274 c 0
 409 272 403 272 352 269 c 1
 316 132 315 130 218 41 c 1
 478 41 l 2
 574 41 587 46 587 84 c 0
 587 93 586 101 583 122 c 1
 659 150 l 1
 662 140 663 132 663 127 c 0
 663 104 646 80 600 39 c 0
 555 -2 541 -8 489 -8 c 0
 446 -8 445 -8 324 -4 c 0
 301 -3 274 -2 244 -2 c 2
 154 -1 l 2
 147 -1 126 -1 98 0 c 1
 136 33 l 1
 218 53 229 70 267 224 c 0
 271 236 274 249 278 264 c 1
 250 264 l 1
 267 284 272 290 289 307 c 1
 345 532 l 1
 209 528 153 496 153 418 c 0
 153 393 157 367 166 335 c 1
 94 287 l 1
 80 322 76 342 76 368 c 0
 76 420 98 460 148 500 c 0
 205 545 266 564 362 565 c 1
 432 586 l 1
 426 565 l 1
 640 569 l 1
 657 563 665 552 668 530 c 1
 602 464 l 1
 575 530 568 537 529 537 c 0
 523 537 492 536 450 534 c 2
 419 534 l 1
 362 307 l 1
316 681 m 1
 325 690 l 1
 337 705 l 2
 341 709 344 713 348 716 c 1
 349 718 354 723 359 729 c 1
 648 729 l 1
 636 717 623 701 608 681 c 1
 316 681 l 1
EndSplineSet
EndChar
StartChar: Imacron
Encoding: 312 298 205
Width: 380
VWidth: 1200
HStem: 553 20G<447 481> 681 48<258 508>
Fore
81 0 m 5
 117 25 l 5
 176 32 l 5
 183 56 189 79 191 85 c 4
 196 102 207 146 270 393 c 0
 277 420 284 447 291 475 c 4
 292 480 298 505 306 542 c 5
 216 548 l 5
 251 573 l 5
 308 572 312 572 328 572 c 4
 345 572 345 572 447 573 c 6
 481 573 l 5
 446 548 l 5
 388 542 l 5
 341 370 278 120 259 32 c 5
 352 25 l 5
 316 0 l 5
 160 1 l 6
 146 1 146 1 81 0 c 5
216 681 m 1
 225 690 l 1
 237 705 l 2
 241 709 244 713 248 716 c 1
 249 718 254 723 259 729 c 1
 548 729 l 1
 536 717 523 701 508 681 c 1
 216 681 l 1
EndSplineSet
EndChar
StartChar: Iogonek
Encoding: 313 302 206
Width: 380
VWidth: 1200
HStem: -153 47<250 293> -19 20G<161 194> 553 20G<447 481>
VStem: 197 57<-101 -71>
Fore
259 32 m 1
 352 25 l 1
 337 14 326 6 320 1 c 0
 265 -41 254 -53 254 -71 c 0
 254 -90 272 -106 293 -106 c 0
 308 -106 321 -99 342 -77 c 1
 355 -82 l 1
 323 -130 289 -153 250 -153 c 0
 218 -153 197 -132 197 -101 c 0
 197 -64 220 -37 282 0 c 1
 264 0 259 0 194 1 c 2
 161 1 l 2
 146 1 146 1 81 0 c 1
 117 25 l 1
 176 32 l 1
 183 56 189 79 191 85 c 0
 196 102 207 146 270 393 c 0
 277 420 284 447 291 475 c 0
 292 480 298 505 306 542 c 1
 216 548 l 1
 251 573 l 1
 308 572 312 572 328 572 c 0
 345 572 345 572 447 573 c 2
 481 573 l 1
 446 548 l 1
 388 542 l 1
 341 370 278 120 259 32 c 1
EndSplineSet
EndChar
StartChar: Kcommaaccent
Encoding: 314 310 207
Width: 660
VWidth: 1200
HStem: -147 27<738 763> 0 43<131 284.187> 505 72<737 777>
VStem: 146 77<376 431> 381 62<-140 -102>
Fore
840 -48 m 1
 851 -130 l 1
 814 -144 796 -147 763 -147 c 0
 689 -147 628 -121 584 -71 c 0
 548 -30 518 39 475 179 c 2
 457 239 l 1
 445 276 445 277 439 294 c 0
 437 302 434 309 432 316 c 1
 400 191 384 165 262 43 c 1
 383 43 l 1
 315 1 313 0 225 0 c 2
 88 0 l 1
 132 43 l 1
 170 43 l 2
 247 43 284 79 323 190 c 0
 339 236 353 288 384 413 c 0
 397 469 408 510 414 536 c 1
 393 538 377 539 366 539 c 0
 273 539 223 501 223 431 c 0
 223 400 229 375 245 336 c 1
 163 301 l 1
 150 335 146 350 146 376 c 0
 146 448 187 507 262 544 c 0
 306 565 370 576 449 576 c 0
 474 576 495 575 540 572 c 1
 525 554 517 549 488 541 c 1
 436 332 l 1
 453 345 465 354 468 357 c 0
 535 413 605 470 678 529 c 0
 724 567 745 577 777 577 c 0
 795 577 808 574 833 564 c 1
 796 490 l 1
 768 502 755 505 737 505 c 0
 693 505 653 479 496 346 c 1
 521 279 533 247 552 193 c 0
 603 50 617 16 646 -38 c 0
 675 -91 710 -120 745 -120 c 0
 779 -120 801 -103 840 -48 c 1
344 -270 m 1
 316 -262 l 1
 370 -193 381 -173 381 -140 c 0
 381 -131 379 -122 373 -95 c 1
 412 -74 415 -72 436 -60 c 1
 442 -83 443 -92 443 -102 c 0
 443 -135 419 -180 367 -243 c 2
 353 -259 l 1
 344 -270 l 1
EndSplineSet
EndChar
StartChar: Lcommaaccent
Encoding: 315 315 208
Width: 580
VWidth: 1200
HStem: -6 55<372 481> 7 36<96 131> 520 57<434 488>
VStem: 241 62<-140 -102>
Fore
532 574 m 1x70
 493 518 l 1
 456 520 447 520 434 520 c 0
 392 520 366 501 351 459 c 0
 338 420 324 365 295 241 c 0
 270 137 263 124 210 75 c 2
 183 49 l 1
 372 49 l 2
 544 48 555 54 620 191 c 1
 631 172 l 1
 616 134 585 65 573 42 c 0
 555 5 533 -6 481 -6 c 0xb0
 455 -6 448 -6 284 2 c 0
 208 5 157 7 131 7 c 0
 106 7 81 6 33 4 c 1
 48 23 54 30 68 44 c 1
 79 43 91 43 99 43 c 0
 162 43 188 80 215 208 c 0
 254 394 271 440 320 490 c 0
 360 530 408 564 435 571 c 0
 452 575 469 577 488 577 c 0
 502 577 512 576 532 574 c 1x70
204 -270 m 1
 176 -262 l 1
 230 -193 241 -173 241 -140 c 0
 241 -131 239 -122 233 -95 c 1
 272 -74 275 -72 296 -60 c 1
 302 -83 303 -92 303 -102 c 0
 303 -135 279 -180 227 -243 c 2
 213 -259 l 1
 204 -270 l 1
EndSplineSet
EndChar
StartChar: Ncommaaccent
Encoding: 316 325 209
Width: 700
VWidth: 1200
HStem: -163 27<775 793> -3 68<95 150> 501 67<287 335> 610 67<851 884>
VStem: 87 62<352 412> 361 62<-140 -102>
Fore
40 0 m 1
 88 69 l 1
 116 66 131 65 150 65 c 0
 203 65 225 76 246 113 c 0
 279 172 317 298 364 499 c 1
 326 501 308 501 287 501 c 0
 242 501 218 497 194 484 c 0
 166 469 149 442 149 412 c 0
 149 387 156 364 181 311 c 1
 112 264 l 1
 94 301 87 327 87 352 c 0
 87 407 131 479 195 529 c 0
 231 557 267 568 327 568 c 0
 345 568 358 567 382 565 c 1
 416 596 l 1
 522 200 535 161 583 65 c 1
 592 96 597 117 598 122 c 0
 609 170 620 217 630 264 c 0
 679 480 697 531 745 587 c 0
 797 648 842 677 884 677 c 0
 892 677 903 676 915 675 c 1
 878 608 l 1
 864 610 858 610 851 610 c 0
 805 610 781 594 760 552 c 0
 728 486 706 414 663 240 c 0
 638 135 629 96 612 10 c 1
 663 -87 721 -136 784 -136 c 0
 809 -136 834 -123 852 -101 c 0
 865 -86 872 -72 886 -39 c 1
 910 -128 l 1
 865 -154 829 -163 778 -163 c 0
 660 -163 572 -102 511 22 c 0
 477 90 453 163 424 287 c 0
 413 333 412 335 387 442 c 1
 344 269 338 247 322 204 c 0
 290 120 240 48 191 19 c 0
 165 3 138 -3 95 -3 c 0
 81 -3 67 -2 40 0 c 1
324 -270 m 1
 296 -262 l 1
 350 -193 361 -173 361 -140 c 0
 361 -131 359 -122 353 -95 c 1
 392 -74 395 -72 416 -60 c 1
 422 -83 423 -92 423 -102 c 0
 423 -135 399 -180 347 -243 c 2
 333 -259 l 1
 324 -270 l 1
EndSplineSet
EndChar
StartChar: Omacron
Encoding: 317 332 210
Width: 600
VWidth: 1200
HStem: -13 40<274 332> 552 39<429 487> 681 48<348 598>
VStem: 104 82<183 222> 570 82<364 396>
Fore
487 591 m 0
 594 591 652 522 652 396 c 0
 652 276 612 172 540 102 c 0
 465 30 365 -13 274 -13 c 0
 163 -13 104 55 104 183 c 0
 104 309 149 420 229 490 c 0
 298 549 404 591 487 591 c 0
429 552 m 0
 293 552 186 407 186 222 c 0
 186 99 240 27 332 27 c 0
 406 27 474 71 517 147 c 0
 549 204 570 290 570 366 c 0
 570 482 518 552 429 552 c 0
306 681 m 1
 315 690 l 1
 327 705 l 2
 331 709 334 713 338 716 c 1
 339 718 344 723 349 729 c 1
 638 729 l 1
 626 717 613 701 598 681 c 1
 306 681 l 1
EndSplineSet
EndChar
StartChar: Rcommaaccent
Encoding: 318 342 211
Width: 600
VWidth: 1200
HStem: -156 32<666.513 683> 0 45<77 119> 551 30<455 491>
VStem: 99 87<347 384> 291 62<-140 -102> 545 87<471 487>
DStem: 326 437 426 551 276 239 368 317
Fore
38 1 m 1
 77 45 l 1
 207 44 234 70 276 239 c 0
 292 305 309 371 326 437 c 0
 333 468 339 491 343 507 c 2
 352 543 l 1
 288 535 260 524 232 499 c 0
 201 470 186 432 186 384 c 0
 186 361 189 344 197 310 c 1
 113 267 l 1
 102 304 99 321 99 347 c 0
 99 464 186 540 350 568 c 1
 441 611 l 1
 433 579 l 1
 454 580 479 581 491 581 c 0
 582 581 632 547 632 485 c 0
 632 437 605 391 558 359 c 0
 527 339 504 328 447 310 c 1
 488 180 519 87 545 25 c 0
 586 -74 631 -124 678 -124 c 0
 717 -124 745 -101 777 -42 c 1
 826 -103 l 1
 770 -144 736 -156 680 -156 c 0
 601 -156 542 -125 499 -61 c 0
 458 0 425 95 387 262 c 0
 381 287 375 296 364 295 c 2
 364 295 363 295 362 294 c 0
 330 167 324 158 211 45 c 1
 297 43 306 43 343 42 c 1
 269 4 l 1
 239 2 149 0 97 0 c 0
 91 0 91 0 38 1 c 1
426 551 m 1
 368 317 l 1
 422 324 446 331 476 349 c 0
 518 375 545 423 545 473 c 0
 545 528 519 551 457 551 c 2
 426 551 l 1
254 -270 m 1
 226 -262 l 1
 280 -193 291 -173 291 -140 c 0
 291 -131 289 -122 283 -95 c 1
 322 -74 325 -72 346 -60 c 1
 352 -83 353 -92 353 -102 c 0
 353 -135 329 -180 277 -243 c 2
 263 -259 l 1
 254 -270 l 1
EndSplineSet
EndChar
StartChar: Gcommaaccent
Encoding: 319 290 212
Width: 620
VWidth: 1200
HStem: -233 61<289 340> -13 41<259 327> 239 33<493 511> 554 36<479 540>
VStem: 120 87<144 178> 209 62<-140 -102>
DStem: 511 239 584 239 475 95 545 83
Fore
584 239 m 1
 545 83 l 2
 516 -34 498 -74 455 -125 c 0
 399 -190 333 -233 289 -233 c 0
 283 -233 277 -233 269 -232 c 1
 302 -164 l 1
 315 -167 l 2
 328 -171 334 -172 340 -172 c 0
 377 -172 403 -148 421 -99 c 0
 430 -78 448 -13 463 48 c 1
 374 3 321 -13 259 -13 c 0
 173 -13 120 47 120 144 c 0
 120 250 171 372 252 459 c 0
 332 545 431 590 540 590 c 0
 616 590 653 568 672 511 c 1
 598 428 l 1
 592 470 587 487 574 507 c 0
 555 537 520 554 479 554 c 0
 338 554 207 372 207 178 c 0
 207 86 253 28 327 28 c 0
 373 28 432 55 475 95 c 1
 511 239 l 1
 493 239 l 2
 456 238 428 237 409 236 c 2
 390 235 l 2
 386 235 378 234 365 233 c 1
 365 241 l 1
 426 272 l 1
 456 272 l 2
 520 272 603 270 651 267 c 1
 605 239 l 1
 584 239 l 1
172 -270 m 1
 144 -262 l 1
 198 -193 209 -173 209 -140 c 0
 209 -131 207 -122 201 -95 c 1
 240 -74 243 -72 264 -60 c 1
 270 -83 271 -92 271 -102 c 0
 271 -135 247 -180 195 -243 c 2
 181 -259 l 1
 172 -270 l 1
EndSplineSet
EndChar
StartChar: Umacron
Encoding: 320 362 213
Width: 740
VWidth: 1200
HStem: -13 46<334 399> 515 57<293 340> 681 48<498 748>
VStem: 116 62<363 419> 224 82<109 148> 566 92<8 65>
Fore
622 533 m 1
 649 558 l 1
 719 565 726 566 778 574 c 1
 709 325 658 110 658 65 c 0
 658 41 668 31 695 31 c 0
 717 31 736 32 767 35 c 1
 746 10 l 1
 677 -6 622 -14 594 -14 c 0
 576 -14 566 -6 566 8 c 0
 566 16 568 29 574 58 c 1
 453 6 389 -13 334 -13 c 0
 268 -13 224 36 224 109 c 0
 224 200 272 315 387 496 c 1
 344 511 323 515 293 515 c 0
 228 515 178 474 178 419 c 0
 178 393 187 368 212 320 c 1
 145 266 l 1
 124 310 116 336 116 363 c 0
 116 418 156 484 220 534 c 0
 253 560 292 572 340 572 c 0
 363 572 368 571 432 561 c 1
 442 565 l 2
 459 573 460 574 473 578 c 1
 479 570 l 1
 377 433 306 260 306 148 c 0
 306 78 343 33 399 33 c 0
 451 33 493 47 576 91 c 1
 585 124 591 148 593 155 c 0
 614 242 635 322 653 397 c 0
 667 451 675 485 678 498 c 0
 680 509 683 521 686 532 c 1
 653 534 653 534 640 534 c 0
 637 534 630 534 622 533 c 1
456 681 m 1
 465 690 l 1
 477 705 l 2
 481 709 484 713 488 716 c 1
 489 718 494 723 499 729 c 1
 788 729 l 1
 776 717 763 701 748 681 c 1
 456 681 l 1
EndSplineSet
EndChar
StartChar: Uogonek
Encoding: 321 370 214
Width: 740
VWidth: 1200
HStem: -153 47<648 691> -13 46<334 399> 515 57<293 340>
VStem: 116 62<363 419> 224 82<109 148> 595 57<-101 -71>
Fore
767 35 m 1
 746 10 l 1
 720 3 714 0 696 -15 c 0
 663 -42 652 -57 652 -71 c 0
 652 -90 669 -106 691 -106 c 0
 706 -106 719 -99 740 -77 c 1
 753 -82 l 1
 721 -130 687 -153 648 -153 c 0
 616 -153 595 -132 595 -101 c 0
 595 -65 615 -40 672 -5 c 1
 639 -10 607 -14 594 -14 c 0
 575 -14 566 -6 566 8 c 0
 566 16 568 29 574 58 c 1
 453 6 389 -13 334 -13 c 0
 268 -13 224 36 224 109 c 0
 224 200 272 315 387 496 c 1
 344 511 323 515 293 515 c 0
 228 515 178 474 178 419 c 0
 178 393 187 368 212 320 c 1
 145 266 l 1
 124 310 116 336 116 363 c 0
 116 418 156 484 220 534 c 0
 253 560 292 572 340 572 c 0
 363 572 368 571 432 561 c 1
 442 565 l 2
 459 573 460 574 473 578 c 1
 479 570 l 1
 377 433 306 260 306 148 c 0
 306 78 343 33 399 33 c 0
 451 33 493 47 576 91 c 1
 585 124 591 148 593 155 c 0
 614 242 635 322 653 397 c 0
 667 451 675 485 678 498 c 0
 680 509 683 521 686 532 c 1
 653 534 653 534 640 534 c 0
 637 534 630 534 622 533 c 1
 649 558 l 1
 719 565 726 566 778 574 c 1
 709 325 658 110 658 65 c 0
 658 41 668 31 695 31 c 0
 717 31 736 32 767 35 c 1
EndSplineSet
EndChar
StartChar: adieresis
Encoding: 322 228 215
Width: 420
VWidth: 1200
HStem: -13 21G<115.5 139 304 315> 391 20G<322.5 364.5>
VStem: 87 77<67 114> 293 87<8 91>
Fore
492 130 m 1
 491 101 l 1
 453 73 430 57 401 38 c 0
 321 -13 321 -13 309 -13 c 0
 299 -13 293 -5 293 8 c 0
 293 20 298 51 308 97 c 1
 183 7 150 -13 128 -13 c 0
 103 -13 87 19 87 67 c 0
 87 148 129 283 166 325 c 0
 179 339 221 370 257 391 c 0
 283 407 302 411 343 411 c 0
 386 411 421 407 469 396 c 1
 453 378 451 375 440 360 c 1
 404 227 380 117 380 91 c 0
 380 79 385 71 392 71 c 0
 402 71 417 80 492 130 c 1
297 124 m 2
 316 137 l 1
 321 155 324 167 325 172 c 0
 331 198 336 223 342 248 c 0
 343 253 350 276 370 352 c 1
 334 360 303 365 285 365 c 0
 251 365 229 344 205 289 c 0
 180 232 164 164 164 114 c 0
 164 82 174 64 190 64 c 0
 208 64 238 81 297 124 c 2
424 489 m 1
 402 520 394 536 386 559 c 1
 398 568 403 571 410 576 c 0
 414 579 424 587 441 601 c 0
 447 606 451 609 455 612 c 1
 465 587 466 584 469 578 c 0
 473 570 477 563 489 544 c 1
 464 525 462 523 457 519 c 0
 449 513 446 510 424 489 c 1
291 489 m 1
 269 522 261 536 253 559 c 1
 279 577 282 579 308 601 c 1
 313 604 317 608 322 612 c 1
 333 587 334 584 337 578 c 0
 341 570 345 563 356 544 c 1
 334 526 330 523 324 519 c 0
 316 512 309 506 291 489 c 1
EndSplineSet
KernsSLIF: 119 -14 1 0 118 -13 1 0
EndChar
StartChar: aacute
Encoding: 323 225 216
Width: 420
VWidth: 1200
HStem: -13 21G<115.5 139 304 315> 391 20G<322.5 364.5>
VStem: 87 77<67 114> 293 87<8 91>
Fore
492 130 m 1
 491 101 l 1
 453 73 430 57 401 38 c 0
 321 -13 321 -13 309 -13 c 0
 299 -13 293 -5 293 8 c 0
 293 20 298 51 308 97 c 1
 183 7 150 -13 128 -13 c 0
 103 -13 87 19 87 67 c 0
 87 148 129 283 166 325 c 0
 179 339 221 370 257 391 c 0
 283 407 302 411 343 411 c 0
 386 411 421 407 469 396 c 1
 453 378 451 375 440 360 c 1
 404 227 380 117 380 91 c 0
 380 79 385 71 392 71 c 0
 402 71 417 80 492 130 c 1
297 124 m 2
 316 137 l 1
 321 155 324 167 325 172 c 0
 331 198 336 223 342 248 c 0
 343 253 350 276 370 352 c 1
 334 360 303 365 285 365 c 0
 251 365 229 344 205 289 c 0
 180 232 164 164 164 114 c 0
 164 82 174 64 190 64 c 0
 208 64 238 81 297 124 c 2
322 460 m 1
 298 466 l 1
 332 511 378 574 436 655 c 1
 481 633 l 1
 404 555 384 533 322 460 c 1
EndSplineSet
KernsSLIF: 119 -14 1 0 118 -13 1 0
EndChar
StartChar: agrave
Encoding: 324 224 217
Width: 420
VWidth: 1200
HStem: -13 21G<115.5 139 304 315> 391 20G<322.5 364.5>
VStem: 87 77<67 114> 293 87<8 91>
Fore
492 130 m 1
 491 101 l 1
 453 73 430 57 401 38 c 0
 321 -13 321 -13 309 -13 c 0
 299 -13 293 -5 293 8 c 0
 293 20 298 51 308 97 c 1
 183 7 150 -13 128 -13 c 0
 103 -13 87 19 87 67 c 0
 87 148 129 283 166 325 c 0
 179 339 221 370 257 391 c 0
 283 407 302 411 343 411 c 0
 386 411 421 407 469 396 c 1
 453 378 451 375 440 360 c 1
 404 227 380 117 380 91 c 0
 380 79 385 71 392 71 c 0
 402 71 417 80 492 130 c 1
297 124 m 2
 316 137 l 1
 321 155 324 167 325 172 c 0
 331 198 336 223 342 248 c 0
 343 253 350 276 370 352 c 1
 334 360 303 365 285 365 c 0
 251 365 229 344 205 289 c 0
 180 232 164 164 164 114 c 0
 164 82 174 64 190 64 c 0
 208 64 238 81 297 124 c 2
323 646 m 1
 339 655 l 1
 371 567 378 544 401 466 c 1
 389 462 386 462 376 460 c 1
 330 560 313 593 293 630 c 1
 306 637 l 1
 323 646 l 1
EndSplineSet
KernsSLIF: 119 -14 1 0 118 -13 1 0
EndChar
StartChar: acircumflex
Encoding: 325 226 218
Width: 420
VWidth: 1200
HStem: -13 21G<115.5 139 304 315> 391 20G<322.5 364.5>
VStem: 87 77<67 114> 293 87<8 91>
Fore
492 130 m 1
 491 101 l 1
 453 73 430 57 401 38 c 0
 321 -13 321 -13 309 -13 c 0
 299 -13 293 -5 293 8 c 0
 293 20 298 51 308 97 c 1
 183 7 150 -13 128 -13 c 0
 103 -13 87 19 87 67 c 0
 87 148 129 283 166 325 c 0
 179 339 221 370 257 391 c 0
 283 407 302 411 343 411 c 0
 386 411 421 407 469 396 c 1
 453 378 451 375 440 360 c 1
 404 227 380 117 380 91 c 0
 380 79 385 71 392 71 c 0
 402 71 417 80 492 130 c 1
297 124 m 2
 316 137 l 1
 321 155 324 167 325 172 c 0
 331 198 336 223 342 248 c 0
 343 253 350 276 370 352 c 1
 334 360 303 365 285 365 c 0
 251 365 229 344 205 289 c 0
 180 232 164 164 164 114 c 0
 164 82 174 64 190 64 c 0
 208 64 238 81 297 124 c 2
246 469 m 1
 245 479 l 1
 245 480 244 484 243 488 c 1
 351 597 372 616 416 654 c 1
 424 655 428 656 430 656 c 0
 433 656 438 655 443 654 c 1
 447 601 448 580 449 569 c 0
 452 540 454 510 457 480 c 1
 444 474 440 471 421 460 c 1
 420 471 417 495 412 530 c 1
 401 594 l 1
 368 568 353 556 328 534 c 0
 299 507 272 482 247 460 c 1
 246 469 l 1
EndSplineSet
EndChar
StartChar: abreve
Encoding: 326 259 219
Width: 420
VWidth: 1200
HStem: -13 21G<115.5 139 304 315> 391 20G<322.5 364.5> 488 54<336 360>
VStem: 87 77<67 114> 293 87<8 91>
Fore
492 130 m 1
 491 101 l 1
 453 73 430 57 401 38 c 0
 321 -13 321 -13 309 -13 c 0
 299 -13 293 -5 293 8 c 0
 293 20 298 51 308 97 c 1
 183 7 150 -13 128 -13 c 0
 103 -13 87 19 87 67 c 0
 87 148 129 283 166 325 c 0
 179 339 221 370 257 391 c 0
 283 407 302 411 343 411 c 0
 386 411 421 407 469 396 c 1
 453 378 451 375 440 360 c 1
 404 227 380 117 380 91 c 0
 380 79 385 71 392 71 c 0
 402 71 417 80 492 130 c 1
297 124 m 2
 316 137 l 1
 321 155 324 167 325 172 c 0
 331 198 336 223 342 248 c 0
 343 253 350 276 370 352 c 1
 334 360 303 365 285 365 c 0
 251 365 229 344 205 289 c 0
 180 232 164 164 164 114 c 0
 164 82 174 64 190 64 c 0
 208 64 238 81 297 124 c 2
193 609 m 5
 214 619 l 5
 248 563 285 542 350 542 c 4
 392 542 441 555 468 573 c 4
 488 586 497 597 511 623 c 5
 526 613 l 5
 501 539 425 488 338 488 c 4
 288 488 243 512 217 552 c 4
 207 568 201 582 193 609 c 5
EndSplineSet
EndChar
StartChar: atilde
Encoding: 327 227 220
Width: 420
VWidth: 1200
HStem: -13 21G<115.5 139 304 315> 391 20G<322.5 364.5> 503 50<406 416> 553 45<273 288>
VStem: 87 77<67 114> 293 87<8 91>
Fore
492 130 m 1
 491 101 l 1
 453 73 430 57 401 38 c 0
 321 -13 321 -13 309 -13 c 0
 299 -13 293 -5 293 8 c 0
 293 20 298 51 308 97 c 1
 183 7 150 -13 128 -13 c 0
 103 -13 87 19 87 67 c 0
 87 148 129 283 166 325 c 0
 179 339 221 370 257 391 c 0
 283 407 302 411 343 411 c 0
 386 411 421 407 469 396 c 1
 453 378 451 375 440 360 c 1
 404 227 380 117 380 91 c 0
 380 79 385 71 392 71 c 0
 402 71 417 80 492 130 c 1
297 124 m 2
 316 137 l 1
 321 155 324 167 325 172 c 0
 331 198 336 223 342 248 c 0
 343 253 350 276 370 352 c 1
 334 360 303 365 285 365 c 0
 251 365 229 344 205 289 c 0
 180 232 164 164 164 114 c 0
 164 82 174 64 190 64 c 0
 208 64 238 81 297 124 c 2
196 494 m 1
 183 512 l 1
 232 578 256 598 288 598 c 0
 308 598 318 595 356 573 c 0
 378 561 401 553 414 553 c 0
 429 553 453 562 467 572 c 0
 475 578 477 580 503 604 c 1
 513 586 l 1
 459 519 439 503 408 503 c 0
 385 503 373 508 323 536 c 0
 302 548 287 553 273 553 c 0
 248 553 233 541 196 494 c 1
EndSplineSet
EndChar
StartChar: aring
Encoding: 328 229 221
Width: 420
VWidth: 1200
HStem: -13 21G<115.5 139 304 315> 391 20G<322.5 364.5> 461 22<347 360> 618 22<378 394>
VStem: 87 77<67 114> 281 43<522 537> 415 47<565 580>
Fore
492 130 m 1
 491 101 l 1
 453 73 430 57 401 38 c 0
 321 -13 321 -13 309 -13 c 0
 299 -13 293 -5 293 8 c 0
 293 20 298 51 308 97 c 1
 183 7 150 -13 128 -13 c 0
 103 -13 87 19 87 67 c 0
 87 148 129 283 166 325 c 0
 179 339 221 370 257 391 c 0
 283 407 302 411 343 411 c 0
 386 411 421 407 469 396 c 1
 453 378 451 375 440 360 c 1
 404 227 380 117 380 91 c 0
 380 79 385 71 392 71 c 0
 402 71 417 80 492 130 c 1
297 124 m 2
 316 137 l 1
 321 155 324 167 325 172 c 0
 331 198 336 223 342 248 c 0
 343 253 350 276 370 352 c 1
 334 360 303 365 285 365 c 0
 251 365 229 344 205 289 c 0
 180 232 164 164 164 114 c 0
 164 82 174 64 190 64 c 0
 208 64 238 81 297 124 c 2
394 640 m 0
 436 640 462 617 462 578 c 0
 462 515 409 461 347 461 c 0
 305 461 281 484 281 524 c 0
 281 591 329 640 394 640 c 0
380 618 m 0
 348 618 324 583 324 535 c 0
 324 505 338 483 358 483 c 0
 389 483 415 521 415 567 c 0
 415 599 402 618 380 618 c 0
EndSplineSet
KernsSLIF: 119 -14 1 0 118 -13 1 0
EndChar
StartChar: aogonek
Encoding: 329 261 222
Width: 420
VWidth: 1200
HStem: -153 47<328 371> -13 77<128 190> 365 46<285 343>
VStem: 87 77<67 114> 275 57<-100 -72>
Fore
492 130 m 1
 491 101 l 1
 404 40 332 -39 332 -72 c 0
 332 -90 350 -106 371 -106 c 0
 386 -106 399 -99 420 -77 c 1
 433 -82 l 1
 401 -130 367 -153 328 -153 c 0
 296 -153 275 -132 275 -100 c 0
 275 -65 295 -34 336 -3 c 1
 322 -11 316 -13 310 -13 c 0
 299 -13 293 -6 293 8 c 0
 293 20 298 52 308 97 c 1
 183 7 150 -13 128 -13 c 0
 103 -13 87 19 87 67 c 0
 87 148 129 283 166 325 c 0
 179 339 221 370 257 391 c 0
 283 407 302 411 343 411 c 0
 386 411 421 407 469 396 c 1
 453 378 451 375 440 360 c 1
 404 227 380 117 380 91 c 0
 380 79 385 71 392 71 c 0
 402 71 417 80 492 130 c 1
297 124 m 2
 316 137 l 1
 321 155 324 167 325 172 c 0
 331 198 336 223 342 248 c 0
 343 253 350 276 370 352 c 1
 334 360 303 365 285 365 c 0
 251 365 229 344 205 289 c 0
 180 232 164 164 164 114 c 0
 164 82 174 64 190 64 c 0
 208 64 238 81 297 124 c 2
EndSplineSet
EndChar
StartChar: cacute
Encoding: 330 263 223
Width: 340
VWidth: 1200
HStem: -13 57<160 221> 359 52<270 314>
VStem: 87 77<79 120>
Fore
383 127 m 1
 381 95 l 1
 290 27 208 -13 160 -13 c 0
 114 -13 87 21 87 79 c 0
 87 141 108 226 136 280 c 0
 158 321 174 336 249 383 c 0
 285 407 296 411 314 411 c 0
 349 411 371 384 371 341 c 0
 371 340 371 335 370 330 c 1
 312 296 l 1
 307 340 294 359 270 359 c 0
 241 359 215 332 195 279 c 0
 176 232 164 168 164 120 c 0
 164 72 185 44 221 44 c 0
 253 44 306 72 383 127 c 1
282 460 m 1
 258 466 l 1
 292 511 338 574 396 655 c 1
 441 633 l 1
 364 555 344 533 282 460 c 1
EndSplineSet
EndChar
StartChar: ccaron
Encoding: 331 269 224
Width: 340
VWidth: 1200
HStem: -13 57<160 221> 359 52<270 314>
VStem: 87 77<79 120>
Fore
383 127 m 1
 381 95 l 1
 290 27 208 -13 160 -13 c 0
 114 -13 87 21 87 79 c 0
 87 141 108 226 136 280 c 0
 158 321 174 336 249 383 c 0
 285 407 296 411 314 411 c 0
 349 411 371 384 371 341 c 0
 371 340 371 335 370 330 c 1
 312 296 l 1
 307 340 294 359 270 359 c 0
 241 359 215 332 195 279 c 0
 176 232 164 168 164 120 c 0
 164 72 185 44 221 44 c 0
 253 44 306 72 383 127 c 1
464 645 m 1
 465 636 l 1
 465 634 466 631 467 626 c 1
 366 524 340 500 294 461 c 1
 285 459 282 458 280 458 c 0
 277 458 272 459 267 461 c 1
 263 524 258 582 254 634 c 1
 275 646 275 646 289 655 c 1
 301 565 301 561 309 520 c 1
 365 565 371 570 434 628 c 1
 442 637 454 647 463 655 c 1
 464 645 l 1
EndSplineSet
EndChar
StartChar: ccedilla
Encoding: 332 231 225
Width: 340
VWidth: 1200
HStem: -13 57<165 221> 359 52<270 314>
VStem: 87 77<79 120> 149 62<-130 -102>
DStem: 191 -9 230 -3 122 -92 185 -64
Fore
230 -3 m 1xe0
 185 -64 l 1
 202 -69 211 -83 211 -102 c 0
 211 -149 161 -189 76 -212 c 1
 61 -199 l 1
 109 -185 149 -154 149 -130 c 0xd0
 149 -116 143 -108 122 -92 c 1
 191 -9 l 1
 180 -12 174 -13 165 -13 c 0
 114 -13 87 18 87 79 c 0
 87 141 108 226 136 280 c 0
 158 321 175 336 249 383 c 0
 285 407 296 411 314 411 c 0
 349 411 371 384 371 341 c 0
 371 340 371 335 370 330 c 1
 313 296 l 1
 307 340 294 359 270 359 c 0
 241 359 216 332 195 279 c 0
 176 232 164 168 164 120 c 0
 164 72 185 44 221 44 c 0
 253 44 307 72 383 127 c 1
 382 95 l 1
 360 79 351 73 334 61 c 0
 329 57 323 53 316 50 c 1
 297 38 277 26 257 15 c 0
 254 13 244 7 230 -3 c 1xe0
EndSplineSet
EndChar
